SplineFontDB: 3.2
FontName: RobotoSlab-Share-Italic
FullName: Roboto Slab Share Italic
FamilyName: Roboto Slab Share
Weight: Regular
Copyright: Copyright 2018 The Roboto Slab Project Authors (https://github.com/googlefonts/robotoslab)\n"Fair and Share" tax glyphs by Vector Hastings released under CC 4.0 BY-SA
Version: 2.002
ItalicAngle: 0
UnderlinePosition: -200
UnderlineWidth: 100
Ascent: 1638
Descent: 410
InvalidEm: 0
sfntRevision: 0x00020083
LayerCount: 2
Layer: 0 1 "Back" 1
Layer: 1 1 "Fore" 0
XUID: [1021 508 542950195 7977]
StyleMap: 0x0040
FSType: 0
OS2Version: 4
OS2_WeightWidthSlopeOnly: 0
OS2_UseTypoMetrics: 1
CreationTime: 1533152473
ModificationTime: 1758753359
PfmFamily: 81
TTFWeight: 400
TTFWidth: 5
LineGap: 0
VLineGap: 0
Panose: 0 0 0 0 0 0 0 0 0 0
OS2TypoAscent: 2146
OS2TypoAOffset: 0
OS2TypoDescent: -555
OS2TypoDOffset: 0
OS2TypoLinegap: 0
OS2WinAscent: 2146
OS2WinAOffset: 0
OS2WinDescent: 618
OS2WinDOffset: 0
HheadAscent: 2146
HheadAOffset: 0
HheadDescent: -555
HheadDOffset: 0
OS2SubXSize: 1331
OS2SubYSize: 1229
OS2SubXOff: 0
OS2SubYOff: 154
OS2SupXSize: 1331
OS2SupYSize: 1229
OS2SupXOff: 0
OS2SupYOff: 717
OS2StrikeYSize: 100
OS2StrikeYPos: 649
OS2CapHeight: 1456
OS2XHeight: 1082
OS2Vendor: 'GOOG'
OS2CodePages: 2000019f.00000000
OS2UnicodeRanges: 000000ff.0000005b.00000020.00000000
Lookup: 1 0 0 "'aalt' Access All Alternates in Latin lookup 0" { "'aalt' Access All Alternates in Latin lookup 0 subtable"  } ['aalt' ('DFLT' <'dflt' > 'latn' <'CAT ' 'MOL ' 'ROM ' 'dflt' > ) ]
Lookup: 3 0 0 "'aalt' Access All Alternates in Latin lookup 1" { "'aalt' Access All Alternates in Latin lookup 1 subtable"  } ['aalt' ('DFLT' <'dflt' > 'latn' <'CAT ' 'MOL ' 'ROM ' 'dflt' > ) ]
Lookup: 4 0 0 "'ccmp' Glyph Composition/Decomposition in Latin lookup 2" { "'ccmp' Glyph Composition/Decomposition in Latin lookup 2 subtable"  } ['ccmp' ('DFLT' <'dflt' > 'latn' <'CAT ' 'MOL ' 'ROM ' 'dflt' > ) ]

StartChar: .notdef
Encoding: 65536 -1 0
Width: 1038
GlyphClass: 1
Flags: W
LayerCount: 2
Fore
SplineSet
100 0 m 1,0,-1
 357 1456 l 1,1,-1
 1195 1456 l 1,2,-1
 938 0 l 1,3,-1
 100 0 l 1,0,-1
124 20 m 1,4,-1
 184 20 l 1,5,-1
 1171 1436 l 1,6,-1
 1111 1436 l 1,7,-1
 124 20 l 1,4,-1
862 20 m 1,8,-1
 922 20 l 1,9,-1
 433 1436 l 1,10,-1
 373 1436 l 1,11,-1
 862 20 l 1,8,-1
164 54 m 1,12,-1
 894 54 l 1,13,-1
 1131 1402 l 1,14,-1
 401 1402 l 1,15,-1
 164 54 l 1,12,-1
EndSplineSet
Validated: 5
EndChar

StartChar: A
Encoding: 65 65 1
Width: 1533
GlyphClass: 2
Flags: W
AnchorPoint: "Anchor-3" 1463 0 basechar 0
AnchorPoint: "Anchor-2" 767 0 basechar 0
AnchorPoint: "Anchor-0" 1013 1376 basechar 0
LayerCount: 2
Fore
SplineSet
70 0 m 1,0,-1
 92 126 l 1,1,-1
 203 141 l 1,2,-1
 944 1456 l 1,3,-1
 1113 1456 l 1,4,-1
 1381 141 l 1,5,-1
 1485 126 l 1,6,-1
 1463 0 l 1,7,-1
 1045 0 l 1,8,-1
 1067 126 l 1,9,-1
 1181 145 l 1,10,-1
 1132 413 l 1,11,-1
 549 413 l 1,12,-1
 403 145 l 1,13,-1
 509 126 l 1,14,-1
 487 0 l 1,15,-1
 70 0 l 1,0,-1
639 578 m 1,16,-1
 1101 578 l 1,17,-1
 991 1170 l 1,18,-1
 985 1203 l 1,19,-1
 979 1203 l 1,20,-1
 961 1170 l 1,21,-1
 639 578 l 1,16,-1
EndSplineSet
Validated: 1048577
Substitution2: "'c2sc' Capitals to Small Capitals in Latin lookup 19 subtable" a.sc
Substitution2: "Single Substitution lookup 17 subtable" ordfeminine
AlternateSubs2: "'aalt' Access All Alternates in Latin lookup 1 subtable" a.sc ordfeminine
EndChar

StartChar: AE
Encoding: 198 198 25
Width: 2096
GlyphClass: 2
Flags: W
AnchorPoint: "Anchor-2" 1088 0 basechar 0
AnchorPoint: "Anchor-0" 1401 1376 basechar 0
LayerCount: 2
Fore
SplineSet
51 0 m 1,0,-1
 73 126 l 1,1,-1
 218 146 l 1,2,-1
 1242 1456 l 1,3,-1
 2209 1456 l 1,4,-1
 2152 1134 l 1,5,-1
 1984 1134 l 1,6,-1
 1998 1301 l 1,7,-1
 1490 1301 l 1,8,-1
 1428 835 l 1,9,-1
 2018 835 l 1,10,-1
 1991 680 l 1,11,-1
 1407 680 l 1,12,-1
 1336 154 l 1,13,-1
 1858 154 l 1,14,-1
 1904 321 l 1,15,-1
 2071 321 l 1,16,-1
 2014 0 l 1,17,-1
 956 0 l 1,18,-1
 978 126 l 1,19,-1
 1139 153 l 1,20,-1
 1166 350 l 1,21,-1
 610 350 l 1,22,-1
 452 140 l 1,23,-1
 531 126 l 1,24,-1
 509 0 l 1,25,-1
 51 0 l 1,0,-1
744 529 m 1,26,-1
 1190 529 l 1,27,-1
 1284 1239 l 1,28,-1
 1280 1241 l 1,29,-1
 1269 1227 l 1,30,-1
 744 529 l 1,26,-1
EndSplineSet
Validated: 1048577
Substitution2: "'c2sc' Capitals to Small Capitals in Latin lookup 19 subtable" ae.sc
Substitution2: "'aalt' Access All Alternates in Latin lookup 0 subtable" ae.sc
EndChar

StartChar: B
Encoding: 66 66 27
Width: 1322
GlyphClass: 2
Flags: W
AnchorPoint: "Anchor-2" 669 0 basechar 0
AnchorPoint: "Anchor-0" 912 1376 basechar 0
LayerCount: 2
Fore
SplineSet
81 0 m 1,0,-1
 103 126 l 1,1,-1
 271 154 l 1,2,-1
 473 1301 l 1,3,-1
 315 1329 l 1,4,-1
 338 1456 l 1,5,-1
 501 1456 l 1,6,-1
 966 1456 l 2,7,8
 1194 1456 1194 1456 1305 1358 c 0,9,10
 1389 1283 1389 1283 1389 1151 c 0,11,12
 1389 1109 1389 1109 1381 1062 c 0,13,14
 1364 965 1364 965 1289 888.5 c 128,-1,15
 1214 812 1214 812 1107 775 c 1,16,17
 1192 757 1192 757 1245.5 704.5 c 128,-1,18
 1299 652 1299 652 1320 576 c 0,19,20
 1332 533 1332 533 1332 486 c 0,21,22
 1332 450 1332 450 1325 411 c 0,23,24
 1290 211 1290 211 1141.5 105.5 c 128,-1,25
 993 0 993 0 771 0 c 2,26,-1
 81 0 l 1,0,-1
468 154 m 1,27,-1
 798 154 l 2,28,29
 933 154 933 154 1019.5 220.5 c 128,-1,30
 1106 287 1106 287 1127 409 c 0,31,32
 1134 449 1134 449 1134 484 c 0,33,34
 1134 560 1134 560 1100 610 c 0,35,36
 1050 683 1050 683 921 683 c 2,37,-1
 561 683 l 1,38,-1
 468 154 l 1,27,-1
589 837 m 1,39,-1
 908 837 l 2,40,41
 1014 837 1014 837 1090 898.5 c 128,-1,42
 1166 960 1166 960 1185 1066 c 0,43,44
 1190 1095 1190 1095 1190 1121 c 0,45,46
 1190 1198 1190 1198 1142 1242 c 0,47,48
 1078 1300 1078 1300 938 1301 c 2,49,-1
 670 1301 l 1,50,-1
 589 837 l 1,39,-1
EndSplineSet
Validated: 1048577
Substitution2: "'c2sc' Capitals to Small Capitals in Latin lookup 19 subtable" b.sc
Substitution2: "'aalt' Access All Alternates in Latin lookup 0 subtable" b.sc
EndChar

StartChar: C
Encoding: 67 67 28
Width: 1290
GlyphClass: 2
Flags: W
AnchorPoint: "Anchor-2" 710 0 basechar 0
AnchorPoint: "Anchor-0" 953 1376 basechar 0
LayerCount: 2
Fore
SplineSet
735 -21 m 0,0,1
 516 -21 516 -21 386.5 75 c 128,-1,2
 257 171 257 171 213 338 c 0,3,4
 189 429 189 429 189 533 c 0,5,6
 189 620 189 620 206 717 c 2,7,-1
 210 738 l 2,8,9
 248 952 248 952 354.5 1118.5 c 128,-1,10
 461 1285 461 1285 621.5 1381 c 128,-1,11
 782 1477 782 1477 982 1477 c 0,12,13
 1123 1477 1123 1477 1232.5 1433 c 128,-1,14
 1342 1389 1342 1389 1407 1321 c 1,15,-1
 1352 1007 l 1,16,-1
 1195 1007 l 1,17,-1
 1214 1237 l 1,18,19
 1186 1262 1186 1262 1148 1279 c 128,-1,20
 1110 1296 1110 1296 1061 1305 c 128,-1,21
 1012 1314 1012 1314 953 1314 c 0,22,23
 810 1314 810 1314 698 1240.5 c 128,-1,24
 586 1167 586 1167 512 1038 c 128,-1,25
 438 909 438 909 408 740 c 2,26,-1
 404 717 l 2,27,28
 388 625 388 625 388 546 c 0,29,30
 388 468 388 468 404 404 c 0,31,32
 436 274 436 274 528.5 206.5 c 128,-1,33
 621 139 621 139 771 139 c 0,34,35
 841 139 841 139 911 156 c 128,-1,36
 981 173 981 173 1029 200 c 1,37,-1
 1087 403 l 1,38,-1
 1241 403 l 1,39,-1
 1185 87 l 1,40,41
 1094 36 1094 36 975 7.5 c 128,-1,42
 856 -21 856 -21 735 -21 c 0,0,1
EndSplineSet
Validated: 1048577
Substitution2: "'ss04' Style Set 4 in Latin lookup 26 subtable" C.ss04
Substitution2: "'ss03' Style Set 3 in Latin lookup 25 subtable" C.ss03
Substitution2: "'c2sc' Capitals to Small Capitals in Latin lookup 19 subtable" c.sc
AlternateSubs2: "'aalt' Access All Alternates in Latin lookup 1 subtable" C.ss03 C.ss04 c.sc
EndChar

StartChar: D
Encoding: 68 68 34
Width: 1356
GlyphClass: 2
Flags: W
AnchorPoint: "Anchor-4" 512 731 basechar 0
AnchorPoint: "Anchor-2" 678 0 basechar 0
AnchorPoint: "Anchor-0" 921 1376 basechar 0
LayerCount: 2
Fore
SplineSet
81 0 m 1,0,-1
 103 126 l 1,1,-1
 271 154 l 1,2,-1
 473 1301 l 1,3,-1
 315 1329 l 1,4,-1
 338 1456 l 1,5,-1
 501 1456 l 1,6,-1
 908 1456 l 2,7,8
 1101 1456 1101 1456 1228 1364 c 128,-1,9
 1355 1272 1355 1272 1407 1111 c 0,10,11
 1437 1017 1437 1017 1437 907 c 0,12,13
 1437 829 1437 829 1422 743 c 2,14,-1
 1417 712 l 2,15,16
 1381 510 1381 510 1275.5 348.5 c 128,-1,17
 1170 187 1170 187 1012 93.5 c 128,-1,18
 854 0 854 0 661 0 c 2,19,-1
 81 0 l 1,0,-1
468 154 m 1,20,-1
 678 154 l 2,21,22
 816 154 816 154 928.5 229.5 c 128,-1,23
 1041 305 1041 305 1116.5 431.5 c 128,-1,24
 1192 558 1192 558 1220 712 c 2,25,-1
 1225 745 l 2,26,27
 1238 820 1238 820 1238 888 c 0,28,29
 1238 964 1238 964 1222 1030 c 0,30,31
 1191 1156 1191 1156 1104.5 1228.5 c 128,-1,32
 1018 1301 1018 1301 880 1301 c 2,33,-1
 670 1301 l 1,34,-1
 468 154 l 1,20,-1
EndSplineSet
Validated: 1048577
Substitution2: "'ss05' Style Set 5 in Latin lookup 27 subtable" D.ss05
Substitution2: "'c2sc' Capitals to Small Capitals in Latin lookup 19 subtable" d.sc
AlternateSubs2: "'aalt' Access All Alternates in Latin lookup 1 subtable" D.ss05 d.sc
EndChar

StartChar: E
Encoding: 69 69 38
Width: 1306
GlyphClass: 2
Flags: W
AnchorPoint: "Anchor-3" 1190 0 basechar 0
AnchorPoint: "Anchor-2" 653 0 basechar 0
AnchorPoint: "Anchor-0" 896 1376 basechar 0
LayerCount: 2
Fore
SplineSet
81 0 m 1,0,-1
 103 126 l 1,1,-1
 271 154 l 1,2,-1
 473 1301 l 1,3,-1
 315 1329 l 1,4,-1
 338 1456 l 1,5,-1
 1416 1456 l 1,6,-1
 1354 1106 l 1,7,-1
 1196 1106 l 1,8,-1
 1209 1304 l 1,9,-1
 671 1304 l 1,10,-1
 587 830 l 1,11,-1
 1124 830 l 1,12,-1
 1097 675 l 1,13,-1
 560 675 l 1,14,-1
 467 148 l 1,15,-1
 1037 148 l 1,16,-1
 1095 349 l 1,17,-1
 1252 349 l 1,18,-1
 1190 0 l 1,19,-1
 81 0 l 1,0,-1
EndSplineSet
Validated: 1048577
Substitution2: "'c2sc' Capitals to Small Capitals in Latin lookup 19 subtable" e.sc
Substitution2: "'aalt' Access All Alternates in Latin lookup 0 subtable" e.sc
EndChar

StartChar: uni018F
Encoding: 399 399 56
Width: 1402
GlyphClass: 2
Flags: W
AnchorPoint: "Anchor-2" 687 0 basechar 0
AnchorPoint: "Anchor-0" 916 1376 basechar 0
LayerCount: 2
Fore
SplineSet
695 -21 m 0,0,1
 493 -21 493 -21 368.5 58.5 c 128,-1,2
 244 138 244 138 200 287 c 0,3,4
 176 368 176 368 175 467 c 0,5,6
 175 549 175 549 192 644 c 2,7,-1
 211 754 l 1,8,-1
 1217 754 l 1,9,-1
 1226 808 l 2,10,11
 1239 879 1239 879 1239 943 c 0,12,13
 1238 1016 1238 1016 1222 1076 c 0,14,15
 1192 1192 1192 1192 1101 1257 c 128,-1,16
 1010 1322 1010 1322 855 1322 c 0,17,18
 741 1322 741 1322 656 1298.5 c 128,-1,19
 571 1275 571 1275 485 1238 c 1,20,-1
 461 1377 l 1,21,22
 519 1412 519 1412 625.5 1444.5 c 128,-1,23
 732 1477 732 1477 882 1477 c 0,24,25
 1089 1477 1089 1477 1222 1393 c 0,26,27
 1355 1308 1355 1308 1407 1158 c 0,28,29
 1438 1069 1438 1069 1438 963 c 0,30,31
 1438 889 1438 889 1423 808 c 2,32,-1
 1395 645 l 2,33,34
 1361 452 1361 452 1256.5 301.5 c 128,-1,35
 1152 151 1152 151 1005 65 c 128,-1,36
 858 -21 858 -21 695 -21 c 0,0,1
722 133 m 0,37,38
 837 133 837 133 932 195.5 c 128,-1,39
 1027 258 1027 258 1094.5 367 c 128,-1,40
 1162 476 1162 476 1192 616 c 1,41,-1
 1192 619 l 1,42,-1
 384 619 l 1,43,-1
 378 586 l 2,44,45
 366 519 366 519 366 461 c 0,46,47
 366 399 366 399 380 346 c 0,48,49
 406 244 406 244 489 188.5 c 128,-1,50
 572 133 572 133 722 133 c 0,37,38
EndSplineSet
Validated: 1048577
EndChar

StartChar: F
Encoding: 70 70 57
Width: 1256
GlyphClass: 2
Flags: W
AnchorPoint: "Anchor-4" 455 407 basechar 0
AnchorPoint: "Anchor-2" 628 0 basechar 0
AnchorPoint: "Anchor-0" 871 1376 basechar 0
LayerCount: 2
Fore
SplineSet
81 0 m 1,0,-1
 103 126 l 1,1,-1
 271 154 l 1,2,-1
 473 1301 l 1,3,-1
 315 1329 l 1,4,-1
 338 1456 l 1,5,-1
 1433 1456 l 1,6,-1
 1371 1106 l 1,7,-1
 1213 1106 l 1,8,-1
 1226 1303 l 1,9,-1
 671 1303 l 1,10,-1
 582 799 l 1,11,-1
 1115 799 l 1,12,-1
 1088 644 l 1,13,-1
 555 644 l 1,14,-1
 468 154 l 1,15,-1
 626 126 l 1,16,-1
 604 0 l 1,17,-1
 81 0 l 1,0,-1
EndSplineSet
Validated: 1048577
Substitution2: "'c2sc' Capitals to Small Capitals in Latin lookup 19 subtable" f.sc
Substitution2: "'aalt' Access All Alternates in Latin lookup 0 subtable" f.sc
EndChar

StartChar: G
Encoding: 71 71 58
Width: 1346
GlyphClass: 2
Flags: W
AnchorPoint: "Anchor-2" 673 0 basechar 0
AnchorPoint: "Anchor-0" 916 1376 basechar 0
LayerCount: 2
Fore
SplineSet
734 -21 m 0,0,1
 532 -21 532 -21 400.5 72.5 c 0,2,3
 268 166 268 166 218 332 c 0,4,5
 189 427 189 427 190 538 c 0,6,7
 190 622 190 622 206 716 c 2,8,-1
 210 740 l 2,9,10
 249 960 249 960 359 1125.5 c 128,-1,11
 469 1291 469 1291 625 1384 c 128,-1,12
 781 1477 781 1477 959 1477 c 0,13,14
 1129 1477 1129 1477 1241 1438 c 128,-1,15
 1353 1399 1353 1399 1425 1333 c 1,16,-1
 1373 1039 l 1,17,-1
 1211 1039 l 1,18,-1
 1227 1250 l 1,19,20
 1184 1282 1184 1282 1116 1298.5 c 128,-1,21
 1048 1315 1048 1315 951 1315 c 0,22,23
 826 1315 826 1315 713 1243 c 128,-1,24
 600 1171 600 1171 519.5 1042.5 c 128,-1,25
 439 914 439 914 409 742 c 2,26,-1
 404 716 l 2,27,28
 388 629 388 629 388 553 c 0,29,30
 388 476 388 476 404 412 c 0,31,32
 435 282 435 282 525.5 211 c 128,-1,33
 616 140 616 140 763 140 c 0,34,35
 863 140 863 140 935 157.5 c 128,-1,36
 1007 175 1007 175 1065 203 c 1,37,-1
 1125 545 l 1,38,-1
 848 555 l 1,39,-1
 873 700 l 1,40,-1
 1349 700 l 1,41,-1
 1250 136 l 1,42,43
 1177 77 1177 77 1050.5 28 c 128,-1,44
 924 -21 924 -21 734 -21 c 0,0,1
EndSplineSet
Validated: 1572897
Substitution2: "'ss04' Style Set 4 in Latin lookup 26 subtable" G.ss04
Substitution2: "'ss03' Style Set 3 in Latin lookup 25 subtable" G.ss03
Substitution2: "'c2sc' Capitals to Small Capitals in Latin lookup 19 subtable" g.sc
AlternateSubs2: "'aalt' Access All Alternates in Latin lookup 1 subtable" G.ss03 G.ss04 g.sc
EndChar

StartChar: H
Encoding: 72 72 63
Width: 1578
GlyphClass: 2
Flags: W
AnchorPoint: "Anchor-4" 970 1028 basechar 0
AnchorPoint: "Anchor-2" 789 0 basechar 0
AnchorPoint: "Anchor-0" 1032 1376 basechar 0
LayerCount: 2
Fore
SplineSet
81 0 m 1,0,-1
 103 126 l 1,1,-1
 271 154 l 1,2,-1
 473 1301 l 1,3,-1
 315 1329 l 1,4,-1
 338 1456 l 1,5,-1
 861 1456 l 1,6,-1
 838 1329 l 1,7,-1
 670 1301 l 1,8,-1
 582 798 l 1,9,-1
 1278 798 l 1,10,-1
 1366 1301 l 1,11,-1
 1208 1329 l 1,12,-1
 1231 1456 l 1,13,-1
 1394 1456 l 1,14,-1
 1591 1456 l 1,15,-1
 1754 1456 l 1,16,-1
 1731 1329 l 1,17,-1
 1563 1301 l 1,18,-1
 1361 154 l 1,19,-1
 1519 126 l 1,20,-1
 1497 0 l 1,21,-1
 974 0 l 1,22,-1
 996 126 l 1,23,-1
 1164 154 l 1,24,-1
 1250 643 l 1,25,-1
 554 643 l 1,26,-1
 468 154 l 1,27,-1
 626 126 l 1,28,-1
 604 0 l 1,29,-1
 81 0 l 1,0,-1
EndSplineSet
Validated: 1048577
Substitution2: "'c2sc' Capitals to Small Capitals in Latin lookup 19 subtable" h.sc
Substitution2: "'aalt' Access All Alternates in Latin lookup 0 subtable" h.sc
EndChar

StartChar: I
Encoding: 73 73 66
Width: 685
GlyphClass: 2
Flags: W
AnchorPoint: "Anchor-3" 604 0 basechar 0
AnchorPoint: "Anchor-2" 342 0 basechar 0
AnchorPoint: "Anchor-0" 585 1376 basechar 0
LayerCount: 2
Fore
SplineSet
81 0 m 1,0,-1
 103 126 l 1,1,-1
 271 154 l 1,2,-1
 473 1301 l 1,3,-1
 315 1329 l 1,4,-1
 338 1456 l 1,5,-1
 861 1456 l 1,6,-1
 838 1329 l 1,7,-1
 670 1301 l 1,8,-1
 468 154 l 1,9,-1
 626 126 l 1,10,-1
 604 0 l 1,11,-1
 81 0 l 1,0,-1
EndSplineSet
Validated: 1048577
Substitution2: "'c2sc' Capitals to Small Capitals in Latin lookup 19 subtable" i.sc
Substitution2: "'aalt' Access All Alternates in Latin lookup 0 subtable" i.sc
EndChar

StartChar: J
Encoding: 74 74 79
Width: 1169
GlyphClass: 2
Flags: W
AnchorPoint: "Anchor-2" 585 0 basechar 0
AnchorPoint: "Anchor-0" 1078 1376 basechar 0
LayerCount: 2
Fore
SplineSet
499 -21 m 0,0,1
 378 -21 378 -21 288 27 c 128,-1,2
 198 75 198 75 156 172 c 0,3,4
 127 238 127 238 127 327 c 0,5,6
 127 369 127 369 133 415 c 1,7,-1
 136 421 l 1,8,-1
 325 421 l 1,9,10
 318 377 318 377 318 340 c 0,11,12
 318 253 318 253 354 205 c 0,13,14
 406 136 406 136 524 136 c 0,15,16
 607 136 607 136 666.5 171.5 c 128,-1,17
 726 207 726 207 762.5 269.5 c 128,-1,18
 799 332 799 332 813 413 c 2,19,-1
 969 1301 l 1,20,-1
 780 1327 l 1,21,-1
 803 1456 l 1,22,-1
 1357 1456 l 1,23,-1
 1334 1329 l 1,24,-1
 1166 1301 l 1,25,-1
 1010 413 l 2,26,27
 987 283 987 283 920 185 c 128,-1,28
 853 87 853 87 747 33 c 128,-1,29
 641 -21 641 -21 499 -21 c 0,0,1
EndSplineSet
Validated: 1048577
Substitution2: "'c2sc' Capitals to Small Capitals in Latin lookup 19 subtable" j.sc
Substitution2: "'aalt' Access All Alternates in Latin lookup 0 subtable" j.sc
EndChar

StartChar: K
Encoding: 75 75 81
Width: 1501
GlyphClass: 2
Flags: W
AnchorPoint: "Anchor-2" 751 0 basechar 0
AnchorPoint: "Anchor-0" 994 1376 basechar 0
LayerCount: 2
Fore
SplineSet
501 421 m 1,0,-1
 418 543 l 1,1,-1
 1244 1310 l 1,2,-1
 1249 1315 l 1,3,-1
 1142 1329 l 1,4,-1
 1165 1456 l 1,5,-1
 1632 1456 l 1,6,-1
 1609 1329 l 1,7,-1
 1468 1304 l 1,8,-1
 501 421 l 1,0,-1
81 0 m 1,9,-1
 103 126 l 1,10,-1
 271 154 l 1,11,-1
 473 1301 l 1,12,-1
 315 1329 l 1,13,-1
 338 1456 l 1,14,-1
 861 1456 l 1,15,-1
 838 1329 l 1,16,-1
 670 1301 l 1,17,-1
 468 154 l 1,18,-1
 626 126 l 1,19,-1
 604 0 l 1,20,-1
 81 0 l 1,9,-1
941 0 m 1,21,-1
 963 126 l 1,22,-1
 1086 140 l 1,23,-1
 1085 141 l 1,24,-1
 780 700 l 1,25,-1
 918 855 l 1,26,-1
 1320 151 l 1,27,-1
 1449 126 l 1,28,-1
 1427 0 l 1,29,-1
 941 0 l 1,21,-1
EndSplineSet
Validated: 1048581
Substitution2: "'ss05' Style Set 5 in Latin lookup 27 subtable" K.ss05
Substitution2: "'c2sc' Capitals to Small Capitals in Latin lookup 19 subtable" k.sc
AlternateSubs2: "'aalt' Access All Alternates in Latin lookup 1 subtable" K.ss05 k.sc
EndChar

StartChar: L
Encoding: 76 76 83
Width: 1210
GlyphClass: 2
Flags: W
AnchorPoint: "Anchor-4" 494 753 basechar 0
AnchorPoint: "Anchor-2" 605 0 basechar 0
AnchorPoint: "Anchor-1" 1306 1456 basechar 0
AnchorPoint: "Anchor-0" 596 1376 basechar 0
LayerCount: 2
Fore
SplineSet
81 0 m 1,0,-1
 103 126 l 1,1,-1
 271 154 l 1,2,-1
 473 1301 l 1,3,-1
 315 1329 l 1,4,-1
 338 1456 l 1,5,-1
 501 1456 l 1,6,-1
 698 1456 l 1,7,-1
 861 1456 l 1,8,-1
 838 1329 l 1,9,-1
 670 1301 l 1,10,-1
 468 151 l 1,11,-1
 983 151 l 1,12,-1
 1046 381 l 1,13,-1
 1197 381 l 1,14,-1
 1130 0 l 1,15,-1
 81 0 l 1,0,-1
EndSplineSet
Validated: 1048577
Substitution2: "'c2sc' Capitals to Small Capitals in Latin lookup 19 subtable" l.sc
Substitution2: "'aalt' Access All Alternates in Latin lookup 0 subtable" l.sc
EndChar

StartChar: M
Encoding: 77 77 89
Width: 1982
GlyphClass: 2
Flags: W
AnchorPoint: "Anchor-2" 991 0 basechar 0
AnchorPoint: "Anchor-0" 1234 1376 basechar 0
LayerCount: 2
Fore
SplineSet
94 0 m 1,0,-1
 116 126 l 1,1,-1
 284 154 l 1,2,-1
 486 1301 l 1,3,-1
 328 1329 l 1,4,-1
 351 1456 l 1,5,-1
 514 1456 l 1,6,-1
 777 1456 l 1,7,-1
 1051 351 l 1,8,-1
 1057 351 l 1,9,-1
 1706 1456 l 1,10,-1
 2145 1456 l 1,11,-1
 2122 1329 l 1,12,-1
 1954 1301 l 1,13,-1
 1752 154 l 1,14,-1
 1910 126 l 1,15,-1
 1888 0 l 1,16,-1
 1365 0 l 1,17,-1
 1387 126 l 1,18,-1
 1564 154 l 1,19,-1
 1639 576 l 1,20,-1
 1746 1187 l 1,21,-1
 1741 1188 l 1,22,-1
 1068 52 l 1,23,-1
 937 52 l 1,24,-1
 648 1186 l 1,25,-1
 643 1185 l 1,26,-1
 543 576 l 1,27,-1
 468 154 l 1,28,-1
 639 126 l 1,29,-1
 617 0 l 1,30,-1
 94 0 l 1,0,-1
EndSplineSet
Validated: 1048577
Substitution2: "'c2sc' Capitals to Small Capitals in Latin lookup 19 subtable" m.sc
Substitution2: "'aalt' Access All Alternates in Latin lookup 0 subtable" m.sc
EndChar

StartChar: N
Encoding: 78 78 91
Width: 1592
GlyphClass: 2
Flags: W
AnchorPoint: "Anchor-2" 796 0 basechar 0
AnchorPoint: "Anchor-0" 1039 1376 basechar 0
LayerCount: 2
Fore
SplineSet
83 0 m 1,0,-1
 105 126 l 1,1,-1
 273 154 l 1,2,-1
 475 1301 l 1,3,-1
 317 1329 l 1,4,-1
 340 1456 l 1,5,-1
 503 1456 l 1,6,-1
 702 1456 l 1,7,-1
 1216 321 l 1,8,-1
 1222 323 l 1,9,-1
 1394 1301 l 1,10,-1
 1220 1329 l 1,11,-1
 1243 1456 l 1,12,-1
 1603 1456 l 1,13,-1
 1766 1456 l 1,14,-1
 1743 1329 l 1,15,-1
 1575 1301 l 1,16,-1
 1346 0 l 1,17,-1
 1166 0 l 1,18,-1
 634 1141 l 1,19,-1
 628 1139 l 1,20,-1
 454 154 l 1,21,-1
 628 126 l 1,22,-1
 606 0 l 1,23,-1
 83 0 l 1,0,-1
EndSplineSet
Validated: 1048577
Substitution2: "'c2sc' Capitals to Small Capitals in Latin lookup 19 subtable" n.sc
Substitution2: "'aalt' Access All Alternates in Latin lookup 0 subtable" n.sc
EndChar

StartChar: Eng
Encoding: 330 330 96
Width: 1559
GlyphClass: 1
Flags: W
LayerCount: 2
Fore
SplineSet
930 -437 m 0,0,1
 899 -437 899 -437 874 -432.5 c 128,-1,2
 849 -428 849 -428 821 -419 c 1,3,-1
 862 -269 l 1,4,5
 874 -274 874 -274 907 -278 c 128,-1,6
 940 -282 940 -282 957 -282 c 0,7,8
 1018 -282 1018 -282 1061 -230.5 c 128,-1,9
 1104 -179 1104 -179 1120 -89 c 2,10,-1
 1136 0 l 1,11,-1
 632 1112 l 1,12,-1
 626 1110 l 1,13,-1
 457 154 l 1,14,-1
 615 126 l 1,15,-1
 593 0 l 1,16,-1
 70 0 l 1,17,-1
 92 126 l 1,18,-1
 260 154 l 1,19,-1
 462 1301 l 1,20,-1
 304 1329 l 1,21,-1
 327 1456 l 1,22,-1
 687 1456 l 1,23,-1
 1191 344 l 1,24,-1
 1197 346 l 1,25,-1
 1365 1301 l 1,26,-1
 1207 1329 l 1,27,-1
 1230 1456 l 1,28,-1
 1753 1456 l 1,29,-1
 1730 1329 l 1,30,-1
 1562 1301 l 1,31,-1
 1317 -89 l 2,32,33
 1288 -256 1288 -256 1186 -346.5 c 128,-1,34
 1084 -437 1084 -437 930 -437 c 0,0,1
EndSplineSet
Validated: 1
Substitution2: "'c2sc' Capitals to Small Capitals in Latin lookup 19 subtable" eng.sc
Substitution2: "'aalt' Access All Alternates in Latin lookup 0 subtable" eng.sc
EndChar

StartChar: O
Encoding: 79 79 97
Width: 1351
GlyphClass: 2
Flags: W
AnchorPoint: "Anchor-4" 804 728 basechar 0
AnchorPoint: "Anchor-3" 960 0 basechar 0
AnchorPoint: "Anchor-2" 676 0 basechar 0
AnchorPoint: "Anchor-1" 1228 1376 basechar 0
AnchorPoint: "Anchor-0" 919 1376 basechar 0
LayerCount: 2
Fore
SplineSet
671 -21 m 0,0,1
 530 -21 530 -21 427.5 33 c 128,-1,2
 325 87 325 87 264 185.5 c 0,3,4
 204 284 204 284 186 419 c 0,5,6
 179 471 179 471 179 527 c 0,7,8
 179 617 179 617 196 717 c 2,9,-1
 200 738 l 2,10,11
 229 900 229 900 294 1035.5 c 128,-1,12
 359 1171 359 1171 455 1270 c 128,-1,13
 551 1369 551 1369 672.5 1423 c 128,-1,14
 794 1477 794 1477 935 1477 c 0,15,16
 1084 1477 1084 1477 1187.5 1423 c 128,-1,17
 1291 1369 1291 1369 1350 1270 c 0,18,19
 1408 1172 1408 1172 1424 1036 c 0,20,21
 1429 989 1429 989 1430 938 c 0,22,23
 1430 844 1430 844 1411 738 c 2,24,-1
 1407 717 l 2,25,26
 1378 554 1378 554 1315.5 419 c 128,-1,27
 1253 284 1253 284 1159 185.5 c 128,-1,28
 1065 87 1065 87 942.5 33 c 128,-1,29
 820 -21 820 -21 671 -21 c 0,0,1
700 143 m 0,30,31
 845 143 845 143 947.5 215 c 128,-1,32
 1050 287 1050 287 1114.5 416.5 c 128,-1,33
 1179 546 1179 546 1209 717 c 2,34,-1
 1213 740 l 2,35,36
 1231 843 1231 843 1231 931 c 0,37,38
 1232 988 1232 988 1224 1038 c 0,39,40
 1204 1166 1204 1166 1126.5 1239 c 128,-1,41
 1049 1312 1049 1312 906 1312 c 0,42,43
 775 1312 775 1312 671.5 1239 c 128,-1,44
 568 1166 568 1166 498 1037.5 c 128,-1,45
 428 909 428 909 398 740 c 2,46,-1
 394 717 l 2,47,48
 377 623 377 623 377 542 c 0,49,50
 376 476 376 476 388 418 c 0,51,52
 412 288 412 288 490.5 215.5 c 128,-1,53
 569 143 569 143 700 143 c 0,30,31
EndSplineSet
Validated: 524321
Substitution2: "'ss04' Style Set 4 in Latin lookup 26 subtable" O.ss04
Substitution2: "'c2sc' Capitals to Small Capitals in Latin lookup 19 subtable" o.sc
Substitution2: "Single Substitution lookup 17 subtable" ordmasculine
AlternateSubs2: "'aalt' Access All Alternates in Latin lookup 1 subtable" O.ss04 o.sc ordmasculine
EndChar

StartChar: OE
Encoding: 338 338 121
Width: 1987
GlyphClass: 2
Flags: W
AnchorPoint: "Anchor-2" 978 0 basechar 0
AnchorPoint: "Anchor-0" 1256 1376 basechar 0
LayerCount: 2
Fore
SplineSet
711 -21 m 0,0,1
 557 -21 557 -21 446.5 33 c 128,-1,2
 336 87 336 87 270.5 185.5 c 0,3,4
 204 284 204 284 186 419 c 0,5,6
 179 473 179 473 179 531 c 0,7,8
 179 619 179 619 196 717 c 2,9,-1
 200 738 l 2,10,11
 229 900 229 900 295 1035.5 c 128,-1,12
 361 1171 361 1171 461 1270 c 128,-1,13
 561 1369 561 1369 690.5 1423 c 128,-1,14
 820 1477 820 1477 975 1477 c 0,15,16
 1055 1477 1055 1477 1143.5 1461.5 c 128,-1,17
 1232 1446 1232 1446 1328 1417 c 1,18,-1
 1292 1211 l 1,19,20
 1218 1259 1218 1259 1128.5 1285.5 c 128,-1,21
 1039 1312 1039 1312 946 1312 c 0,22,23
 797 1312 797 1312 685 1239 c 128,-1,24
 573 1166 573 1166 500.5 1037.5 c 128,-1,25
 428 909 428 909 398 740 c 2,26,-1
 394 717 l 2,27,28
 378 628 378 628 378 549 c 0,29,30
 378 480 378 480 391 418 c 0,31,32
 418 288 418 288 504.5 215.5 c 128,-1,33
 591 143 591 143 740 143 c 0,34,35
 834 143 834 143 932 168.5 c 128,-1,36
 1030 194 1030 194 1120 240 c 1,37,-1
 1085 38 l 1,38,39
 979 10 979 10 885 -5.5 c 128,-1,40
 791 -21 791 -21 711 -21 c 0,0,1
850 0 m 1,41,-1
 932 154 l 1,42,-1
 1134 1301 l 1,43,-1
 1107 1456 l 1,44,-1
 2117 1456 l 1,45,-1
 2055 1106 l 1,46,-1
 1886 1106 l 1,47,-1
 1904 1301 l 1,48,-1
 1331 1301 l 1,49,-1
 1248 830 l 1,50,-1
 1805 830 l 1,51,-1
 1778 675 l 1,52,-1
 1221 675 l 1,53,-1
 1129 154 l 1,54,-1
 1714 154 l 1,55,-1
 1765 349 l 1,56,-1
 1933 349 l 1,57,-1
 1871 0 l 1,58,-1
 850 0 l 1,41,-1
EndSplineSet
Validated: 1572869
Substitution2: "'ss05' Style Set 5 in Latin lookup 27 subtable" OE.ss05
Substitution2: "'c2sc' Capitals to Small Capitals in Latin lookup 19 subtable" oe.sc
AlternateSubs2: "'aalt' Access All Alternates in Latin lookup 1 subtable" OE.ss05 oe.sc
EndChar

StartChar: P
Encoding: 80 80 122
Width: 1297
GlyphClass: 2
Flags: W
AnchorPoint: "Anchor-2" 649 0 basechar 0
AnchorPoint: "Anchor-0" 892 1376 basechar 0
LayerCount: 2
Fore
SplineSet
81 0 m 1,0,-1
 103 126 l 1,1,-1
 271 154 l 1,2,-1
 473 1301 l 1,3,-1
 315 1329 l 1,4,-1
 338 1456 l 1,5,-1
 501 1456 l 1,6,-1
 1007 1456 l 2,7,8
 1163 1456 1163 1456 1263.5 1401.5 c 128,-1,9
 1364 1347 1364 1347 1404 1249 c 0,10,11
 1430 1186 1430 1186 1430 1111 c 0,12,13
 1430 1068 1430 1068 1422 1020 c 0,14,15
 1399 888 1399 888 1323.5 790 c 128,-1,16
 1248 692 1248 692 1128.5 638 c 128,-1,17
 1009 584 1009 584 853 584 c 2,18,-1
 544 584 l 1,19,-1
 468 154 l 1,20,-1
 626 126 l 1,21,-1
 604 0 l 1,22,-1
 81 0 l 1,0,-1
571 738 m 1,23,-1
 880 738 l 2,24,25
 1028 738 1028 738 1115.5 817.5 c 128,-1,26
 1203 897 1203 897 1225 1018 c 256,27,28
 1230 1050 1230 1050 1230 1078 c 0,29,30
 1230 1160 1230 1160 1186 1220 c 0,31,32
 1126 1301 1126 1301 979 1301 c 2,33,-1
 670 1301 l 1,34,-1
 571 738 l 1,23,-1
EndSplineSet
Validated: 1048577
Substitution2: "'c2sc' Capitals to Small Capitals in Latin lookup 19 subtable" p.sc
Substitution2: "'aalt' Access All Alternates in Latin lookup 0 subtable" p.sc
EndChar

StartChar: Thorn
Encoding: 222 222 123
Width: 1277
GlyphClass: 2
Flags: W
AnchorPoint: "Anchor-2" 338 0 basechar 0
AnchorPoint: "Anchor-0" 581 1376 basechar 0
LayerCount: 2
Fore
SplineSet
70 0 m 1,0,-1
 92 126 l 1,1,-1
 260 154 l 1,2,-1
 462 1301 l 1,3,-1
 304 1329 l 1,4,-1
 327 1456 l 1,5,-1
 687 1456 l 1,6,-1
 850 1456 l 1,7,-1
 827 1329 l 1,8,-1
 659 1301 l 1,9,-1
 635 1163 l 1,10,-1
 904 1163 l 2,11,12
 1135 1163 1135 1163 1244 1045 c 0,13,14
 1328 954 1328 954 1328 822 c 0,15,16
 1328 782 1328 782 1320 738 c 0,17,18
 1286 548 1286 548 1135.5 430.5 c 128,-1,19
 985 313 985 313 754 313 c 2,20,-1
 485 313 l 1,21,-1
 457 154 l 1,22,-1
 615 126 l 1,23,-1
 593 0 l 1,24,-1
 70 0 l 1,0,-1
512 467 m 1,25,-1
 781 467 l 2,26,27
 879 467 879 467 950.5 503 c 128,-1,28
 1022 539 1022 539 1066 600 c 128,-1,29
 1110 661 1110 661 1123 736 c 0,30,31
 1128 764 1128 764 1128 791 c 0,32,33
 1128 836 1128 836 1114 874 c 0,34,35
 1092 936 1092 936 1033.5 972.5 c 128,-1,36
 975 1009 975 1009 877 1009 c 2,37,-1
 608 1009 l 1,38,-1
 512 467 l 1,25,-1
EndSplineSet
Validated: 1048577
Substitution2: "'c2sc' Capitals to Small Capitals in Latin lookup 19 subtable" thorn.sc
Substitution2: "'aalt' Access All Alternates in Latin lookup 0 subtable" thorn.sc
EndChar

StartChar: Q
Encoding: 81 81 124
Width: 1376
GlyphClass: 2
Flags: W
AnchorPoint: "Anchor-2" 682 0 basechar 0
AnchorPoint: "Anchor-0" 925 1376 basechar 0
LayerCount: 2
Fore
SplineSet
1194 -245 m 1,0,-1
 887 13 l 1,1,2
 834 -3 834 -3 779.5 -12 c 128,-1,3
 725 -21 725 -21 670 -21 c 0,4,5
 530 -21 530 -21 427.5 33 c 128,-1,6
 325 87 325 87 264 186 c 0,7,8
 204 285 204 285 186 420 c 0,9,10
 179 472 179 472 179 528 c 0,11,12
 179 617 179 617 196 717 c 2,13,-1
 200 738 l 2,14,15
 229 900 229 900 294 1035 c 128,-1,16
 359 1170 359 1170 454.5 1269.5 c 128,-1,17
 550 1369 550 1369 671.5 1423 c 128,-1,18
 793 1477 793 1477 934 1477 c 0,19,20
 1082 1477 1082 1477 1185.5 1423 c 128,-1,21
 1289 1369 1289 1369 1348 1269.5 c 0,22,23
 1406 1170 1406 1170 1422 1035 c 0,24,25
 1427 988 1427 988 1428 938 c 0,26,27
 1428 844 1428 844 1409 738 c 2,28,-1
 1405 717 l 2,29,30
 1370 520 1370 520 1295.5 361.5 c 128,-1,31
 1221 203 1221 203 1075 105 c 1,32,-1
 1331 -98 l 1,33,-1
 1194 -245 l 1,0,-1
699 143 m 0,34,35
 840 143 840 143 943 215 c 128,-1,36
 1046 287 1046 287 1112 416.5 c 128,-1,37
 1178 546 1178 546 1208 717 c 2,38,-1
 1212 740 l 2,39,40
 1230 843 1230 843 1230 931 c 0,41,42
 1230 988 1230 988 1222 1038 c 0,43,44
 1202 1166 1202 1166 1125 1239 c 128,-1,45
 1048 1312 1048 1312 905 1312 c 0,46,47
 775 1312 775 1312 671.5 1239 c 128,-1,48
 568 1166 568 1166 497.5 1037.5 c 128,-1,49
 427 909 427 909 397 740 c 2,50,-1
 393 717 l 2,51,52
 376 623 376 623 376 541 c 0,53,54
 376 476 376 476 387 418 c 0,55,56
 411 288 411 288 489 215.5 c 128,-1,57
 567 143 567 143 699 143 c 0,34,35
EndSplineSet
Validated: 1572865
Substitution2: "'c2sc' Capitals to Small Capitals in Latin lookup 19 subtable" q.sc
Substitution2: "'aalt' Access All Alternates in Latin lookup 0 subtable" q.sc
EndChar

StartChar: R
Encoding: 82 82 125
Width: 1385
GlyphClass: 2
Flags: W
AnchorPoint: "Anchor-2" 693 0 basechar 0
AnchorPoint: "Anchor-0" 936 1376 basechar 0
LayerCount: 2
Fore
SplineSet
81 0 m 1,0,-1
 103 126 l 1,1,-1
 271 154 l 1,2,-1
 473 1301 l 1,3,-1
 315 1329 l 1,4,-1
 338 1455 l 1,5,-1
 987 1455 l 2,6,7
 1146 1455 1146 1455 1247 1407.5 c 128,-1,8
 1348 1360 1348 1360 1389 1270 c 0,9,10
 1415 1212 1415 1212 1415 1138 c 0,11,12
 1415 1096 1415 1096 1407 1050 c 0,13,14
 1384 922 1384 922 1313.5 835 c 128,-1,15
 1243 748 1243 748 1133 703.5 c 128,-1,16
 1023 659 1023 659 883 656 c 2,17,-1
 556 650 l 1,18,-1
 468 154 l 1,19,-1
 626 126 l 1,20,-1
 604 0 l 1,21,-1
 81 0 l 1,0,-1
1042 0 m 1,22,-1
 846 727 l 1,23,-1
 1044 729 l 1,24,-1
 1210 147 l 1,25,-1
 1308 129 l 1,26,-1
 1285 0 l 1,27,-1
 1042 0 l 1,22,-1
583 805 m 1,28,-1
 852 805 l 2,29,30
 1017 805 1017 805 1103 868 c 128,-1,31
 1189 931 1189 931 1210 1052 c 0,32,33
 1215 1080 1215 1080 1215 1106 c 0,34,35
 1215 1183 1215 1183 1170 1234 c 0,36,37
 1110 1301 1110 1301 959 1301 c 2,38,-1
 670 1301 l 1,39,-1
 583 805 l 1,28,-1
EndSplineSet
Validated: 1048581
Substitution2: "'ss05' Style Set 5 in Latin lookup 27 subtable" R.ss05
Substitution2: "'c2sc' Capitals to Small Capitals in Latin lookup 19 subtable" r.sc
AlternateSubs2: "'aalt' Access All Alternates in Latin lookup 1 subtable" R.ss05 r.sc
EndChar

StartChar: S
Encoding: 83 83 129
Width: 1206
GlyphClass: 2
Flags: W
AnchorPoint: "Anchor-2" 603 0 basechar 0
AnchorPoint: "Anchor-0" 846 1376 basechar 0
LayerCount: 2
Fore
SplineSet
602 -21 m 0,0,1
 469 -21 469 -21 353 18 c 128,-1,2
 237 57 237 57 139 138 c 1,3,-1
 194 449 l 1,4,-1
 347 449 l 1,5,-1
 340 220 l 1,6,7
 398 180 398 180 470 158 c 128,-1,8
 542 136 542 136 630 136 c 0,9,10
 730 136 730 136 805 166.5 c 128,-1,11
 880 197 880 197 926.5 251 c 128,-1,12
 973 305 973 305 985 377 c 0,13,14
 989 400 989 400 989 421 c 0,15,16
 989 461 989 461 974 495 c 0,17,18
 951 546 951 546 884.5 584.5 c 128,-1,19
 818 623 818 623 696 652 c 0,20,21
 552 687 552 687 459 745.5 c 128,-1,22
 366 804 366 804 327 888 c 0,23,24
 301 944 301 944 301 1011 c 0,25,26
 301 1044 301 1044 307 1079 c 0,27,28
 327 1193 327 1193 403.5 1283 c 128,-1,29
 480 1373 480 1373 597 1425 c 128,-1,30
 714 1477 714 1477 858 1477 c 0,31,32
 1011 1477 1011 1477 1120.5 1430.5 c 128,-1,33
 1230 1384 1230 1384 1294 1318 c 1,34,-1
 1243 1027 l 1,35,-1
 1090 1027 l 1,36,-1
 1094 1235 l 1,37,38
 1055 1271 1055 1271 992.5 1295 c 128,-1,39
 930 1319 930 1319 831 1319 c 0,40,41
 747 1319 747 1319 677.5 1289.5 c 128,-1,42
 608 1260 608 1260 562.5 1207 c 128,-1,43
 517 1154 517 1154 505 1082 c 0,44,45
 502 1062 502 1062 502 1044 c 0,46,47
 502 1004 502 1004 518 972 c 0,48,49
 542 925 542 925 609.5 889.5 c 128,-1,50
 677 854 677 854 794 823 c 0,51,52
 1014 766 1014 766 1113 654 c 0,53,54
 1190 568 1190 568 1190 451 c 0,55,56
 1190 417 1190 417 1183 379 c 0,57,58
 1162 262 1162 262 1083 171.5 c 128,-1,59
 1004 81 1004 81 880.5 30 c 128,-1,60
 757 -21 757 -21 602 -21 c 0,0,1
EndSplineSet
Validated: 1048577
Substitution2: "'ss03' Style Set 3 in Latin lookup 25 subtable" S.ss03
Substitution2: "'c2sc' Capitals to Small Capitals in Latin lookup 19 subtable" s.sc
AlternateSubs2: "'aalt' Access All Alternates in Latin lookup 1 subtable" S.ss03 s.sc
EndChar

StartChar: uni1E9E
Encoding: 7838 7838 135
Width: 1422
GlyphClass: 2
Flags: W
AnchorPoint: "Anchor-2" 715 0 basechar 0
AnchorPoint: "Anchor-0" 958 1376 basechar 0
LayerCount: 2
Fore
SplineSet
81 0 m 1,0,-1
 103 126 l 1,1,-1
 271 154 l 1,2,-1
 473 1301 l 1,3,-1
 315 1329 l 1,4,-1
 338 1456 l 1,5,-1
 1550 1456 l 1,6,-1
 1523 1304 l 1,7,-1
 671 1304 l 1,8,-1
 468 154 l 1,9,-1
 626 126 l 1,10,-1
 604 0 l 1,11,-1
 81 0 l 1,0,-1
944 -21 m 0,12,13
 886 -21 886 -21 835 -11.5 c 128,-1,14
 784 -2 784 -2 753 8 c 1,15,-1
 827 163 l 1,16,17
 858 150 858 150 893 141.5 c 128,-1,18
 928 133 928 133 968 133 c 0,19,20
 1080 133 1080 133 1157.5 212.5 c 128,-1,21
 1235 292 1235 292 1260 432 c 0,22,23
 1269 480 1269 480 1269 521 c 0,24,25
 1268 610 1268 610 1228 668 c 0,26,27
 1170 753 1170 753 1046 753 c 2,28,-1
 896 753 l 1,29,-1
 923 907 l 1,30,-1
 1363 1375 l 1,31,-1
 1523 1304 l 1,32,-1
 1107 877 l 1,33,-1
 1062 913 l 1,34,35
 1071 913 1071 913 1079 913 c 0,36,37
 1195 914 1195 914 1288 864 c 0,38,39
 1388 810 1388 810 1437 702 c 0,40,41
 1468 634 1468 634 1468 544 c 0,42,43
 1468 491 1468 491 1457 432 c 0,44,45
 1432 291 1432 291 1362.5 189.5 c 128,-1,46
 1293 88 1293 88 1186 33.5 c 128,-1,47
 1079 -21 1079 -21 944 -21 c 0,12,13
EndSplineSet
Validated: 1048613
Substitution2: "'c2sc' Capitals to Small Capitals in Latin lookup 19 subtable" germandbls.sc
Substitution2: "'aalt' Access All Alternates in Latin lookup 0 subtable" germandbls.sc
EndChar

StartChar: T
Encoding: 84 84 136
Width: 1406
GlyphClass: 2
Flags: W
AnchorPoint: "Anchor-4" 832 729 basechar 0
AnchorPoint: "Anchor-2" 703 0 basechar 0
AnchorPoint: "Anchor-0" 946 1376 basechar 0
LayerCount: 2
Fore
SplineSet
440 0 m 1,0,-1
 462 126 l 1,1,-1
 630 154 l 1,2,-1
 833 1307 l 1,3,-1
 503 1307 l 1,4,-1
 439 1105 l 1,5,-1
 291 1105 l 1,6,-1
 353 1456 l 1,7,-1
 1563 1456 l 1,8,-1
 1501 1105 l 1,9,-1
 1355 1105 l 1,10,-1
 1360 1307 l 1,11,-1
 1030 1307 l 1,12,-1
 827 154 l 1,13,-1
 985 126 l 1,14,-1
 963 0 l 1,15,-1
 440 0 l 1,0,-1
EndSplineSet
Validated: 1048577
Substitution2: "'c2sc' Capitals to Small Capitals in Latin lookup 19 subtable" t.sc
Substitution2: "'aalt' Access All Alternates in Latin lookup 0 subtable" t.sc
EndChar

StartChar: U
Encoding: 85 85 141
Width: 1522
GlyphClass: 2
Flags: W
AnchorPoint: "Anchor-3" 904 0 basechar 0
AnchorPoint: "Anchor-2" 761 0 basechar 0
AnchorPoint: "Anchor-1" 1745 1376 basechar 0
AnchorPoint: "Anchor-0" 1004 1376 basechar 0
LayerCount: 2
Fore
SplineSet
751 -21 m 0,0,1
 601 -21 601 -21 493.5 38 c 0,2,3
 386 96 386 96 338 206 c 0,4,5
 307 276 307 276 306 365 c 0,6,7
 306 414 306 414 316 469 c 2,8,-1
 462 1301 l 1,9,-1
 304 1329 l 1,10,-1
 327 1456 l 1,11,-1
 850 1456 l 1,12,-1
 827 1329 l 1,13,-1
 659 1301 l 1,14,-1
 513 469 l 2,15,16
 505 425 505 425 505 387 c 0,17,18
 505 330 505 330 522 286 c 0,19,20
 550 212 550 212 617.5 174.5 c 128,-1,21
 685 137 685 137 782 137 c 0,22,23
 880 137 880 137 962 174 c 128,-1,24
 1044 211 1044 211 1099.5 285 c 128,-1,25
 1155 359 1155 359 1175 469 c 2,26,-1
 1321 1301 l 1,27,-1
 1163 1329 l 1,28,-1
 1186 1456 l 1,29,-1
 1709 1456 l 1,30,-1
 1686 1329 l 1,31,-1
 1518 1301 l 1,32,-1
 1372 469 l 2,33,34
 1344 311 1344 311 1258 201.5 c 128,-1,35
 1172 92 1172 92 1042 35.5 c 128,-1,36
 912 -21 912 -21 751 -21 c 0,0,1
EndSplineSet
Validated: 1572865
Substitution2: "'c2sc' Capitals to Small Capitals in Latin lookup 19 subtable" u.sc
Substitution2: "'aalt' Access All Alternates in Latin lookup 0 subtable" u.sc
EndChar

StartChar: Uhorn
Encoding: 431 431 149
Width: 1724
GlyphClass: 2
Flags: W
AnchorPoint: "Anchor-2" 777 0 basechar 0
AnchorPoint: "Anchor-0" 1031 1376 basechar 0
LayerCount: 2
Fore
SplineSet
769 -21 m 0,0,1
 609 -21 609 -21 497 35.5 c 0,2,3
 384 92 384 92 336 202 c 0,4,5
 305 271 305 271 306 360 c 0,6,7
 306 411 306 411 316 469 c 2,8,-1
 462 1301 l 1,9,-1
 304 1329 l 1,10,-1
 327 1456 l 1,11,-1
 851 1456 l 1,12,-1
 828 1329 l 1,13,-1
 660 1301 l 1,14,-1
 514 469 l 2,15,16
 507 426 507 426 507 388 c 0,17,18
 506 329 506 329 524 284 c 0,19,20
 554 209 554 209 624 171 c 128,-1,21
 694 133 694 133 796 133 c 0,22,23
 904 133 904 133 992 171 c 128,-1,24
 1080 209 1080 209 1138 284 c 128,-1,25
 1196 359 1196 359 1216 469 c 2,26,-1
 1362 1301 l 1,27,-1
 1204 1329 l 1,28,-1
 1227 1456 l 1,29,-1
 1587 1456 l 1,30,-1
 1413 469 l 2,31,32
 1385 311 1385 311 1295 201.5 c 128,-1,33
 1205 92 1205 92 1070 35.5 c 128,-1,34
 935 -21 935 -21 769 -21 c 0,0,1
1474 1103 m 1,35,-1
 1501 1250 l 1,36,37
 1508 1250 1508 1250 1515 1250 c 0,38,39
 1642 1250 1642 1250 1707 1321 c 0,40,41
 1776 1396 1776 1396 1803 1549 c 1,42,-1
 1976 1549 l 1,43,-1
 1975 1544 l 1,44,45
 1941 1330 1941 1330 1818.5 1217.5 c 128,-1,46
 1696 1105 1696 1105 1474 1103 c 1,35,-1
EndSplineSet
Validated: 1572901
Substitution2: "'c2sc' Capitals to Small Capitals in Latin lookup 19 subtable" uhorn.sc
Substitution2: "'aalt' Access All Alternates in Latin lookup 0 subtable" uhorn.sc
EndChar

StartChar: V
Encoding: 86 86 160
Width: 1508
GlyphClass: 2
Flags: W
AnchorPoint: "Anchor-2" 754 0 basechar 0
AnchorPoint: "Anchor-0" 997 1376 basechar 0
LayerCount: 2
Fore
SplineSet
669 0 m 1,0,-1
 413 1313 l 1,1,-1
 299 1329 l 1,2,-1
 322 1456 l 1,3,-1
 782 1456 l 1,4,-1
 759 1329 l 1,5,-1
 623 1308 l 1,6,-1
 785 382 l 1,7,-1
 799 267 l 1,8,-1
 805 267 l 1,9,-1
 861 382 l 1,10,-1
 1363 1309 l 1,11,-1
 1218 1329 l 1,12,-1
 1241 1456 l 1,13,-1
 1700 1456 l 1,14,-1
 1677 1329 l 1,15,-1
 1558 1313 l 1,16,-1
 838 0 l 1,17,-1
 669 0 l 1,0,-1
EndSplineSet
Validated: 1048577
Substitution2: "'c2sc' Capitals to Small Capitals in Latin lookup 19 subtable" v.sc
Substitution2: "'aalt' Access All Alternates in Latin lookup 0 subtable" v.sc
EndChar

StartChar: W
Encoding: 87 87 161
Width: 2129
GlyphClass: 2
Flags: W
AnchorPoint: "Anchor-2" 1065 0 basechar 0
AnchorPoint: "Anchor-0" 1308 1376 basechar 0
LayerCount: 2
Fore
SplineSet
535 0 m 1,0,-1
 427 1314 l 1,1,-1
 306 1329 l 1,2,-1
 329 1456 l 1,3,-1
 801 1456 l 1,4,-1
 778 1329 l 1,5,-1
 623 1306 l 1,6,-1
 672 505 l 1,7,-1
 683 318 l 1,8,-1
 689 317 l 1,9,-1
 780 504 l 1,10,-1
 1241 1456 l 1,11,-1
 1414 1456 l 1,12,-1
 1542 504 l 1,13,-1
 1564 306 l 1,14,-1
 1570 306 l 1,15,-1
 1657 504 l 1,16,-1
 1986 1306 l 1,17,-1
 1827 1329 l 1,18,-1
 1850 1456 l 1,19,-1
 2314 1456 l 1,20,-1
 2291 1329 l 1,21,-1
 2174 1314 l 1,22,-1
 1616 0 l 1,23,-1
 1429 0 l 1,24,-1
 1291 1008 l 1,25,-1
 1277 1155 l 1,26,-1
 1271 1155 l 1,27,-1
 1206 1008 l 1,28,-1
 711 0 l 1,29,-1
 535 0 l 1,0,-1
EndSplineSet
Validated: 1048577
Substitution2: "'c2sc' Capitals to Small Capitals in Latin lookup 19 subtable" w.sc
Substitution2: "'aalt' Access All Alternates in Latin lookup 0 subtable" w.sc
EndChar

StartChar: X
Encoding: 88 88 166
Width: 1529
GlyphClass: 2
Flags: W
AnchorPoint: "Anchor-2" 765 0 basechar 0
AnchorPoint: "Anchor-0" 1008 1376 basechar 0
LayerCount: 2
Fore
SplineSet
80 0 m 1,0,-1
 102 126 l 1,1,-1
 232 148 l 1,2,-1
 787 739 l 1,3,-1
 469 1307 l 1,4,-1
 346 1329 l 1,5,-1
 369 1456 l 1,6,-1
 841 1456 l 1,7,-1
 818 1329 l 1,8,-1
 679 1316 l 1,9,-1
 922 867 l 1,10,-1
 1307 1316 l 1,11,-1
 1169 1329 l 1,12,-1
 1192 1456 l 1,13,-1
 1667 1456 l 1,14,-1
 1644 1329 l 1,15,-1
 1507 1307 l 1,16,-1
 1012 739 l 1,17,-1
 1346 148 l 1,18,-1
 1471 126 l 1,19,-1
 1449 0 l 1,20,-1
 971 0 l 1,21,-1
 993 126 l 1,22,-1
 1137 139 l 1,23,-1
 875 612 l 1,24,-1
 448 139 l 1,25,-1
 578 126 l 1,26,-1
 556 0 l 1,27,-1
 80 0 l 1,0,-1
EndSplineSet
Validated: 1048577
Substitution2: "'c2sc' Capitals to Small Capitals in Latin lookup 19 subtable" x.sc
Substitution2: "'aalt' Access All Alternates in Latin lookup 0 subtable" x.sc
EndChar

StartChar: Y
Encoding: 89 89 167
Width: 1461
GlyphClass: 2
Flags: W
AnchorPoint: "Anchor-2" 731 0 basechar 0
AnchorPoint: "Anchor-0" 974 1376 basechar 0
LayerCount: 2
Fore
SplineSet
470 0 m 1,0,-1
 492 126 l 1,1,-1
 660 154 l 1,2,-1
 726 530 l 1,3,-1
 416 1310 l 1,4,-1
 299 1329 l 1,5,-1
 322 1456 l 1,6,-1
 824 1456 l 1,7,-1
 801 1329 l 1,8,-1
 632 1310 l 1,9,-1
 840 738 l 1,10,-1
 854 699 l 1,11,-1
 856 701 l 1,12,-1
 882 738 l 1,13,-1
 1307 1310 l 1,14,-1
 1138 1329 l 1,15,-1
 1161 1456 l 1,16,-1
 1653 1456 l 1,17,-1
 1630 1329 l 1,18,-1
 1500 1310 l 1,19,-1
 925 545 l 1,20,-1
 856 154 l 1,21,-1
 1014 126 l 1,22,-1
 992 0 l 1,23,-1
 470 0 l 1,0,-1
EndSplineSet
Validated: 1048577
Substitution2: "'c2sc' Capitals to Small Capitals in Latin lookup 19 subtable" y.sc
Substitution2: "'aalt' Access All Alternates in Latin lookup 0 subtable" y.sc
EndChar

StartChar: Z
Encoding: 90 90 175
Width: 1197
GlyphClass: 2
Flags: W
AnchorPoint: "Anchor-2" 599 0 basechar 0
AnchorPoint: "Anchor-0" 828 1376 basechar 0
LayerCount: 2
Fore
SplineSet
90 0 m 1,0,-1
 116 149 l 1,1,-1
 1077 1302 l 1,2,-1
 511 1302 l 1,3,-1
 459 1114 l 1,4,-1
 301 1114 l 1,5,-1
 362 1456 l 1,6,-1
 1331 1456 l 1,7,-1
 1305 1311 l 1,8,-1
 340 153 l 1,9,-1
 959 153 l 1,10,-1
 1013 360 l 1,11,-1
 1170 360 l 1,12,-1
 1107 0 l 1,13,-1
 90 0 l 1,0,-1
EndSplineSet
Validated: 1048577
Substitution2: "'c2sc' Capitals to Small Capitals in Latin lookup 19 subtable" z.sc
Substitution2: "'aalt' Access All Alternates in Latin lookup 0 subtable" z.sc
EndChar

StartChar: C.ss03
Encoding: 65537 -1 179
Width: 1283
GlyphClass: 1
Flags: W
LayerCount: 2
Fore
SplineSet
668 -21 m 256,0,1
 502 -21 502 -21 391 59 c 0,2,3
 280 138 280 138 234 278 c 0,4,5
 207 361 207 361 207 460 c 0,6,7
 207 526 207 526 219 598 c 2,8,-1
 265 857 l 2,9,10
 297 1037 297 1037 395 1177 c 128,-1,11
 493 1317 493 1317 637.5 1397 c 128,-1,12
 782 1477 782 1477 952 1477 c 0,13,14
 1124 1477 1124 1477 1244 1412.5 c 128,-1,15
 1364 1348 1364 1348 1416 1268 c 1,16,-1
 1361 958 l 1,17,-1
 1203 958 l 1,18,-1
 1188 1196 l 1,19,20
 1154 1251 1154 1251 1094.5 1286.5 c 128,-1,21
 1035 1322 1035 1322 944 1322 c 0,22,23
 823 1322 823 1322 722.5 1261 c 128,-1,24
 622 1200 622 1200 554 1095.5 c 128,-1,25
 486 991 486 991 462 859 c 2,26,-1
 416 598 l 2,27,28
 405 536 405 536 405 480 c 0,29,30
 405 416 405 416 419 360 c 0,31,32
 445 254 445 254 515 193.5 c 128,-1,33
 585 133 585 133 695 133 c 0,34,35
 787 133 787 133 868.5 164 c 128,-1,36
 950 195 950 195 999 241 c 1,37,-1
 1101 496 l 1,38,-1
 1239 496 l 1,39,-1
 1185 188 l 1,40,41
 1109 107 1109 107 971.5 43 c 128,-1,42
 834 -21 834 -21 668 -21 c 256,0,1
EndSplineSet
Validated: 1
EndChar

StartChar: G.ss03
Encoding: 65538 -1 180
Width: 1385
GlyphClass: 1
Flags: W
LayerCount: 2
Fore
SplineSet
711 -21 m 0,0,1
 537 -21 537 -21 415 55 c 0,2,3
 293 130 293 130 239 266 c 0,4,5
 205 352 205 352 205 455 c 0,6,7
 205 514 205 514 216 578 c 2,8,-1
 269 878 l 2,9,10
 300 1055 300 1055 398.5 1190 c 128,-1,11
 497 1325 497 1325 643 1401 c 128,-1,12
 789 1477 789 1477 962 1477 c 0,13,14
 1131 1477 1131 1477 1248 1423.5 c 128,-1,15
 1365 1370 1365 1370 1426 1273 c 1,16,-1
 1376 989 l 1,17,-1
 1219 989 l 1,18,-1
 1205 1239 l 1,19,20
 1170 1276 1170 1276 1108.5 1299 c 128,-1,21
 1047 1322 1047 1322 955 1322 c 0,22,23
 833 1322 833 1322 730 1265 c 128,-1,24
 627 1208 627 1208 558 1108 c 128,-1,25
 489 1008 489 1008 466 880 c 2,26,-1
 413 578 l 2,27,28
 404 526 404 526 404 479 c 0,29,30
 404 408 404 408 424 348 c 0,31,32
 458 248 458 248 539.5 190.5 c 128,-1,33
 621 133 621 133 738 133 c 0,34,35
 862 133 862 133 947 166 c 128,-1,36
 1032 199 1032 199 1073 241 c 1,37,-1
 1125 532 l 1,38,-1
 889 542 l 1,39,-1
 914 687 l 1,40,-1
 1349 687 l 1,41,-1
 1262 193 l 1,42,43
 1219 140 1219 140 1141 90.5 c 128,-1,44
 1063 41 1063 41 955 10 c 128,-1,45
 847 -21 847 -21 711 -21 c 0,0,1
EndSplineSet
Validated: 1
EndChar

StartChar: S.ss03
Encoding: 65539 -1 181
Width: 1248
GlyphClass: 1
Flags: W
LayerCount: 2
Fore
SplineSet
628 -21 m 0,0,1
 483 -21 483 -21 366 32.5 c 128,-1,2
 249 86 249 86 190 184 c 0,3,4
 149 252 149 252 149 335 c 0,5,6
 149 372 149 372 157 413 c 1,7,-1
 160 419 l 1,8,-1
 348 419 l 1,9,10
 343 390 343 390 343 364 c 0,11,12
 344 306 344 306 368 262 c 0,13,14
 404 198 404 198 479 165.5 c 128,-1,15
 554 133 554 133 655 133 c 0,16,17
 755 133 755 133 832.5 161.5 c 128,-1,18
 910 190 910 190 958 242.5 c 128,-1,19
 1006 295 1006 295 1019 367 c 0,20,21
 1023 390 1023 390 1023 411 c 0,22,23
 1023 452 1023 452 1008 486 c 0,24,25
 985 538 985 538 918 578 c 128,-1,26
 851 618 851 618 728 648 c 0,27,28
 581 685 581 685 482 744.5 c 128,-1,29
 383 804 383 804 339 888 c 0,30,31
 308 946 308 946 308 1016 c 0,32,33
 308 1046 308 1046 314 1079 c 0,34,35
 334 1193 334 1193 413.5 1283 c 128,-1,36
 493 1373 493 1373 615 1425 c 128,-1,37
 737 1477 737 1477 885 1477 c 0,38,39
 1045 1477 1045 1477 1151.5 1416.5 c 128,-1,40
 1258 1356 1258 1356 1304 1257 c 0,41,42
 1334 1192 1334 1192 1334 1120 c 0,43,44
 1334 1082 1334 1082 1326 1042 c 1,45,-1
 1323 1036 l 1,46,-1
 1135 1036 l 1,47,48
 1140 1067 1140 1067 1140 1095 c 0,49,50
 1140 1145 1140 1145 1123 1186 c 0,51,52
 1096 1250 1096 1250 1030 1286 c 128,-1,53
 964 1322 964 1322 858 1322 c 0,54,55
 760 1322 760 1322 687 1292 c 128,-1,56
 614 1262 614 1262 569 1208 c 128,-1,57
 524 1154 524 1154 512 1082 c 0,58,59
 509 1064 509 1064 509 1048 c 0,60,61
 509 1006 509 1006 529 970 c 0,62,63
 557 921 557 921 630.5 882.5 c 128,-1,64
 704 844 704 844 825 812 c 0,65,66
 1046 755 1046 755 1146 644 c 0,67,68
 1224 558 1224 558 1223 440 c 0,69,70
 1223 406 1223 406 1217 369 c 0,71,72
 1196 252 1196 252 1115 164 c 128,-1,73
 1034 76 1034 76 908.5 27.5 c 128,-1,74
 783 -21 783 -21 628 -21 c 0,0,1
EndSplineSet
Validated: 33
EndChar

StartChar: C.ss04
Encoding: 65540 -1 182
Width: 1283
GlyphClass: 1
Flags: W
LayerCount: 2
Fore
SplineSet
668 -21 m 0,0,1
 502 -21 502 -21 391 59 c 0,2,3
 280 138 280 138 234 278 c 0,4,5
 207 361 207 361 207 460 c 0,6,7
 207 526 207 526 219 598 c 2,8,-1
 265 857 l 2,9,10
 297 1037 297 1037 392.5 1177 c 128,-1,11
 488 1317 488 1317 628 1397 c 128,-1,12
 768 1477 768 1477 932 1477 c 0,13,14
 1174 1476 1174 1476 1288 1348 c 0,15,16
 1385 1239 1385 1239 1385 1061 c 0,17,18
 1385 1030 1385 1030 1382 997 c 1,19,-1
 1379 991 l 1,20,-1
 1190 991 l 1,21,22
 1190 1000 1190 1000 1190 1009 c 0,23,24
 1190 1157 1190 1157 1128 1237 c 0,25,26
 1062 1322 1062 1322 905 1322 c 0,27,28
 795 1322 795 1322 703.5 1261 c 128,-1,29
 612 1200 612 1200 549 1095.5 c 128,-1,30
 486 991 486 991 462 859 c 2,31,-1
 416 598 l 2,32,33
 405 536 405 536 405 480 c 0,34,35
 405 416 405 416 419 360 c 0,36,37
 445 254 445 254 515 193.5 c 128,-1,38
 585 133 585 133 695 133 c 0,39,40
 854 133 854 133 949 217.5 c 128,-1,41
 1044 302 1044 302 1097 466 c 1,42,-1
 1286 466 l 1,43,-1
 1287 460 l 1,44,45
 1250 320 1250 320 1164 211 c 128,-1,46
 1078 102 1078 102 952 40.5 c 128,-1,47
 826 -21 826 -21 668 -21 c 0,0,1
EndSplineSet
Validated: 1
EndChar

StartChar: G.ss04
Encoding: 65541 -1 183
Width: 1385
GlyphClass: 1
Flags: W
LayerCount: 2
Fore
SplineSet
711 -21 m 0,0,1
 537 -21 537 -21 415 55 c 0,2,3
 293 130 293 130 239 266 c 0,4,5
 205 352 205 352 205 455 c 0,6,7
 205 514 205 514 216 578 c 2,8,-1
 269 878 l 2,9,10
 300 1055 300 1055 396 1190 c 128,-1,11
 492 1325 492 1325 633.5 1401 c 128,-1,12
 775 1477 775 1477 942 1477 c 0,13,14
 1187 1477 1187 1477 1300 1357 c 0,15,16
 1405 1246 1405 1246 1405 1067 c 0,17,18
 1405 1053 1405 1053 1404 1038 c 1,19,-1
 1401 1032 l 1,20,-1
 1213 1032 l 1,21,22
 1210 1164 1210 1164 1143 1243 c 128,-1,23
 1076 1322 1076 1322 915 1322 c 0,24,25
 805 1322 805 1322 711 1265 c 128,-1,26
 617 1208 617 1208 553 1108 c 128,-1,27
 489 1008 489 1008 466 880 c 2,28,-1
 413 578 l 2,29,30
 404 526 404 526 404 479 c 0,31,32
 404 408 404 408 424 348 c 0,33,34
 458 248 458 248 539.5 190.5 c 128,-1,35
 621 133 621 133 738 133 c 0,36,37
 862 133 862 133 947 166 c 128,-1,38
 1032 199 1032 199 1073 241 c 1,39,-1
 1125 533 l 1,40,-1
 889 542 l 1,41,-1
 914 687 l 1,42,-1
 1349 687 l 1,43,-1
 1262 193 l 1,44,45
 1219 140 1219 140 1141 90.5 c 128,-1,46
 1063 41 1063 41 955 10 c 128,-1,47
 847 -21 847 -21 711 -21 c 0,0,1
EndSplineSet
Validated: 1
EndChar

StartChar: O.ss04
Encoding: 65542 -1 184
Width: 1403
GlyphClass: 1
Flags: W
LayerCount: 2
Fore
SplineSet
684 -21 m 0,0,1
 514 -21 514 -21 399 59.5 c 128,-1,2
 284 140 284 140 236 280 c 0,3,4
 207 365 207 365 207 464 c 0,5,6
 207 528 207 528 219 598 c 2,7,-1
 265 857 l 2,8,9
 296 1035 296 1035 393.5 1175 c 128,-1,10
 491 1315 491 1315 634.5 1396 c 128,-1,11
 778 1477 778 1477 948 1477 c 0,12,13
 1124 1477 1124 1477 1244 1396 c 128,-1,14
 1364 1315 1364 1315 1414 1175 c 0,15,16
 1445 1088 1445 1088 1446 987 c 0,17,18
 1446 925 1446 925 1434 857 c 2,19,-1
 1388 598 l 2,20,21
 1357 420 1357 420 1257 280 c 128,-1,22
 1157 140 1157 140 1008.5 59.5 c 128,-1,23
 860 -21 860 -21 684 -21 c 0,0,1
713 140 m 0,24,25
 835 140 835 140 934.5 198 c 128,-1,26
 1034 256 1034 256 1101 359.5 c 128,-1,27
 1168 463 1168 463 1191 598 c 2,28,-1
 1237 859 l 2,29,30
 1247 917 1247 917 1247 970 c 0,31,32
 1247 1038 1247 1038 1230 1096 c 0,33,34
 1199 1198 1199 1198 1120.5 1256.5 c 128,-1,35
 1042 1315 1042 1315 920 1315 c 0,36,37
 805 1315 805 1315 709.5 1256.5 c 128,-1,38
 614 1198 614 1198 550 1095.5 c 128,-1,39
 486 993 486 993 462 859 c 2,40,-1
 416 598 l 2,41,42
 405 536 405 536 405 481 c 0,43,44
 405 416 405 416 420 360 c 0,45,46
 448 256 448 256 523 198 c 128,-1,47
 598 140 598 140 713 140 c 0,24,25
EndSplineSet
Validated: 1
EndChar

StartChar: D.ss05
Encoding: 65543 -1 185
Width: 1359
GlyphClass: 1
Flags: W
LayerCount: 2
Fore
SplineSet
81 0 m 1,0,-1
 103 126 l 1,1,-1
 271 154 l 1,2,-1
 473 1301 l 1,3,-1
 315 1329 l 1,4,-1
 338 1456 l 1,5,-1
 501 1456 l 1,6,-1
 908 1456 l 2,7,8
 1098 1456 1098 1456 1228.5 1373.5 c 128,-1,9
 1359 1291 1359 1291 1415 1147 c 0,10,11
 1450 1056 1450 1056 1450 949 c 0,12,13
 1450 886 1450 886 1438 817 c 2,14,-1
 1406 638 l 2,15,16
 1374 457 1374 457 1270 312.5 c 128,-1,17
 1166 168 1166 168 1008.5 84 c 128,-1,18
 851 0 851 0 661 0 c 2,19,-1
 81 0 l 1,0,-1
468 154 m 1,20,-1
 678 154 l 2,21,22
 813 154 813 154 924.5 219.5 c 128,-1,23
 1036 285 1036 285 1111 395 c 128,-1,24
 1186 505 1186 505 1209 638 c 2,25,-1
 1241 819 l 2,26,27
 1251 874 1251 874 1251 925 c 0,28,29
 1251 1001 1251 1001 1229 1066 c 0,30,31
 1193 1175 1193 1175 1104 1238 c 128,-1,32
 1015 1301 1015 1301 880 1301 c 2,33,-1
 670 1301 l 1,34,-1
 468 154 l 1,20,-1
EndSplineSet
Validated: 1
EndChar

StartChar: Dcroat.ss05
Encoding: 65544 -1 186
Width: 1449
GlyphClass: 1
Flags: W
LayerCount: 2
Fore
SplineSet
101 0 m 1,0,-1
 123 126 l 1,1,-1
 291 154 l 1,2,-1
 381 663 l 1,3,-1
 183 663 l 1,4,-1
 210 818 l 1,5,-1
 408 818 l 1,6,-1
 493 1301 l 1,7,-1
 335 1329 l 1,8,-1
 358 1456 l 1,9,-1
 968 1456 l 2,10,11
 1158 1456 1158 1456 1286 1376 c 128,-1,12
 1414 1296 1414 1296 1468 1154 c 0,13,14
 1502 1066 1502 1066 1502 962 c 0,15,16
 1502 898 1502 898 1489 827 c 2,17,-1
 1454 628 l 2,18,19
 1421 442 1421 442 1317 300.5 c 128,-1,20
 1213 159 1213 159 1057 79.5 c 128,-1,21
 901 0 901 0 711 0 c 2,22,-1
 101 0 l 1,0,-1
488 154 m 1,23,-1
 738 154 l 2,24,25
 873 154 873 154 981.5 215 c 128,-1,26
 1090 276 1090 276 1161 382.5 c 128,-1,27
 1232 489 1232 489 1257 628 c 2,28,-1
 1292 829 l 2,29,30
 1302 887 1302 887 1302 939 c 0,31,32
 1302 1012 1302 1012 1282 1074 c 0,33,34
 1248 1180 1248 1180 1161.5 1240.5 c 128,-1,35
 1075 1301 1075 1301 940 1301 c 2,36,-1
 690 1301 l 1,37,-1
 605 818 l 1,38,-1
 851 818 l 1,39,-1
 824 663 l 1,40,-1
 578 663 l 1,41,-1
 488 154 l 1,23,-1
EndSplineSet
Validated: 1
EndChar

StartChar: K.ss05
Encoding: 65545 -1 187
Width: 1496
GlyphClass: 1
Flags: W
LayerCount: 2
Fore
SplineSet
81 0 m 1,0,-1
 103 126 l 1,1,-1
 271 154 l 1,2,-1
 473 1301 l 1,3,-1
 315 1329 l 1,4,-1
 338 1456 l 1,5,-1
 861 1456 l 1,6,-1
 838 1329 l 1,7,-1
 670 1301 l 1,8,-1
 584 812 l 1,9,-1
 735 812 l 1,10,-1
 1226 1310 l 1,11,-1
 1231 1315 l 1,12,-1
 1124 1329 l 1,13,-1
 1147 1456 l 1,14,-1
 1609 1456 l 1,15,-1
 1586 1329 l 1,16,-1
 1445 1304 l 1,17,-1
 903 752 l 1,18,-1
 1309 151 l 1,19,-1
 1438 126 l 1,20,-1
 1416 0 l 1,21,-1
 935 0 l 1,22,-1
 957 126 l 1,23,-1
 1080 140 l 1,24,-1
 1079 141 l 1,25,-1
 730 657 l 1,26,-1
 557 657 l 1,27,-1
 468 154 l 1,28,-1
 626 126 l 1,29,-1
 604 0 l 1,30,-1
 81 0 l 1,0,-1
EndSplineSet
Validated: 1
EndChar

StartChar: OE.ss05
Encoding: 65546 -1 188
Width: 1969
GlyphClass: 1
Flags: W
LayerCount: 2
Fore
SplineSet
670 -21 m 0,0,1
 504 -21 504 -21 391.5 54.5 c 128,-1,2
 279 130 279 130 232 265 c 0,3,4
 204 346 204 346 204 443 c 0,5,6
 204 506 204 506 216 576 c 2,7,-1
 269 880 l 2,8,9
 300 1057 300 1057 394.5 1191.5 c 128,-1,10
 489 1326 489 1326 627.5 1401.5 c 128,-1,11
 766 1477 766 1477 932 1477 c 0,12,13
 1001 1477 1001 1477 1071.5 1471 c 128,-1,14
 1142 1465 1142 1465 1220 1456 c 1,15,-1
 2130 1456 l 1,16,-1
 2068 1106 l 1,17,-1
 1899 1106 l 1,18,-1
 1917 1301 l 1,19,-1
 1344 1301 l 1,20,-1
 1261 830 l 1,21,-1
 1818 830 l 1,22,-1
 1791 675 l 1,23,-1
 1234 675 l 1,24,-1
 1142 154 l 1,25,-1
 1727 154 l 1,26,-1
 1778 349 l 1,27,-1
 1946 349 l 1,28,-1
 1884 0 l 1,29,-1
 963 0 l 1,30,31
 870 -10 870 -10 803.5 -15.5 c 128,-1,32
 737 -21 737 -21 670 -21 c 0,0,1
698 134 m 0,33,34
 751 134 751 134 813.5 138 c 128,-1,35
 876 142 876 142 945 154 c 1,36,-1
 1147 1301 l 1,37,38
 1060 1315 1060 1315 1006 1318.5 c 128,-1,39
 952 1322 952 1322 905 1322 c 0,40,41
 793 1322 793 1322 703 1271 c 128,-1,42
 613 1220 613 1220 552.5 1122 c 128,-1,43
 492 1024 492 1024 467 882 c 2,44,-1
 413 576 l 2,45,46
 401 507 401 507 401 448 c 0,47,48
 400 386 400 386 414 335 c 0,49,50
 440 236 440 236 513 185 c 128,-1,51
 586 134 586 134 698 134 c 0,33,34
EndSplineSet
Validated: 33
EndChar

StartChar: R.ss05
Encoding: 65547 -1 189
Width: 1396
GlyphClass: 1
Flags: W
LayerCount: 2
Fore
SplineSet
81 0 m 1,0,-1
 103 126 l 1,1,-1
 271 154 l 1,2,-1
 473 1301 l 1,3,-1
 315 1329 l 1,4,-1
 338 1455 l 1,5,-1
 977 1455 l 2,6,7
 1215 1456 1215 1456 1323 1350 c 0,8,9
 1405 1270 1405 1270 1405 1138 c 0,10,11
 1405 1097 1405 1097 1397 1050 c 0,12,13
 1378 944 1378 944 1305 862 c 128,-1,14
 1232 780 1232 780 1113 733 c 1,15,16
 1225 694 1225 694 1262 606 c 0,17,18
 1285 551 1285 551 1285 480 c 0,19,20
 1285 438 1285 438 1277 389 c 2,21,-1
 1256 272 l 2,22,23
 1250 238 1250 238 1250 213 c 0,24,25
 1250 189 1250 189 1256 173 c 0,26,27
 1268 141 1268 141 1305 135 c 2,28,-1
 1352 129 l 1,29,-1
 1329 0 l 1,30,-1
 1223 0 l 2,31,32
 1108 0 1108 0 1074 80 c 0,33,34
 1052 131 1052 131 1052 195 c 0,35,36
 1052 232 1052 232 1059 274 c 2,37,-1
 1079 387 l 2,38,39
 1085 419 1085 419 1085 448 c 0,40,41
 1085 525 1085 525 1044 578 c 0,42,43
 988 650 988 650 872 650 c 2,44,-1
 556 650 l 1,45,-1
 468 154 l 1,46,-1
 626 126 l 1,47,-1
 604 0 l 1,48,-1
 81 0 l 1,0,-1
583 805 m 1,49,-1
 842 805 l 2,50,51
 1007 805 1007 805 1093 868 c 128,-1,52
 1179 931 1179 931 1200 1052 c 0,53,54
 1205 1080 1205 1080 1205 1106 c 0,55,56
 1205 1183 1205 1183 1160 1234 c 0,57,58
 1100 1301 1100 1301 949 1301 c 2,59,-1
 670 1301 l 1,60,-1
 583 805 l 1,49,-1
EndSplineSet
Validated: 33
EndChar

StartChar: a
Encoding: 97 97 190
Width: 1132
GlyphClass: 2
Flags: W
AnchorPoint: "Anchor-3" 1053 0 basechar 0
AnchorPoint: "Anchor-2" 551 0 basechar 0
AnchorPoint: "Anchor-0" 725 1082 basechar 0
LayerCount: 2
Fore
SplineSet
420 -21 m 0,0,1
 252 -20 252 -20 178 62 c 0,2,3
 124 122 124 122 124 218 c 0,4,5
 124 253 124 253 131 294 c 0,6,7
 158 448 158 448 300.5 541.5 c 128,-1,8
 443 635 443 635 667 635 c 2,9,-1
 860 635 l 1,10,-1
 879 741 l 2,11,12
 883 766 883 766 883 788 c 0,13,14
 883 853 883 853 846 893 c 0,15,16
 796 947 796 947 688 947 c 0,17,18
 620 947 620 947 567 930.5 c 128,-1,19
 514 914 514 914 468 885 c 1,20,-1
 420 734 l 1,21,-1
 268 734 l 1,22,-1
 312 982 l 1,23,24
 395 1041 395 1041 497.5 1071.5 c 128,-1,25
 600 1102 600 1102 718 1102 c 0,26,27
 914 1102 914 1102 1010 1008 c 0,28,29
 1082 937 1082 937 1083 820 c 0,30,31
 1083 782 1083 782 1075 739 c 2,32,-1
 983 218 l 2,33,34
 979 197 979 197 976.5 177 c 128,-1,35
 974 157 974 157 972 137 c 1,36,-1
 1075 126 l 1,37,-1
 1053 0 l 1,38,-1
 770 0 l 1,39,40
 770 22 770 22 770 42 c 128,-1,41
 770 62 770 62 770 79 c 0,42,43
 771 114 771 114 775 149 c 1,44,45
 705 76 705 76 611 27.5 c 128,-1,46
 517 -21 517 -21 420 -21 c 0,0,1
478 144 m 0,47,48
 576 144 576 144 665.5 191 c 128,-1,49
 755 238 755 238 802 304 c 1,50,-1
 836 500 l 1,51,-1
 636 500 l 2,52,53
 500 500 500 500 420.5 435 c 128,-1,54
 341 370 341 370 327 290 c 0,55,56
 324 272 324 272 324 256 c 0,57,58
 324 210 324 210 352 182 c 0,59,60
 390 144 390 144 478 144 c 0,47,48
EndSplineSet
Validated: 1048577
Substitution2: "'ss03' Style Set 3 in Latin lookup 25 subtable" a.ss03
Substitution2: "'smcp' Lowercase to Small Capitals in Latin lookup 20 subtable" a.sc
Substitution2: "Single Substitution lookup 17 subtable" ordfeminine
AlternateSubs2: "'aalt' Access All Alternates in Latin lookup 1 subtable" a.ss03 a.sc ordfeminine
EndChar

StartChar: ae
Encoding: 230 230 214
Width: 1737
GlyphClass: 2
Flags: W
AnchorPoint: "Anchor-2" 892 0 basechar 0
AnchorPoint: "Anchor-0" 1083 1082 basechar 0
LayerCount: 2
Fore
SplineSet
431 -21 m 0,0,1
 256 -21 256 -21 180 64 c 0,2,3
 124 127 124 127 125 226 c 0,4,5
 125 262 125 262 132 302 c 0,6,7
 150 404 150 404 220.5 480 c 128,-1,8
 291 556 291 556 405 598 c 128,-1,9
 519 640 519 640 669 640 c 2,10,-1
 862 640 l 1,11,-1
 880 741 l 2,12,13
 884 766 884 766 884 788 c 0,14,15
 884 853 884 853 847 893 c 0,16,17
 797 947 797 947 689 947 c 0,18,19
 621 947 621 947 568 930.5 c 128,-1,20
 515 914 515 914 469 885 c 1,21,-1
 421 734 l 1,22,-1
 269 734 l 1,23,-1
 313 982 l 1,24,25
 396 1041 396 1041 498.5 1071.5 c 128,-1,26
 601 1102 601 1102 719 1102 c 0,27,28
 841 1102 841 1102 923 1060.5 c 128,-1,29
 1005 1019 1005 1019 1039 937 c 1,30,31
 1091 990 1091 990 1151 1027 c 128,-1,32
 1211 1064 1211 1064 1275.5 1083 c 128,-1,33
 1340 1102 1340 1102 1407 1102 c 0,34,35
 1550 1102 1550 1102 1639 1043.5 c 0,36,37
 1728 986 1728 986 1760 876 c 0,38,39
 1778 816 1778 816 1778 743 c 0,40,41
 1778 683 1778 683 1766 614 c 2,42,-1
 1745 495 l 1,43,-1
 1035 495 l 1,44,-1
 1032 490 l 1,45,46
 1024 441 1024 441 1024 398 c 0,47,48
 1024 301 1024 301 1066 232 c 0,49,50
 1127 133 1127 133 1282 133 c 0,51,52
 1386 133 1386 133 1457 160.5 c 128,-1,53
 1528 188 1528 188 1615 239 c 1,54,-1
 1659 101 l 1,55,56
 1596 56 1596 56 1495 17.5 c 128,-1,57
 1394 -21 1394 -21 1255 -21 c 0,58,59
 984 -21 984 -21 865 190 c 1,60,61
 777 86 777 86 666.5 32.5 c 128,-1,62
 556 -21 556 -21 431 -21 c 0,0,1
479 144 m 0,63,64
 547 144 547 144 612.5 171 c 128,-1,65
 678 198 678 198 732.5 243 c 128,-1,66
 787 288 787 288 820 342 c 1,67,68
 823 391 823 391 826.5 426 c 128,-1,69
 830 461 830 461 838 504 c 2,70,-1
 838 505 l 1,71,-1
 638 505 l 2,72,73
 502 505 502 505 422.5 441.5 c 128,-1,74
 343 378 343 378 329 298 c 0,75,76
 326 283 326 283 326 268 c 0,77,78
 326 222 326 222 354 188 c 0,79,80
 390 144 390 144 479 144 c 0,63,64
1063 640 m 1,81,-1
 1574 640 l 1,82,-1
 1579 671 l 2,83,84
 1586 710 1586 710 1586 745 c 0,85,86
 1586 818 1586 818 1554 870 c 0,87,88
 1508 947 1508 947 1380 947 c 0,89,90
 1304 947 1304 947 1240 908.5 c 128,-1,91
 1176 870 1176 870 1130.5 802 c 128,-1,92
 1085 734 1085 734 1062 645 c 1,93,-1
 1063 640 l 1,81,-1
EndSplineSet
Validated: 1572897
Substitution2: "'ss03' Style Set 3 in Latin lookup 25 subtable" ae.ss03
Substitution2: "'smcp' Lowercase to Small Capitals in Latin lookup 20 subtable" ae.sc
AlternateSubs2: "'aalt' Access All Alternates in Latin lookup 1 subtable" ae.ss03 ae.sc
EndChar

StartChar: b
Encoding: 98 98 216
Width: 1145
GlyphClass: 2
Flags: W
AnchorPoint: "Anchor-2" 587 0 basechar 0
AnchorPoint: "Anchor-0" 503 1456 basechar 0
LayerCount: 2
Fore
SplineSet
645 -21 m 0,0,1
 539 -21 539 -21 468.5 19.5 c 128,-1,2
 398 60 398 60 360 139 c 1,3,-1
 317 0 l 1,4,-1
 147 0 l 1,5,-1
 395 1405 l 1,6,-1
 237 1433 l 1,7,-1
 259 1560 l 1,8,-1
 619 1560 l 1,9,-1
 512 954 l 1,10,11
 576 1026 576 1026 658 1064 c 128,-1,12
 740 1102 740 1102 841 1102 c 0,13,14
 975 1102 975 1102 1057 1029.5 c 0,15,16
 1138 957 1138 957 1166 826 c 0,17,18
 1179 764 1179 764 1179 693 c 0,19,20
 1179 613 1179 613 1163 521 c 2,21,-1
 1159 500 l 2,22,23
 1131 344 1131 344 1060 227 c 128,-1,24
 989 110 989 110 883 44.5 c 128,-1,25
 777 -21 777 -21 645 -21 c 0,0,1
624 139 m 0,26,27
 763 139 763 139 847.5 238 c 128,-1,28
 932 337 932 337 961 500 c 2,29,-1
 965 521 l 2,30,31
 979 598 979 598 979 664 c 0,32,33
 980 704 980 704 974 740 c 0,34,35
 960 834 960 834 908.5 888 c 128,-1,36
 857 942 857 942 763 942 c 0,37,38
 672 942 672 942 602 898 c 128,-1,39
 532 854 532 854 482 780 c 1,40,-1
 397 302 l 1,41,42
 421 227 421 227 477 183 c 128,-1,43
 533 139 533 139 624 139 c 0,26,27
EndSplineSet
Validated: 1572897
Substitution2: "'smcp' Lowercase to Small Capitals in Latin lookup 20 subtable" b.sc
Substitution2: "'aalt' Access All Alternates in Latin lookup 0 subtable" b.sc
EndChar

StartChar: c
Encoding: 99 99 217
Width: 1067
GlyphClass: 2
Flags: W
AnchorPoint: "Anchor-2" 557 0 basechar 0
AnchorPoint: "Anchor-0" 748 1082 basechar 0
LayerCount: 2
Fore
SplineSet
559 -21 m 0,0,1
 412 -21 412 -21 315 47.5 c 128,-1,2
 218 116 218 116 180 238 c 0,3,4
 158 308 158 308 158 390 c 0,5,6
 158 452 158 452 170 520 c 2,7,-1
 177 562 l 2,8,9
 204 716 204 716 283.5 838 c 128,-1,10
 363 960 363 960 484.5 1031 c 128,-1,11
 606 1102 606 1102 757 1102 c 0,12,13
 888 1102 888 1102 979 1059 c 128,-1,14
 1070 1016 1070 1016 1124 941 c 1,15,-1
 1083 681 l 1,16,-1
 929 681 l 1,17,-1
 928 870 l 1,18,19
 900 905 900 905 853 926 c 128,-1,20
 806 947 806 947 737 947 c 0,21,22
 649 947 649 947 573.5 895 c 128,-1,23
 498 843 498 843 445.5 756 c 128,-1,24
 393 669 393 669 374 562 c 2,25,-1
 367 520 l 2,26,27
 356 458 356 458 356 405 c 0,28,29
 356 357 356 357 365 315 c 0,30,31
 384 228 384 228 440 180.5 c 128,-1,32
 496 133 496 133 585 133 c 0,33,34
 685 133 685 133 761 188 c 128,-1,35
 837 243 837 243 869 339 c 1,36,-1
 1046 339 l 1,37,-1
 1047 333 l 1,38,39
 1026 240 1026 240 961.5 159 c 128,-1,40
 897 78 897 78 795.5 28.5 c 128,-1,41
 694 -21 694 -21 559 -21 c 0,0,1
EndSplineSet
Validated: 1048577
Substitution2: "'ss03' Style Set 3 in Latin lookup 25 subtable" c.ss03
Substitution2: "'smcp' Lowercase to Small Capitals in Latin lookup 20 subtable" c.sc
AlternateSubs2: "'aalt' Access All Alternates in Latin lookup 1 subtable" c.ss03 c.sc
EndChar

StartChar: d
Encoding: 100 100 223
Width: 1218
GlyphClass: 2
Flags: W
AnchorPoint: "Anchor-4" 1072 1232 basechar 0
AnchorPoint: "Anchor-2" 611 0 basechar 0
AnchorPoint: "Anchor-1" 1497 1560 basechar 0
AnchorPoint: "Anchor-0" 1117 1456 basechar 0
LayerCount: 2
Fore
SplineSet
495 -21 m 0,0,1
 363 -21 363 -21 280 44.5 c 128,-1,2
 197 110 197 110 168 227 c 0,3,4
 153 288 153 288 153 359 c 0,5,6
 153 425 153 425 166 500 c 2,7,-1
 170 521 l 2,8,9
 201 695 201 695 274 826 c 128,-1,10
 347 957 347 957 454.5 1029.5 c 128,-1,11
 562 1102 562 1102 695 1102 c 0,12,13
 791 1102 791 1102 858.5 1066.5 c 128,-1,14
 926 1031 926 1031 966 964 c 1,15,-1
 1044 1405 l 1,16,-1
 886 1433 l 1,17,-1
 908 1560 l 1,18,-1
 1071 1560 l 1,19,-1
 1268 1560 l 1,20,-1
 1020 154 l 1,21,-1
 1178 126 l 1,22,-1
 1156 0 l 1,23,-1
 822 0 l 1,24,-1
 829 129 l 1,25,26
 763 55 763 55 679.5 17 c 128,-1,27
 596 -21 596 -21 495 -21 c 0,0,1
574 139 m 0,28,29
 662 139 662 139 729 179 c 128,-1,30
 796 219 796 219 847 292 c 1,31,-1
 936 794 l 1,32,33
 910 862 910 862 856 902 c 128,-1,34
 802 942 802 942 717 942 c 0,35,36
 623 942 623 942 552.5 888.5 c 128,-1,37
 482 835 482 835 435.5 740.5 c 128,-1,38
 389 646 389 646 367 521 c 2,39,-1
 363 500 l 2,40,41
 352 440 352 440 352 389 c 0,42,43
 352 301 352 301 384 238 c 0,44,45
 434 139 434 139 574 139 c 0,28,29
EndSplineSet
Validated: 1048577
Substitution2: "'smcp' Lowercase to Small Capitals in Latin lookup 20 subtable" d.sc
Substitution2: "'aalt' Access All Alternates in Latin lookup 0 subtable" d.sc
EndChar

StartChar: eth
Encoding: 240 240 226
Width: 1191
GlyphClass: 1
Flags: W
LayerCount: 2
Fore
SplineSet
571 -21 m 0,0,1
 426 -21 426 -21 325 43.5 c 128,-1,2
 224 108 224 108 180 218 c 0,3,4
 152 289 152 289 152 372 c 0,5,6
 152 417 152 417 160 466 c 0,7,8
 187 618 187 618 270.5 733.5 c 128,-1,9
 354 849 354 849 475.5 913.5 c 128,-1,10
 597 978 597 978 739 978 c 0,11,12
 822 978 822 978 891 946 c 128,-1,13
 960 914 960 914 1003 862 c 1,14,-1
 1008 867 l 1,15,16
 1005 965 1005 965 977.5 1046.5 c 128,-1,17
 950 1128 950 1128 902 1190 c 1,18,-1
 602 1035 l 1,19,-1
 543 1137 l 1,20,-1
 813 1277 l 1,21,22
 781 1300 781 1300 746 1318.5 c 128,-1,23
 711 1337 711 1337 672 1353 c 1,24,-1
 760 1517 l 1,25,26
 831 1495 831 1495 893 1460 c 128,-1,27
 955 1425 955 1425 1007 1378 c 1,28,-1
 1263 1511 l 1,29,-1
 1322 1409 l 1,30,-1
 1086 1286 l 1,31,32
 1169 1165 1169 1165 1197 999 c 0,33,34
 1209 925 1209 925 1209 845 c 0,35,36
 1209 744 1209 744 1190 633 c 2,37,-1
 1172 535 l 2,38,39
 1143 372 1143 372 1055 246.5 c 128,-1,40
 967 121 967 121 841 50 c 128,-1,41
 715 -21 715 -21 571 -21 c 0,0,1
602 133 m 0,42,43
 691 133 691 133 768.5 185 c 128,-1,44
 846 237 846 237 900.5 328 c 128,-1,45
 955 419 955 419 975 535 c 2,46,-1
 993 635 l 1,47,-1
 1002 685 l 1,48,49
 976 743 976 743 902.5 783 c 128,-1,50
 829 823 829 823 712 823 c 0,51,52
 625 823 625 823 550.5 775 c 128,-1,53
 476 727 476 727 425.5 646.5 c 128,-1,54
 375 566 375 566 357 466 c 0,55,56
 351 431 351 431 351 398 c 0,57,58
 351 348 351 348 365 302 c 0,59,60
 389 226 389 226 448.5 179.5 c 128,-1,61
 508 133 508 133 602 133 c 0,42,43
EndSplineSet
Validated: 1
Substitution2: "'smcp' Lowercase to Small Capitals in Latin lookup 20 subtable" eth.sc
Substitution2: "'aalt' Access All Alternates in Latin lookup 0 subtable" eth.sc
EndChar

StartChar: e
Encoding: 101 101 227
Width: 1059
GlyphClass: 2
Flags: W
AnchorPoint: "Anchor-3" 853 0 basechar 0
AnchorPoint: "Anchor-2" 539 0 basechar 0
AnchorPoint: "Anchor-0" 727 1082 basechar 0
LayerCount: 2
Fore
SplineSet
563 -21 m 0,0,1
 413 -21 413 -21 314 47.5 c 128,-1,2
 215 116 215 116 176 238 c 0,3,4
 154 308 154 308 154 390 c 0,5,6
 154 451 154 451 166 520 c 2,7,-1
 173 564 l 2,8,9
 200 718 200 718 285 839.5 c 128,-1,10
 370 961 370 961 488 1031.5 c 128,-1,11
 606 1102 606 1102 731 1102 c 0,12,13
 877 1102 877 1102 965 1042 c 128,-1,14
 1053 982 1053 982 1084 874 c 0,15,16
 1101 815 1101 815 1101 744 c 0,17,18
 1101 685 1101 685 1089 618 c 2,19,-1
 1067 495 l 1,20,-1
 365 495 l 1,21,-1
 361 490 l 1,22,23
 354 444 354 444 354 403 c 0,24,25
 354 350 354 350 366 306 c 0,26,27
 386 226 386 226 442.5 179.5 c 128,-1,28
 499 133 499 133 590 133 c 0,29,30
 690 133 690 133 771 161.5 c 128,-1,31
 852 190 852 190 915 240 c 1,32,-1
 970 112 l 1,33,34
 902 56 902 56 799.5 17.5 c 128,-1,35
 697 -21 697 -21 563 -21 c 0,0,1
398 649 m 1,36,-1
 897 649 l 1,37,-1
 902 675 l 2,38,39
 908 710 908 710 908 742 c 0,40,41
 908 780 908 780 899 814 c 0,42,43
 882 876 882 876 834 911.5 c 128,-1,44
 786 947 786 947 704 947 c 0,45,46
 638 947 638 947 577 908.5 c 128,-1,47
 516 870 516 870 469.5 804 c 128,-1,48
 423 738 423 738 397 654 c 1,49,-1
 398 649 l 1,36,-1
EndSplineSet
Validated: 1048577
Substitution2: "'smcp' Lowercase to Small Capitals in Latin lookup 20 subtable" e.sc
Substitution2: "'aalt' Access All Alternates in Latin lookup 0 subtable" e.sc
EndChar

StartChar: uni0259
Encoding: 601 601 245
Width: 1115
GlyphClass: 1
Flags: W
LayerCount: 2
Fore
SplineSet
544 -19 m 0,0,1
 398 -19 398 -19 309.5 40.5 c 128,-1,2
 221 100 221 100 190 208 c 0,3,4
 173 267 173 267 173 338 c 0,5,6
 173 397 173 397 185 464 c 2,7,-1
 207 587 l 1,8,-1
 911 587 l 1,9,10
 911 589 911 589 911 590 c 128,-1,11
 911 591 911 591 911 592 c 0,12,13
 918 638 918 638 918 680 c 0,14,15
 918 732 918 732 907 776 c 0,16,17
 887 856 887 856 831 902.5 c 128,-1,18
 775 949 775 949 683 949 c 0,19,20
 582 949 582 949 502 919.5 c 128,-1,21
 422 890 422 890 358 841 c 1,22,-1
 304 970 l 1,23,24
 372 1026 372 1026 473.5 1064.5 c 128,-1,25
 575 1103 575 1103 710 1103 c 0,26,27
 860 1103 860 1103 959 1034 c 0,28,29
 1058 966 1058 966 1097 844 c 0,30,31
 1120 773 1120 773 1120 689 c 0,32,33
 1120 629 1120 629 1108 562 c 2,34,-1
 1100 518 l 2,35,36
 1073 364 1073 364 988 242.5 c 128,-1,37
 903 121 903 121 786 51 c 128,-1,38
 669 -19 669 -19 544 -19 c 0,0,1
571 135 m 0,39,40
 636 135 636 135 696 173 c 128,-1,41
 756 211 756 211 803 277 c 128,-1,42
 850 343 850 343 875 427 c 1,43,-1
 874 432 l 1,44,-1
 376 432 l 1,45,-1
 372 407 l 2,46,47
 366 371 366 371 366 339 c 0,48,49
 366 302 366 302 374 268 c 0,50,51
 390 206 390 206 439.5 170.5 c 128,-1,52
 489 135 489 135 571 135 c 0,39,40
EndSplineSet
Validated: 1
EndChar

StartChar: f
Encoding: 102 102 246
Width: 725
GlyphClass: 2
Flags: W
AnchorPoint: "Anchor-2" 363 0 basechar 0
AnchorPoint: "Anchor-0" 740 1456 basechar 0
LayerCount: 2
Fore
SplineSet
70 0 m 1,0,-1
 92 126 l 1,1,-1
 260 154 l 1,2,-1
 398 936 l 1,3,-1
 229 936 l 1,4,-1
 255 1082 l 1,5,-1
 424 1082 l 1,6,-1
 448 1219 l 2,7,8
 479 1392 479 1392 586 1486.5 c 128,-1,9
 693 1581 693 1581 855 1581 c 0,10,11
 889 1581 889 1581 927.5 1575.5 c 128,-1,12
 966 1570 966 1570 1006 1560 c 1,13,-1
 956 1410 l 1,14,15
 939 1414 939 1414 908.5 1417 c 128,-1,16
 878 1420 878 1420 851 1420 c 0,17,18
 764 1420 764 1420 713 1368.5 c 128,-1,19
 662 1317 662 1317 645 1219 c 2,20,-1
 621 1082 l 1,21,-1
 857 1082 l 1,22,-1
 831 936 l 1,23,-1
 595 936 l 1,24,-1
 457 154 l 1,25,-1
 638 126 l 1,26,-1
 616 0 l 1,27,-1
 70 0 l 1,0,-1
EndSplineSet
Validated: 1048577
Substitution2: "'smcp' Lowercase to Small Capitals in Latin lookup 20 subtable" f.sc
Substitution2: "'aalt' Access All Alternates in Latin lookup 0 subtable" f.sc
EndChar

StartChar: g
Encoding: 103 103 247
Width: 1157
GlyphClass: 2
Flags: W
AnchorPoint: "Anchor-2" 482 -416 basechar 0
AnchorPoint: "Anchor-0" 776 1082 basechar 0
LayerCount: 2
Fore
SplineSet
472 -437 m 0,0,1
 394 -437 394 -437 307 -415.5 c 128,-1,2
 220 -394 220 -394 157 -357 c 1,3,-1
 235 -204 l 1,4,5
 285 -233 285 -233 356.5 -252 c 128,-1,6
 428 -271 428 -271 499 -271 c 0,7,8
 631 -271 631 -271 705.5 -197 c 128,-1,9
 780 -123 780 -123 804 14 c 2,10,-1
 823 117 l 1,11,12
 758 49 758 49 677.5 14 c 128,-1,13
 597 -21 597 -21 501 -21 c 0,14,15
 369 -21 369 -21 284.5 44.5 c 128,-1,16
 200 110 200 110 170 228 c 0,17,18
 154 290 154 290 153 363 c 0,19,20
 153 428 153 428 166 500 c 2,21,-1
 170 521 l 2,22,23
 201 695 201 695 275.5 826 c 128,-1,24
 350 957 350 957 458.5 1029.5 c 128,-1,25
 567 1102 567 1102 701 1102 c 0,26,27
 803 1102 803 1102 873 1062 c 128,-1,28
 943 1022 943 1022 982 946 c 1,29,-1
 1024 1082 l 1,30,-1
 1190 1082 l 1,31,-1
 1001 14 l 2,32,33
 976 -126 976 -126 906 -227 c 128,-1,34
 836 -328 836 -328 726 -382.5 c 128,-1,35
 616 -437 616 -437 472 -437 c 0,0,1
579 139 m 0,36,37
 668 139 668 139 735 179.5 c 128,-1,38
 802 220 802 220 854 294 c 1,39,-1
 942 792 l 1,40,41
 916 861 916 861 862 901.5 c 128,-1,42
 808 942 808 942 722 942 c 0,43,44
 628 942 628 942 556 888 c 128,-1,45
 484 834 484 834 436.5 739.5 c 128,-1,46
 389 645 389 645 367 521 c 2,47,-1
 363 500 l 2,48,49
 353 442 353 442 353 391 c 0,50,51
 353 301 353 301 386 238 c 0,52,53
 438 139 438 139 579 139 c 0,36,37
1131 921 m 1,54,-1
 1083 1082 l 1,55,-1
 1324 1082 l 1,56,-1
 1302 956 l 1,57,-1
 1131 921 l 1,54,-1
EndSplineSet
Validated: 1048581
Substitution2: "'ss01' Style Set 1 in Latin lookup 23 subtable" g.ss01
Substitution2: "'smcp' Lowercase to Small Capitals in Latin lookup 20 subtable" g.sc
AlternateSubs2: "'aalt' Access All Alternates in Latin lookup 1 subtable" g.ss01 g.sc
EndChar

StartChar: h
Encoding: 104 104 252
Width: 1315
GlyphClass: 2
Flags: W
AnchorPoint: "Anchor-4" 568 1232 basechar 0
AnchorPoint: "Anchor-2" 658 0 basechar 0
AnchorPoint: "Anchor-0" 575 1456 basechar 0
LayerCount: 2
Fore
SplineSet
49 0 m 1,0,-1
 71 126 l 1,1,-1
 239 154 l 1,2,-1
 460 1405 l 1,3,-1
 302 1433 l 1,4,-1
 324 1560 l 1,5,-1
 684 1560 l 1,6,-1
 574 938 l 1,7,8
 644 1016 644 1016 732.5 1059 c 128,-1,9
 821 1102 821 1102 920 1102 c 0,10,11
 1094 1102 1094 1102 1172 998 c 0,12,13
 1224 928 1224 928 1224 807 c 0,14,15
 1224 748 1224 748 1212 678 c 2,16,-1
 1119 154 l 1,17,-1
 1277 126 l 1,18,-1
 1255 0 l 1,19,-1
 732 0 l 1,20,-1
 754 126 l 1,21,-1
 922 154 l 1,22,-1
 1015 680 l 2,23,24
 1023 726 1023 726 1023 763 c 0,25,26
 1022 836 1022 836 992 878 c 0,27,28
 946 942 946 942 832 942 c 0,29,30
 751 942 751 942 678 903.5 c 128,-1,31
 605 865 605 865 550 799 c 1,32,-1
 436 154 l 1,33,-1
 594 126 l 1,34,-1
 572 0 l 1,35,-1
 49 0 l 1,0,-1
EndSplineSet
Validated: 1048577
Substitution2: "'smcp' Lowercase to Small Capitals in Latin lookup 20 subtable" h.sc
Substitution2: "'aalt' Access All Alternates in Latin lookup 0 subtable" h.sc
EndChar

StartChar: dotlessi
Encoding: 305 305 256
Width: 652
GlyphClass: 2
Flags: W
AnchorPoint: "Anchor-3" 590 0 basechar 0
AnchorPoint: "Anchor-2" 328 0 basechar 0
AnchorPoint: "Anchor-0" 515 1082 basechar 0
LayerCount: 2
Fore
SplineSet
67 0 m 1,0,-1
 89 126 l 1,1,-1
 257 154 l 1,2,-1
 393 927 l 1,3,-1
 235 955 l 1,4,-1
 258 1082 l 1,5,-1
 618 1082 l 1,6,-1
 454 154 l 1,7,-1
 612 126 l 1,8,-1
 590 0 l 1,9,-1
 67 0 l 1,0,-1
EndSplineSet
Validated: 1048577
Substitution2: "'smcp' Lowercase to Small Capitals in Latin lookup 20 subtable" i.sc
Substitution2: "'aalt' Access All Alternates in Latin lookup 0 subtable" i.sc
EndChar

StartChar: uni0237
Encoding: 567 567 269
Width: 525
GlyphClass: 2
Flags: W
AnchorPoint: "Anchor-2" 140 -555 basechar 0
AnchorPoint: "Anchor-0" 469 1082 basechar 0
LayerCount: 2
Fore
SplineSet
-21 -437 m 0,0,1
 -53 -437 -53 -437 -78 -432.5 c 128,-1,2
 -103 -428 -103 -428 -130 -419 c 1,3,-1
 -90 -269 l 1,4,5
 -77 -274 -77 -274 -44.5 -278 c 128,-1,6
 -12 -282 -12 -282 6 -282 c 0,7,8
 65 -282 65 -282 108.5 -230.5 c 128,-1,9
 152 -179 152 -179 168 -89 c 2,10,-1
 347 927 l 1,11,-1
 189 955 l 1,12,-1
 212 1082 l 1,13,-1
 572 1082 l 1,14,-1
 365 -89 l 2,15,16
 336 -256 336 -256 234 -346.5 c 128,-1,17
 132 -437 132 -437 -21 -437 c 0,0,1
EndSplineSet
Validated: 1048577
Substitution2: "'smcp' Lowercase to Small Capitals in Latin lookup 20 subtable" j.sc
Substitution2: "'aalt' Access All Alternates in Latin lookup 0 subtable" j.sc
EndChar

StartChar: k
Encoding: 107 107 272
Width: 1287
GlyphClass: 2
Flags: W
AnchorPoint: "Anchor-2" 644 0 basechar 0
AnchorPoint: "Anchor-0" 584 1456 basechar 0
LayerCount: 2
Fore
SplineSet
64 0 m 1,0,-1
 86 126 l 1,1,-1
 254 154 l 1,2,-1
 475 1405 l 1,3,-1
 317 1433 l 1,4,-1
 339 1560 l 1,5,-1
 699 1560 l 1,6,-1
 451 154 l 1,7,-1
 609 126 l 1,8,-1
 587 0 l 1,9,-1
 64 0 l 1,0,-1
759 0 m 1,10,-1
 781 126 l 1,11,-1
 894 139 l 1,12,-1
 891 143 l 1,13,-1
 649 547 l 1,14,-1
 779 704 l 1,15,-1
 1118 150 l 1,16,-1
 1270 126 l 1,17,-1
 1248 0 l 1,18,-1
 759 0 l 1,10,-1
465 313 m 1,19,-1
 420 468 l 1,20,-1
 972 936 l 1,21,-1
 978 942 l 1,22,-1
 864 955 l 1,23,-1
 887 1082 l 1,24,-1
 1353 1082 l 1,25,-1
 1330 955 l 1,26,-1
 1187 929 l 1,27,-1
 465 313 l 1,19,-1
EndSplineSet
Validated: 1048581
Substitution2: "'ss05' Style Set 5 in Latin lookup 27 subtable" k.ss05
Substitution2: "'smcp' Lowercase to Small Capitals in Latin lookup 20 subtable" k.sc
AlternateSubs2: "'aalt' Access All Alternates in Latin lookup 1 subtable" k.ss05 k.sc
EndChar

StartChar: kgreenlandic
Encoding: 312 312 274
Width: 1257
GlyphClass: 2
Flags: W
AnchorPoint: "Anchor-2" 639 0 basechar 0
AnchorPoint: "Anchor-0" 820 1082 basechar 0
LayerCount: 2
Fore
SplineSet
465 313 m 1,0,-1
 420 468 l 1,1,-1
 972 936 l 1,2,-1
 978 942 l 1,3,-1
 864 955 l 1,4,-1
 887 1082 l 1,5,-1
 1353 1082 l 1,6,-1
 1330 955 l 1,7,-1
 1187 929 l 1,8,-1
 465 313 l 1,0,-1
64 0 m 1,9,-1
 86 126 l 1,10,-1
 254 154 l 1,11,-1
 390 927 l 1,12,-1
 232 955 l 1,13,-1
 255 1082 l 1,14,-1
 615 1082 l 1,15,-1
 451 154 l 1,16,-1
 609 126 l 1,17,-1
 587 0 l 1,18,-1
 64 0 l 1,9,-1
949 0 m 1,19,-1
 647 547 l 1,20,-1
 779 704 l 1,21,-1
 1092 150 l 1,22,-1
 1208 126 l 1,23,-1
 1186 0 l 1,24,-1
 949 0 l 1,19,-1
EndSplineSet
Validated: 1048581
Substitution2: "'ss05' Style Set 5 in Latin lookup 27 subtable" kgreenlandic.ss05
Substitution2: "'aalt' Access All Alternates in Latin lookup 0 subtable" kgreenlandic.ss05
EndChar

StartChar: l
Encoding: 108 108 275
Width: 653
GlyphClass: 2
Flags: W
AnchorPoint: "Anchor-4" 460 753 basechar 0
AnchorPoint: "Anchor-2" 327 0 basechar 0
AnchorPoint: "Anchor-1" 928 1560 basechar 0
AnchorPoint: "Anchor-0" 584 1456 basechar 0
LayerCount: 2
Fore
SplineSet
64 0 m 1,0,-1
 86 126 l 1,1,-1
 254 154 l 1,2,-1
 475 1405 l 1,3,-1
 317 1433 l 1,4,-1
 339 1560 l 1,5,-1
 699 1560 l 1,6,-1
 451 154 l 1,7,-1
 609 126 l 1,8,-1
 587 0 l 1,9,-1
 64 0 l 1,0,-1
EndSplineSet
Validated: 1048577
Substitution2: "'smcp' Lowercase to Small Capitals in Latin lookup 20 subtable" l.sc
Substitution2: "'aalt' Access All Alternates in Latin lookup 0 subtable" l.sc
EndChar

StartChar: m
Encoding: 109 109 281
Width: 1977
GlyphClass: 2
Flags: W
AnchorPoint: "Anchor-2" 989 0 basechar 0
AnchorPoint: "Anchor-0" 1180 1082 basechar 0
LayerCount: 2
Fore
SplineSet
74 0 m 1,0,-1
 96 126 l 1,1,-1
 264 154 l 1,2,-1
 400 927 l 1,3,-1
 242 955 l 1,4,-1
 265 1082 l 1,5,-1
 605 1082 l 1,6,-1
 593 941 l 1,7,8
 659 1018 659 1018 748 1060 c 128,-1,9
 837 1102 837 1102 945 1102 c 256,10,11
 1053 1102 1053 1102 1122 1052 c 128,-1,12
 1191 1002 1191 1002 1212 902 c 1,13,14
 1279 994 1279 994 1372.5 1048 c 128,-1,15
 1466 1102 1466 1102 1578 1102 c 0,16,17
 1744 1102 1744 1102 1820 988 c 0,18,19
 1870 914 1870 914 1870 791 c 0,20,21
 1870 726 1870 726 1856 647 c 2,22,-1
 1769 154 l 1,23,-1
 1927 126 l 1,24,-1
 1905 0 l 1,25,-1
 1381 0 l 1,26,-1
 1403 126 l 1,27,-1
 1571 154 l 1,28,-1
 1658 649 l 2,29,30
 1669 712 1669 712 1669 761 c 0,31,32
 1669 836 1669 836 1643 876 c 0,33,34
 1600 942 1600 942 1492 942 c 0,35,36
 1389 942 1389 942 1314 869.5 c 128,-1,37
 1239 797 1239 797 1209 687 c 1,38,-1
 1115 154 l 1,39,-1
 1273 126 l 1,40,-1
 1251 0 l 1,41,-1
 728 0 l 1,42,-1
 750 126 l 1,43,-1
 918 154 l 1,44,-1
 1005 649 l 2,45,46
 1015 707 1015 707 1015 753 c 0,47,48
 1015 828 1015 828 988 872 c 0,49,50
 944 942 944 942 837 942 c 0,51,52
 747 942 747 942 682.5 905 c 128,-1,53
 618 868 618 868 575 801 c 1,54,-1
 461 154 l 1,55,-1
 619 126 l 1,56,-1
 597 0 l 1,57,-1
 74 0 l 1,0,-1
EndSplineSet
Validated: 1048577
Substitution2: "'smcp' Lowercase to Small Capitals in Latin lookup 20 subtable" m.sc
Substitution2: "'aalt' Access All Alternates in Latin lookup 0 subtable" m.sc
EndChar

StartChar: n
Encoding: 110 110 283
Width: 1343
GlyphClass: 2
Flags: W
AnchorPoint: "Anchor-2" 675 0 basechar 0
AnchorPoint: "Anchor-0" 866 1082 basechar 0
LayerCount: 2
Fore
SplineSet
74 0 m 1,0,-1
 96 126 l 1,1,-1
 264 154 l 1,2,-1
 400 927 l 1,3,-1
 242 955 l 1,4,-1
 265 1082 l 1,5,-1
 604 1082 l 1,6,-1
 589 921 l 1,7,8
 658 1007 658 1007 748 1054.5 c 128,-1,9
 838 1102 838 1102 942 1102 c 0,10,11
 1117 1102 1117 1102 1195 1000 c 0,12,13
 1247 931 1247 931 1247 811 c 0,14,15
 1247 753 1247 753 1235 683 c 2,16,-1
 1142 154 l 1,17,-1
 1300 126 l 1,18,-1
 1278 0 l 1,19,-1
 755 0 l 1,20,-1
 777 126 l 1,21,-1
 945 154 l 1,22,-1
 1038 679 l 2,23,24
 1047 729 1047 729 1047 769 c 0,25,26
 1047 843 1047 843 1017 882 c 0,27,28
 971 942 971 942 855 942 c 0,29,30
 770 942 770 942 697.5 901 c 128,-1,31
 625 860 625 860 573 789 c 1,32,-1
 461 154 l 1,33,-1
 619 126 l 1,34,-1
 597 0 l 1,35,-1
 74 0 l 1,0,-1
EndSplineSet
Validated: 1048577
Substitution2: "'smcp' Lowercase to Small Capitals in Latin lookup 20 subtable" n.sc
Substitution2: "'aalt' Access All Alternates in Latin lookup 0 subtable" n.sc
EndChar

StartChar: eng
Encoding: 331 331 289
Width: 1263
GlyphClass: 1
Flags: W
LayerCount: 2
Fore
SplineSet
720 -437 m 0,0,1
 688 -437 688 -437 662.5 -432.5 c 128,-1,2
 637 -428 637 -428 610 -419 c 1,3,-1
 652 -259 l 1,4,5
 664 -264 664 -264 697.5 -267.5 c 128,-1,6
 731 -271 731 -271 749 -271 c 0,7,8
 810 -271 810 -271 852.5 -224 c 128,-1,9
 895 -177 895 -177 910 -89 c 2,10,-1
 1046 679 l 2,11,12
 1055 729 1055 729 1055 769 c 0,13,14
 1054 843 1054 843 1024 882 c 0,15,16
 978 942 978 942 861 942 c 0,17,18
 776 942 776 942 709.5 909.5 c 128,-1,19
 643 877 643 877 594 818 c 1,20,-1
 477 154 l 1,21,-1
 635 126 l 1,22,-1
 613 0 l 1,23,-1
 90 0 l 1,24,-1
 112 126 l 1,25,-1
 280 154 l 1,26,-1
 416 927 l 1,27,-1
 258 955 l 1,28,-1
 281 1082 l 1,29,-1
 620 1082 l 1,30,-1
 607 933 l 1,31,32
 675 1013 675 1013 762.5 1057.5 c 128,-1,33
 850 1102 850 1102 950 1102 c 0,34,35
 1124 1102 1124 1102 1202 1000 c 0,36,37
 1255 931 1255 931 1255 811 c 0,38,39
 1255 753 1255 753 1243 683 c 2,40,-1
 1107 -89 l 2,41,42
 1078 -256 1078 -256 975.5 -346.5 c 128,-1,43
 873 -437 873 -437 720 -437 c 0,0,1
EndSplineSet
Validated: 1
Substitution2: "'smcp' Lowercase to Small Capitals in Latin lookup 20 subtable" eng.sc
Substitution2: "'aalt' Access All Alternates in Latin lookup 0 subtable" eng.sc
EndChar

StartChar: o
Encoding: 111 111 290
Width: 1124
GlyphClass: 2
Flags: W
AnchorPoint: "Anchor-4" 657 541 basechar 0
AnchorPoint: "Anchor-3" 809 0 basechar 0
AnchorPoint: "Anchor-2" 562 0 basechar 0
AnchorPoint: "Anchor-1" 1196 1082 basechar 0
AnchorPoint: "Anchor-0" 753 1082 basechar 0
LayerCount: 2
Fore
SplineSet
559 -21 m 0,0,1
 409 -21 409 -21 313 49.5 c 128,-1,2
 217 120 217 120 180 244 c 0,3,4
 159 315 159 315 159 398 c 0,5,6
 159 460 159 460 171 529 c 2,7,-1
 175 551 l 2,8,9
 203 711 203 711 284 835.5 c 128,-1,10
 365 960 365 960 486 1031 c 128,-1,11
 607 1102 607 1102 755 1102 c 0,12,13
 905 1102 905 1102 1001 1031 c 0,14,15
 1096 960 1096 960 1134 836 c 0,16,17
 1155 766 1155 766 1156 684 c 0,18,19
 1156 621 1156 621 1143 551 c 2,20,-1
 1139 529 l 2,21,22
 1111 368 1111 368 1030 243.5 c 128,-1,23
 949 119 949 119 828.5 49 c 128,-1,24
 708 -21 708 -21 559 -21 c 0,0,1
586 133 m 0,25,26
 680 133 680 133 753 184.5 c 128,-1,27
 826 236 826 236 874 325.5 c 128,-1,28
 922 415 922 415 942 529 c 2,29,-1
 946 551 l 2,30,31
 957 613 957 613 957 669 c 0,32,33
 958 714 958 714 950 754 c 0,34,35
 934 844 934 844 878.5 895.5 c 128,-1,36
 823 947 823 947 728 947 c 0,37,38
 634 947 634 947 561 895.5 c 128,-1,39
 488 844 488 844 440 754.5 c 128,-1,40
 392 665 392 665 372 551 c 2,41,-1
 368 529 l 2,42,43
 357 467 357 467 357 411 c 0,44,45
 356 366 356 366 364 326 c 0,46,47
 380 236 380 236 435.5 184.5 c 128,-1,48
 491 133 491 133 586 133 c 0,25,26
EndSplineSet
Validated: 33
Substitution2: "'smcp' Lowercase to Small Capitals in Latin lookup 20 subtable" o.sc
Substitution2: "Single Substitution lookup 17 subtable" ordmasculine
AlternateSubs2: "'aalt' Access All Alternates in Latin lookup 1 subtable" o.sc ordmasculine
EndChar

StartChar: oe
Encoding: 339 339 314
Width: 1845
GlyphClass: 2
Flags: W
AnchorPoint: "Anchor-2" 943 0 basechar 0
AnchorPoint: "Anchor-0" 1144 1082 basechar 0
LayerCount: 2
Fore
SplineSet
558 -21 m 0,0,1
 409 -21 409 -21 312.5 49.5 c 128,-1,2
 216 120 216 120 180 244 c 0,3,4
 159 314 159 314 159 397 c 0,5,6
 159 460 159 460 171 529 c 2,7,-1
 175 551 l 2,8,9
 203 711 203 711 283.5 835.5 c 128,-1,10
 364 960 364 960 485 1031 c 128,-1,11
 606 1102 606 1102 754 1102 c 0,12,13
 884 1102 884 1102 975 1047 c 128,-1,14
 1066 992 1066 992 1112 893 c 1,15,16
 1193 991 1193 991 1300.5 1046.5 c 128,-1,17
 1408 1102 1408 1102 1517 1102 c 0,18,19
 1663 1102 1663 1102 1751 1042 c 128,-1,20
 1839 982 1839 982 1870 874 c 0,21,22
 1887 815 1887 815 1887 744 c 0,23,24
 1887 685 1887 685 1875 618 c 2,25,-1
 1853 495 l 1,26,-1
 1151 495 l 1,27,-1
 1147 490 l 1,28,29
 1140 444 1140 444 1140 403 c 0,30,31
 1140 350 1140 350 1152 306 c 0,32,33
 1172 226 1172 226 1228 179.5 c 128,-1,34
 1284 133 1284 133 1376 133 c 0,35,36
 1443 133 1443 133 1501 146 c 128,-1,37
 1559 159 1559 159 1609.5 183 c 128,-1,38
 1660 207 1660 207 1701 240 c 1,39,-1
 1756 112 l 1,40,41
 1687 55 1687 55 1585.5 17 c 128,-1,42
 1484 -21 1484 -21 1349 -21 c 0,43,44
 1261 -21 1261 -21 1190.5 3 c 128,-1,45
 1120 27 1120 27 1068.5 72.5 c 128,-1,46
 1017 118 1017 118 985 182 c 1,47,48
 904 85 904 85 795 32 c 128,-1,49
 686 -21 686 -21 558 -21 c 0,0,1
585 133 m 0,50,51
 679 133 679 133 752.5 184.5 c 128,-1,52
 826 236 826 236 874 325.5 c 128,-1,53
 922 415 922 415 942 529 c 2,54,-1
 946 551 l 2,55,56
 957 613 957 613 957 667 c 0,57,58
 957 712 957 712 949 754 c 0,59,60
 932 844 932 844 877 895.5 c 128,-1,61
 822 947 822 947 727 947 c 0,62,63
 633 947 633 947 560.5 895.5 c 128,-1,64
 488 844 488 844 440 754.5 c 128,-1,65
 392 665 392 665 372 551 c 2,66,-1
 368 529 l 2,67,68
 357 467 357 467 357 411 c 0,69,70
 356 366 356 366 364 326 c 0,71,72
 380 236 380 236 435 184.5 c 128,-1,73
 490 133 490 133 585 133 c 0,50,51
1184 649 m 1,74,-1
 1683 649 l 1,75,-1
 1688 675 l 2,76,77
 1694 710 1694 710 1694 742 c 0,78,79
 1694 780 1694 780 1685 814 c 0,80,81
 1668 876 1668 876 1620 911.5 c 128,-1,82
 1572 947 1572 947 1490 947 c 0,83,84
 1424 947 1424 947 1363 908.5 c 128,-1,85
 1302 870 1302 870 1255.5 804 c 128,-1,86
 1209 738 1209 738 1183 654 c 1,87,-1
 1184 649 l 1,74,-1
EndSplineSet
Validated: 1048609
Substitution2: "'smcp' Lowercase to Small Capitals in Latin lookup 20 subtable" oe.sc
Substitution2: "'aalt' Access All Alternates in Latin lookup 0 subtable" oe.sc
EndChar

StartChar: p
Encoding: 112 112 315
Width: 1197
GlyphClass: 2
Flags: W
AnchorPoint: "Anchor-2" 597 0 basechar 0
AnchorPoint: "Anchor-0" 788 1082 basechar 0
LayerCount: 2
Fore
SplineSet
-29 -416 m 1,0,-1
 -7 -289 l 1,1,-1
 151 -261 l 1,2,-1
 360 927 l 1,3,-1
 202 955 l 1,4,-1
 225 1082 l 1,5,-1
 557 1082 l 1,6,-1
 552 950 l 1,7,8
 619 1024 619 1024 703 1063 c 128,-1,9
 787 1102 787 1102 889 1102 c 0,10,11
 1023 1102 1023 1102 1105.5 1029.5 c 0,12,13
 1188 956 1188 956 1215 826 c 0,14,15
 1228 765 1228 765 1228 695 c 0,16,17
 1228 614 1228 614 1211 521 c 2,18,-1
 1207 500 l 2,19,20
 1179 344 1179 344 1108 227 c 128,-1,21
 1037 110 1037 110 931.5 44.5 c 128,-1,22
 826 -21 826 -21 694 -21 c 0,23,24
 594 -21 594 -21 524.5 12.5 c 128,-1,25
 455 46 455 46 414 112 c 1,26,-1
 348 -261 l 1,27,-1
 515 -289 l 1,28,-1
 493 -416 l 1,29,-1
 -29 -416 l 1,0,-1
660 133 m 0,30,31
 800 133 800 133 890 235 c 128,-1,32
 980 337 980 337 1009 500 c 2,33,-1
 1013 521 l 2,34,35
 1026 594 1026 594 1026 656 c 0,36,37
 1026 700 1026 700 1020 740 c 0,38,39
 1004 834 1004 834 950 888 c 128,-1,40
 896 942 896 942 801 942 c 0,41,42
 717 942 717 942 650.5 904 c 128,-1,43
 584 866 584 866 535 800 c 1,44,-1
 442 273 l 1,45,46
 467 206 467 206 520 169.5 c 128,-1,47
 573 133 573 133 660 133 c 0,30,31
EndSplineSet
Validated: 1572865
Substitution2: "'smcp' Lowercase to Small Capitals in Latin lookup 20 subtable" p.sc
Substitution2: "'aalt' Access All Alternates in Latin lookup 0 subtable" p.sc
EndChar

StartChar: thorn
Encoding: 254 254 316
Width: 1188
GlyphClass: 2
Flags: W
AnchorPoint: "Anchor-2" 226 -416 basechar 0
AnchorPoint: "Anchor-0" 557 1456 basechar 0
LayerCount: 2
Fore
SplineSet
-48 -416 m 1,0,-1
 -26 -289 l 1,1,-1
 142 -261 l 1,2,-1
 436 1405 l 1,3,-1
 278 1433 l 1,4,-1
 300 1560 l 1,5,-1
 660 1560 l 1,6,-1
 555 962 l 1,7,8
 620 1030 620 1030 701.5 1066 c 128,-1,9
 783 1102 783 1102 881 1102 c 0,10,11
 1015 1102 1015 1102 1097 1029.5 c 0,12,13
 1179 956 1179 956 1206 826 c 0,14,15
 1219 765 1219 765 1219 695 c 0,16,17
 1219 614 1219 614 1202 521 c 2,18,-1
 1198 500 l 2,19,20
 1170 344 1170 344 1099.5 227 c 128,-1,21
 1029 110 1029 110 923.5 44.5 c 128,-1,22
 818 -21 818 -21 686 -21 c 0,23,24
 586 -21 586 -21 516 12.5 c 128,-1,25
 446 46 446 46 405 113 c 1,26,-1
 339 -261 l 1,27,-1
 497 -289 l 1,28,-1
 475 -416 l 1,29,-1
 -48 -416 l 1,0,-1
652 133 m 0,30,31
 792 133 792 133 882 235 c 128,-1,32
 972 337 972 337 1001 500 c 2,33,-1
 1005 521 l 2,34,35
 1018 594 1018 594 1018 656 c 0,36,37
 1018 700 1018 700 1012 740 c 0,38,39
 996 834 996 834 942 888 c 128,-1,40
 888 942 888 942 793 942 c 0,41,42
 708 942 708 942 641.5 903.5 c 128,-1,43
 575 865 575 865 526 798 c 1,44,-1
 433 275 l 1,45,46
 458 208 458 208 511.5 170.5 c 128,-1,47
 565 133 565 133 652 133 c 0,30,31
EndSplineSet
Validated: 1572865
Substitution2: "'smcp' Lowercase to Small Capitals in Latin lookup 20 subtable" thorn.sc
Substitution2: "'aalt' Access All Alternates in Latin lookup 0 subtable" thorn.sc
EndChar

StartChar: q
Encoding: 113 113 317
Width: 1139
GlyphClass: 2
Flags: W
AnchorPoint: "Anchor-2" 812 -416 basechar 0
AnchorPoint: "Anchor-0" 763 1082 basechar 0
LayerCount: 2
Fore
SplineSet
549 -416 m 1,0,-1
 571 -289 l 1,1,-1
 739 -261 l 1,2,-1
 803 102 l 1,3,4
 740 41 740 41 663 10 c 128,-1,5
 586 -21 586 -21 495 -21 c 0,6,7
 363 -21 363 -21 280 44.5 c 128,-1,8
 197 110 197 110 168 227 c 0,9,10
 153 288 153 288 153 359 c 0,11,12
 153 425 153 425 166 500 c 2,13,-1
 170 521 l 2,14,15
 201 695 201 695 274 826 c 128,-1,16
 347 957 347 957 454.5 1029.5 c 128,-1,17
 562 1102 562 1102 695 1102 c 0,18,19
 790 1102 790 1102 858 1066.5 c 128,-1,20
 926 1031 926 1031 966 963 c 1,21,-1
 1003 1082 l 1,22,-1
 1173 1082 l 1,23,-1
 936 -261 l 1,24,-1
 1084 -289 l 1,25,-1
 1062 -416 l 1,26,-1
 549 -416 l 1,0,-1
572 133 m 0,27,28
 654 133 654 133 718 169 c 128,-1,29
 782 205 782 205 833 271 c 1,30,-1
 929 814 l 1,31,32
 901 875 901 875 849 911 c 128,-1,33
 797 947 797 947 718 947 c 0,34,35
 624 947 624 947 553.5 892.5 c 128,-1,36
 483 838 483 838 436 742 c 128,-1,37
 389 646 389 646 367 521 c 2,38,-1
 363 500 l 2,39,40
 352 439 352 439 352 387 c 0,41,42
 352 298 352 298 383 234 c 0,43,44
 432 132 432 132 572 133 c 0,27,28
EndSplineSet
Validated: 1048609
Substitution2: "'smcp' Lowercase to Small Capitals in Latin lookup 20 subtable" q.sc
Substitution2: "'aalt' Access All Alternates in Latin lookup 0 subtable" q.sc
EndChar

StartChar: r
Encoding: 114 114 318
Width: 854
GlyphClass: 2
Flags: W
AnchorPoint: "Anchor-2" 341 0 basechar 0
AnchorPoint: "Anchor-0" 642 1082 basechar 0
LayerCount: 2
Fore
SplineSet
72 0 m 1,0,-1
 94 126 l 1,1,-1
 262 154 l 1,2,-1
 398 927 l 1,3,-1
 240 955 l 1,4,-1
 263 1082 l 1,5,-1
 602 1082 l 1,6,-1
 594 944 l 1,7,-1
 593 925 l 1,8,9
 654 1008 654 1008 729.5 1055 c 128,-1,10
 805 1102 805 1102 892 1102 c 0,11,12
 923 1102 923 1102 954.5 1096.5 c 128,-1,13
 986 1091 986 1091 999 1086 c 1,14,-1
 941 903 l 1,15,-1
 806 911 l 2,16,17
 798 912 798 912 789 912 c 0,18,19
 722 912 722 912 668 876 c 0,20,21
 608 836 608 836 567 767 c 1,22,-1
 459 154 l 1,23,-1
 617 126 l 1,24,-1
 595 0 l 1,25,-1
 72 0 l 1,0,-1
EndSplineSet
Validated: 1048577
Substitution2: "'smcp' Lowercase to Small Capitals in Latin lookup 20 subtable" r.sc
Substitution2: "'aalt' Access All Alternates in Latin lookup 0 subtable" r.sc
EndChar

StartChar: s
Encoding: 115 115 322
Width: 1022
GlyphClass: 2
Flags: W
AnchorPoint: "Anchor-2" 511 0 basechar 0
AnchorPoint: "Anchor-0" 702 1082 basechar 0
LayerCount: 2
Fore
SplineSet
508 -21 m 0,0,1
 399 -21 399 -21 308 1 c 128,-1,2
 217 23 217 23 118 69 c 1,3,-1
 161 326 l 1,4,-1
 310 326 l 1,5,-1
 320 171 l 1,6,7
 372 148 372 148 422.5 137.5 c 128,-1,8
 473 127 473 127 534 127 c 0,9,10
 654 127 654 127 714.5 173 c 128,-1,11
 775 219 775 219 787 287 c 0,12,13
 789 300 789 300 789 312 c 0,14,15
 790 360 790 360 754 396 c 0,16,17
 710 440 710 440 576 471 c 0,18,19
 388 516 388 516 309 592 c 0,20,21
 247 651 247 651 247 741 c 0,22,23
 247 766 247 766 252 793 c 0,24,25
 268 881 268 881 331 950.5 c 128,-1,26
 394 1020 394 1020 492 1061 c 128,-1,27
 590 1102 590 1102 711 1102 c 0,28,29
 834 1102 834 1102 916.5 1074 c 128,-1,30
 999 1046 999 1046 1056 999 c 1,31,-1
 1023 752 l 1,32,-1
 875 752 l 1,33,-1
 868 896 l 1,34,35
 838 922 838 922 792.5 936 c 128,-1,36
 747 950 747 950 685 950 c 0,37,38
 593 950 593 950 527.5 907 c 128,-1,39
 462 864 462 864 451 799 c 0,40,41
 448 785 448 785 448 772 c 0,42,43
 448 751 448 751 456 733 c 0,44,45
 468 705 468 705 510.5 682.5 c 128,-1,46
 553 660 553 660 640 638 c 0,47,48
 857 585 857 585 932 503 c 0,49,50
 991 439 991 439 991 352 c 0,51,52
 991 328 991 328 986 301 c 0,53,54
 962 164 962 164 844 71.5 c 128,-1,55
 726 -21 726 -21 508 -21 c 0,0,1
EndSplineSet
Validated: 1048609
Substitution2: "'ss03' Style Set 3 in Latin lookup 25 subtable" s.ss03
Substitution2: "'smcp' Lowercase to Small Capitals in Latin lookup 20 subtable" s.sc
AlternateSubs2: "'aalt' Access All Alternates in Latin lookup 1 subtable" s.ss03 s.sc
EndChar

StartChar: germandbls
Encoding: 223 223 328
Width: 1288
GlyphClass: 2
Flags: W
AnchorPoint: "Anchor-2" 644 0 basechar 0
AnchorPoint: "Anchor-0" 901 1456 basechar 0
LayerCount: 2
Fore
SplineSet
826 -21 m 0,0,1
 770 -21 770 -21 712.5 -11.5 c 128,-1,2
 655 -2 655 -2 608.5 14 c 128,-1,3
 562 30 562 30 541 50 c 1,4,-1
 612 209 l 1,5,6
 649 181 649 181 710.5 157 c 128,-1,7
 772 133 772 133 832 133 c 0,8,9
 941 133 941 133 1000 180 c 128,-1,10
 1059 227 1059 227 1073 306 c 0,11,12
 1076 321 1076 321 1076 336 c 0,13,14
 1076 374 1076 374 1057 412 c 0,15,16
 1031 464 1031 464 988 513.5 c 128,-1,17
 945 563 945 563 902.5 614 c 0,18,19
 860 666 860 666 834 720 c 0,20,21
 816 758 816 758 817 799 c 0,22,23
 817 817 817 817 820 836 c 0,24,25
 829 885 829 885 858.5 933.5 c 128,-1,26
 888 982 888 982 925 1032.5 c 128,-1,27
 962 1083 962 1083 992.5 1137 c 128,-1,28
 1023 1191 1023 1191 1033 1249 c 0,29,30
 1037 1270 1037 1270 1037 1288 c 0,31,32
 1037 1341 1037 1341 1007 1378 c 0,33,34
 967 1427 967 1427 890 1427 c 0,35,36
 789 1427 789 1427 713.5 1347.5 c 128,-1,37
 638 1268 638 1268 612 1122 c 2,38,-1
 414 0 l 1,39,-1
 55 0 l 1,40,-1
 77 126 l 1,41,-1
 245 154 l 1,42,-1
 416 1122 l 2,43,44
 442 1267 442 1267 512.5 1369.5 c 128,-1,45
 583 1472 583 1472 685 1526.5 c 128,-1,46
 787 1581 787 1581 908 1581 c 0,47,48
 1017 1581 1017 1581 1093 1543 c 128,-1,49
 1169 1505 1169 1505 1203 1431 c 0,50,51
 1225 1384 1225 1384 1225 1322 c 0,52,53
 1225 1287 1225 1287 1218 1248 c 0,54,55
 1204 1170 1204 1170 1173.5 1109.5 c 128,-1,56
 1143 1049 1143 1049 1109 1001 c 128,-1,57
 1075 953 1075 953 1048 913.5 c 128,-1,58
 1021 874 1021 874 1015 839 c 0,59,60
 1014 831 1014 831 1014 823 c 0,61,62
 1014 791 1014 791 1036 758 c 0,63,64
 1064 717 1064 717 1108 671.5 c 128,-1,65
 1152 626 1152 626 1194.5 572 c 0,66,67
 1236 518 1236 518 1260 452 c 0,68,69
 1275 411 1275 411 1275 364 c 0,70,71
 1275 336 1275 336 1270 306 c 0,72,73
 1251 200 1251 200 1191.5 127 c 128,-1,74
 1132 54 1132 54 1038.5 16.5 c 128,-1,75
 945 -21 945 -21 826 -21 c 0,0,1
EndSplineSet
Validated: 1572897
Substitution2: "'smcp' Lowercase to Small Capitals in Latin lookup 20 subtable" germandbls.sc
Substitution2: "'aalt' Access All Alternates in Latin lookup 0 subtable" germandbls.sc
EndChar

StartChar: longs
Encoding: 383 383 329
Width: 734
GlyphClass: 2
Flags: W
AnchorPoint: "Anchor-2" 329 0 basechar 0
AnchorPoint: "Anchor-0" 764 1456 basechar 0
LayerCount: 2
Fore
SplineSet
57 0 m 1,0,-1
 79 126 l 1,1,-1
 247 154 l 1,2,-1
 435 1219 l 2,3,4
 466 1392 466 1392 573 1486.5 c 128,-1,5
 680 1581 680 1581 842 1581 c 0,6,7
 876 1581 876 1581 909.5 1575.5 c 128,-1,8
 943 1570 943 1570 983 1560 c 1,9,-1
 933 1415 l 1,10,11
 915 1420 915 1420 893 1423 c 128,-1,12
 871 1426 871 1426 846 1426 c 0,13,14
 759 1426 759 1426 704 1371.5 c 128,-1,15
 649 1317 649 1317 632 1219 c 2,16,-1
 444 154 l 1,17,-1
 602 126 l 1,18,-1
 580 0 l 1,19,-1
 57 0 l 1,0,-1
EndSplineSet
Validated: 1048577
EndChar

StartChar: t
Encoding: 116 116 330
Width: 730
GlyphClass: 2
Flags: W
AnchorPoint: "Anchor-4" 443 667 basechar 0
AnchorPoint: "Anchor-2" 412 0 basechar 0
AnchorPoint: "Anchor-1" 928 1560 basechar 0
AnchorPoint: "Anchor-0" 529 1273 basechar 0
LayerCount: 2
Fore
SplineSet
453 -17 m 0,0,1
 333 -16 333 -16 275 54 c 0,2,3
 235 102 235 102 235 189 c 0,4,5
 235 230 235 230 244 279 c 2,6,-1
 360 936 l 1,7,-1
 189 936 l 1,8,-1
 215 1082 l 1,9,-1
 386 1082 l 1,10,-1
 432 1343 l 1,11,-1
 629 1343 l 1,12,-1
 583 1082 l 1,13,-1
 818 1082 l 1,14,-1
 792 936 l 1,15,-1
 557 936 l 1,16,-1
 441 279 l 2,17,18
 436 251 436 251 436 228 c 0,19,20
 436 188 436 188 452 164 c 0,21,22
 476 127 476 127 528 127 c 0,23,24
 563 127 563 127 607.5 133.5 c 128,-1,25
 652 140 652 140 677 145 c 1,26,-1
 681 16 l 1,27,28
 636 3 636 3 571.5 -7 c 128,-1,29
 507 -17 507 -17 453 -17 c 0,0,1
EndSplineSet
Validated: 1048577
Substitution2: "'smcp' Lowercase to Small Capitals in Latin lookup 20 subtable" t.sc
Substitution2: "'aalt' Access All Alternates in Latin lookup 0 subtable" t.sc
EndChar

StartChar: u
Encoding: 117 117 335
Width: 1245
GlyphClass: 2
Flags: W
AnchorPoint: "Anchor-3" 1181 0 basechar 0
AnchorPoint: "Anchor-2" 623 0 basechar 0
AnchorPoint: "Anchor-1" 1384 1082 basechar 0
AnchorPoint: "Anchor-0" 797 1082 basechar 0
LayerCount: 2
Fore
SplineSet
546 -21 m 0,0,1
 370 -21 370 -21 291 92 c 0,2,3
 239 166 239 166 239 293 c 0,4,5
 239 361 239 361 254 444 c 2,6,-1
 339 927 l 1,7,-1
 220 955 l 1,8,-1
 243 1082 l 1,9,-1
 367 1082 l 1,10,-1
 564 1082 l 1,11,-1
 451 442 l 2,12,13
 437 366 437 366 437 312 c 0,14,15
 437 241 437 241 460 204 c 0,16,17
 500 139 500 139 608 139 c 0,18,19
 713 139 713 139 788.5 181.5 c 128,-1,20
 864 224 864 224 913 302 c 1,21,-1
 1023 927 l 1,22,-1
 883 955 l 1,23,-1
 906 1082 l 1,24,-1
 1051 1082 l 1,25,-1
 1248 1082 l 1,26,-1
 1084 154 l 1,27,-1
 1203 126 l 1,28,-1
 1181 0 l 1,29,-1
 880 0 l 1,30,-1
 895 160 l 1,31,32
 829 73 829 73 740 26 c 128,-1,33
 651 -21 651 -21 546 -21 c 0,0,1
EndSplineSet
Validated: 1048577
Substitution2: "'smcp' Lowercase to Small Capitals in Latin lookup 20 subtable" u.sc
Substitution2: "'aalt' Access All Alternates in Latin lookup 0 subtable" u.sc
EndChar

StartChar: v
Encoding: 118 118 354
Width: 1206
GlyphClass: 2
Flags: W
AnchorPoint: "Anchor-2" 603 0 basechar 0
AnchorPoint: "Anchor-0" 794 1082 basechar 0
LayerCount: 2
Fore
SplineSet
523 0 m 1,0,-1
 304 940 l 1,1,-1
 194 955 l 1,2,-1
 217 1082 l 1,3,-1
 671 1082 l 1,4,-1
 648 955 l 1,5,-1
 504 935 l 1,6,-1
 635 319 l 1,7,-1
 648 232 l 1,8,-1
 654 232 l 1,9,-1
 701 319 l 1,10,-1
 1033 935 l 1,11,-1
 891 955 l 1,12,-1
 914 1082 l 1,13,-1
 1367 1082 l 1,14,-1
 1344 955 l 1,15,-1
 1228 940 l 1,16,-1
 696 0 l 1,17,-1
 523 0 l 1,0,-1
EndSplineSet
Validated: 1048577
Substitution2: "'smcp' Lowercase to Small Capitals in Latin lookup 20 subtable" v.sc
Substitution2: "'aalt' Access All Alternates in Latin lookup 0 subtable" v.sc
EndChar

StartChar: w
Encoding: 119 119 355
Width: 1823
GlyphClass: 2
Flags: W
AnchorPoint: "Anchor-2" 912 0 basechar 0
AnchorPoint: "Anchor-0" 1103 1082 basechar 0
LayerCount: 2
Fore
SplineSet
458 0 m 1,0,-1
 339 941 l 1,1,-1
 220 955 l 1,2,-1
 243 1082 l 1,3,-1
 690 1082 l 1,4,-1
 667 955 l 1,5,-1
 531 933 l 1,6,-1
 584 394 l 1,7,-1
 596 266 l 1,8,-1
 602 266 l 1,9,-1
 668 394 l 1,10,-1
 1025 1082 l 1,11,-1
 1191 1082 l 1,12,-1
 1294 396 l 1,13,-1
 1315 244 l 1,14,-1
 1321 244 l 1,15,-1
 1395 396 l 1,16,-1
 1641 934 l 1,17,-1
 1508 955 l 1,18,-1
 1531 1082 l 1,19,-1
 1968 1082 l 1,20,-1
 1945 955 l 1,21,-1
 1822 938 l 1,22,-1
 1377 0 l 1,23,-1
 1190 0 l 1,24,-1
 1086 650 l 1,25,-1
 1064 824 l 1,26,-1
 1058 823 l 1,27,-1
 977 650 l 1,28,-1
 627 0 l 1,29,-1
 458 0 l 1,0,-1
EndSplineSet
Validated: 1048577
Substitution2: "'smcp' Lowercase to Small Capitals in Latin lookup 20 subtable" w.sc
Substitution2: "'aalt' Access All Alternates in Latin lookup 0 subtable" w.sc
EndChar

StartChar: x
Encoding: 120 120 360
Width: 1203
GlyphClass: 2
Flags: W
AnchorPoint: "Anchor-2" 602 0 basechar 0
AnchorPoint: "Anchor-0" 793 1082 basechar 0
LayerCount: 2
Fore
SplineSet
42 0 m 1,0,-1
 64 126 l 1,1,-1
 188 149 l 1,2,-1
 581 547 l 1,3,-1
 333 932 l 1,4,-1
 230 955 l 1,5,-1
 253 1082 l 1,6,-1
 677 1082 l 1,7,-1
 654 955 l 1,8,-1
 544 943 l 1,9,-1
 718 667 l 1,10,-1
 982 944 l 1,11,-1
 868 955 l 1,12,-1
 891 1082 l 1,13,-1
 1308 1082 l 1,14,-1
 1285 955 l 1,15,-1
 1171 932 l 1,16,-1
 811 550 l 1,17,-1
 1077 149 l 1,18,-1
 1185 126 l 1,19,-1
 1163 0 l 1,20,-1
 704 0 l 1,21,-1
 726 126 l 1,22,-1
 858 137 l 1,23,-1
 672 426 l 1,24,-1
 391 137 l 1,25,-1
 506 126 l 1,26,-1
 484 0 l 1,27,-1
 42 0 l 1,0,-1
EndSplineSet
Validated: 1048577
Substitution2: "'smcp' Lowercase to Small Capitals in Latin lookup 20 subtable" x.sc
Substitution2: "'aalt' Access All Alternates in Latin lookup 0 subtable" x.sc
EndChar

StartChar: y
Encoding: 121 121 361
Width: 1192
GlyphClass: 2
Flags: W
AnchorPoint: "Anchor-2" 860 0 basechar 0
AnchorPoint: "Anchor-0" 787 1082 basechar 0
LayerCount: 2
Fore
SplineSet
232 -437 m 0,0,1
 209 -437 209 -437 173 -431.5 c 128,-1,2
 137 -426 137 -426 118 -421 c 1,3,-1
 165 -266 l 1,4,5
 182 -268 182 -268 211.5 -269.5 c 128,-1,6
 241 -271 241 -271 252 -271 c 0,7,8
 315 -271 315 -271 363 -223 c 128,-1,9
 411 -175 411 -175 460 -92 c 2,10,-1
 527 22 l 1,11,-1
 306 939 l 1,12,-1
 192 955 l 1,13,-1
 215 1082 l 1,14,-1
 669 1082 l 1,15,-1
 646 955 l 1,16,-1
 512 935 l 1,17,-1
 627 394 l 1,18,-1
 654 253 l 1,19,-1
 660 253 l 1,20,-1
 1030 935 l 1,21,-1
 895 955 l 1,22,-1
 918 1082 l 1,23,-1
 1363 1082 l 1,24,-1
 1340 955 l 1,25,-1
 1226 939 l 1,26,-1
 605 -166 l 2,27,28
 561 -244 561 -244 507.5 -305.5 c 128,-1,29
 454 -367 454 -367 386.5 -402 c 128,-1,30
 319 -437 319 -437 232 -437 c 0,0,1
EndSplineSet
Validated: 1048577
Substitution2: "'smcp' Lowercase to Small Capitals in Latin lookup 20 subtable" y.sc
Substitution2: "'aalt' Access All Alternates in Latin lookup 0 subtable" y.sc
EndChar

StartChar: z
Encoding: 122 122 369
Width: 1032
GlyphClass: 2
Flags: W
AnchorPoint: "Anchor-2" 516 0 basechar 0
AnchorPoint: "Anchor-0" 707 1082 basechar 0
LayerCount: 2
Fore
SplineSet
88 0 m 1,0,-1
 112 138 l 1,1,-1
 841 930 l 1,2,-1
 438 930 l 1,3,-1
 381 748 l 1,4,-1
 233 748 l 1,5,-1
 292 1082 l 1,6,-1
 1112 1082 l 1,7,-1
 1088 948 l 1,8,-1
 352 150 l 1,9,-1
 813 150 l 1,10,-1
 872 333 l 1,11,-1
 1019 333 l 1,12,-1
 960 0 l 1,13,-1
 88 0 l 1,0,-1
EndSplineSet
Validated: 1048577
Substitution2: "'smcp' Lowercase to Small Capitals in Latin lookup 20 subtable" z.sc
Substitution2: "'aalt' Access All Alternates in Latin lookup 0 subtable" z.sc
EndChar

StartChar: g.ss01
Encoding: 65548 -1 373
Width: 1082
GlyphClass: 2
Flags: W
AnchorPoint: "Anchor-2" 436 -416 basechar 0
AnchorPoint: "Anchor-0" 732 1082 basechar 0
LayerCount: 2
Fore
SplineSet
417 -438 m 0,0,1
 196 -438 196 -438 86 -358 c 0,2,3
 -7 -290 -7 -290 -6 -197 c 0,4,5
 -6 -179 -6 -179 -3 -161 c 0,6,7
 13 -71 13 -71 73 -5.5 c 128,-1,8
 133 60 133 60 218 100 c 1,9,10
 194 122 194 122 185 152 c 0,11,12
 180 169 180 169 180 189 c 0,13,14
 180 204 180 204 183 221 c 0,15,16
 196 292 196 292 237 341.5 c 128,-1,17
 278 391 278 391 338 429 c 1,18,19
 264 478 264 478 232 555 c 0,20,21
 210 607 210 607 210 664 c 0,22,23
 210 692 210 692 215 721 c 2,24,-1
 219 743 l 2,25,26
 237 847 237 847 306.5 928 c 128,-1,27
 376 1009 376 1009 481.5 1055.5 c 128,-1,28
 587 1102 587 1102 714 1102 c 0,29,30
 754 1102 754 1102 791.5 1096.5 c 128,-1,31
 829 1091 829 1091 864 1082 c 1,32,-1
 1235 1082 l 1,33,-1
 1209 933 l 1,34,-1
 1060 933 l 1,35,36
 1081 891 1081 891 1087 843 c 0,37,38
 1089 824 1089 824 1089 804 c 0,39,40
 1089 774 1089 774 1084 743 c 2,41,-1
 1080 721 l 2,42,43
 1062 621 1062 621 992.5 539.5 c 128,-1,44
 923 458 923 458 817.5 410 c 128,-1,45
 712 362 712 362 586 362 c 0,46,47
 545 362 545 362 508 367 c 128,-1,48
 471 372 471 372 437 382 c 1,49,50
 411 363 411 363 393.5 337.5 c 128,-1,51
 376 312 376 312 370 278 c 0,52,53
 368 269 368 269 368 261 c 0,54,55
 368 230 368 230 393 215 c 0,56,57
 424 196 424 196 483 196 c 2,58,-1
 654 196 l 2,59,60
 854 196 854 196 948 123 c 0,61,62
 1022 66 1022 66 1023 -37 c 0,63,64
 1023 -65 1023 -65 1017 -97 c 0,65,66
 1002 -181 1002 -181 920.5 -259 c 128,-1,67
 839 -337 839 -337 708.5 -387.5 c 128,-1,68
 578 -438 578 -438 417 -438 c 0,0,1
444 -284 m 0,69,70
 546 -284 546 -284 628 -256 c 128,-1,71
 710 -228 710 -228 760.5 -185 c 128,-1,72
 811 -142 811 -142 819 -97 c 0,73,74
 822 -81 822 -81 822 -66 c 0,75,76
 822 -18 822 -18 789 8 c 0,77,78
 746 42 746 42 626 42 c 2,79,-1
 416 42 l 2,80,81
 392 42 392 42 373 43 c 128,-1,82
 354 44 354 44 336 48 c 1,83,84
 302 33 302 33 274 7.5 c 128,-1,85
 246 -18 246 -18 226.5 -51 c 128,-1,86
 207 -84 207 -84 200 -123 c 0,87,88
 198 -134 198 -134 198 -145 c 0,89,90
 198 -199 198 -199 249 -238 c 0,91,92
 310 -284 310 -284 444 -284 c 0,69,70
613 516 m 0,93,94
 681 516 681 516 738.5 545 c 128,-1,95
 796 574 796 574 835 620.5 c 128,-1,96
 874 667 874 667 883 721 c 2,97,-1
 887 743 l 2,98,99
 890 760 890 760 890 777 c 0,100,101
 890 814 890 814 874 846 c 0,102,103
 852 892 852 892 804 919.5 c 128,-1,104
 756 947 756 947 687 947 c 0,105,106
 619 947 619 947 560.5 919.5 c 128,-1,107
 502 892 502 892 464 845.5 c 128,-1,108
 426 799 426 799 416 743 c 2,109,-1
 412 721 l 2,110,111
 409 704 409 704 409 688 c 0,112,113
 408 652 408 652 424 620 c 0,114,115
 446 574 446 574 495 545 c 128,-1,116
 544 516 544 516 613 516 c 0,93,94
EndSplineSet
Validated: 1048609
EndChar

StartChar: a.ss03
Encoding: 65549 -1 374
Width: 1128
GlyphClass: 1
Flags: W
LayerCount: 2
Fore
SplineSet
445 -21 m 0,0,1
 277 -20 277 -20 204 66 c 0,2,3
 151 129 151 129 151 227 c 0,4,5
 151 263 151 263 158 304 c 0,6,7
 176 408 176 408 245.5 481.5 c 128,-1,8
 315 555 315 555 427 594.5 c 128,-1,9
 539 634 539 634 682 634 c 2,10,-1
 885 634 l 1,11,-1
 904 741 l 2,12,13
 908 765 908 765 908 786 c 0,14,15
 908 850 908 850 870 892 c 0,16,17
 820 948 820 948 713 947 c 0,18,19
 648 947 648 947 593.5 924.5 c 128,-1,20
 539 902 539 902 504 864.5 c 128,-1,21
 469 827 469 827 461 782 c 1,22,-1
 274 782 l 1,23,-1
 273 788 l 1,24,25
 283 867 283 867 349 938.5 c 128,-1,26
 415 1010 415 1010 520.5 1056 c 128,-1,27
 626 1102 626 1102 752 1102 c 0,28,29
 936 1102 936 1102 1034 1008 c 0,30,31
 1108 937 1108 937 1107 819 c 0,32,33
 1107 781 1107 781 1100 739 c 2,34,-1
 1008 218 l 2,35,36
 1004 197 1004 197 1001.5 177 c 128,-1,37
 999 157 999 157 997 137 c 1,38,-1
 1075 126 l 1,39,-1
 1053 0 l 1,40,-1
 795 0 l 1,41,42
 795 22 795 22 794.5 42 c 128,-1,43
 794 62 794 62 795 79 c 0,44,45
 796 114 796 114 800 149 c 1,46,47
 730 76 730 76 636 27.5 c 128,-1,48
 542 -21 542 -21 445 -21 c 0,0,1
503 144 m 0,49,50
 601 144 601 144 690.5 191 c 128,-1,51
 780 238 780 238 827 304 c 1,52,-1
 861 501 l 1,53,-1
 651 501 l 2,54,55
 531 501 531 501 449.5 441 c 128,-1,56
 368 381 368 381 354 300 c 0,57,58
 351 281 351 281 351 265 c 0,59,60
 351 217 351 217 378 186 c 0,61,62
 415 144 415 144 503 144 c 0,49,50
EndSplineSet
Validated: 33
EndChar

StartChar: ae.ss03
Encoding: 65550 -1 375
Width: 1795
GlyphClass: 2
Flags: W
AnchorPoint: "Anchor-2" 933 0 basechar 0
AnchorPoint: "Anchor-0" 1124 1082 basechar 0
LayerCount: 2
Fore
SplineSet
448 -21 m 0,0,1
 278 -21 278 -21 201 66 c 0,2,3
 144 130 144 130 144 230 c 0,4,5
 144 265 144 265 151 304 c 0,6,7
 179 462 179 462 308.5 548.5 c 128,-1,8
 438 635 438 635 658 635 c 2,9,-1
 887 635 l 1,10,-1
 902 720 l 2,11,12
 908 754 908 754 908 783 c 0,13,14
 908 846 908 846 880 886 c 0,15,16
 839 946 839 946 741 947 c 0,17,18
 638 947 638 947 567.5 892 c 128,-1,19
 497 837 497 837 483 759 c 1,20,-1
 298 777 l 1,21,-1
 297 783 l 1,22,23
 310 875 310 875 374 947 c 128,-1,24
 438 1019 438 1019 540 1060.5 c 128,-1,25
 642 1102 642 1102 768 1102 c 0,26,27
 883 1102 883 1102 963 1061.5 c 128,-1,28
 1043 1021 1043 1021 1079 944 c 1,29,30
 1156 1019 1156 1019 1251 1060.5 c 128,-1,31
 1346 1102 1346 1102 1448 1102 c 0,32,33
 1591 1102 1591 1102 1680 1043.5 c 0,34,35
 1770 986 1770 986 1802 876 c 0,36,37
 1820 816 1820 816 1819 743 c 0,38,39
 1819 683 1819 683 1807 614 c 2,40,-1
 1786 495 l 1,41,-1
 1076 495 l 1,42,-1
 1073 490 l 1,43,44
 1065 441 1065 441 1065 398 c 0,45,46
 1065 301 1065 301 1107 232 c 0,47,48
 1168 133 1168 133 1323 133 c 0,49,50
 1427 133 1427 133 1498 160.5 c 128,-1,51
 1569 188 1569 188 1656 239 c 1,52,-1
 1700 101 l 1,53,54
 1637 56 1637 56 1536 17.5 c 128,-1,55
 1435 -21 1435 -21 1296 -21 c 0,56,57
 1161 -21 1161 -21 1065.5 27.5 c 128,-1,58
 970 76 970 76 920 165 c 1,59,60
 850 86 850 86 728.5 32.5 c 128,-1,61
 607 -21 607 -21 448 -21 c 0,0,1
514 133 m 0,62,63
 565 133 565 133 623.5 153 c 128,-1,64
 682 173 682 173 735.5 205.5 c 128,-1,65
 789 238 789 238 824 276 c 1,66,-1
 862 493 l 1,67,-1
 635 493 l 2,68,69
 515 493 515 493 438 437 c 128,-1,70
 361 381 361 381 347 300 c 0,71,72
 344 282 344 282 344 266 c 0,73,74
 344 216 344 216 376 180 c 0,75,76
 418 134 418 134 514 133 c 0,62,63
1106 640 m 1,77,-1
 1615 640 l 1,78,-1
 1620 671 l 2,79,80
 1627 710 1627 710 1627 745 c 0,81,82
 1628 818 1628 818 1596 870 c 0,83,84
 1550 947 1550 947 1421 947 c 0,85,86
 1345 947 1345 947 1281.5 908.5 c 128,-1,87
 1218 870 1218 870 1173 802 c 128,-1,88
 1128 734 1128 734 1105 645 c 1,89,-1
 1106 640 l 1,77,-1
EndSplineSet
Validated: 1572897
EndChar

StartChar: c.ss03
Encoding: 65551 -1 376
Width: 1118
GlyphClass: 1
Flags: W
LayerCount: 2
Fore
SplineSet
585 -21 m 0,0,1
 428 -21 428 -21 332 49.5 c 128,-1,2
 236 120 236 120 202 242 c 0,3,4
 183 309 183 309 183 387 c 0,5,6
 183 450 183 450 196 520 c 2,7,-1
 203 562 l 2,8,9
 230 716 230 716 307.5 838 c 128,-1,10
 385 960 385 960 506 1031 c 128,-1,11
 627 1102 627 1102 783 1102 c 0,12,13
 910 1102 910 1102 998 1050.5 c 0,14,15
 1086 1000 1086 1000 1125 912 c 0,16,17
 1150 856 1150 856 1150 791 c 0,18,19
 1150 754 1150 754 1142 715 c 1,20,-1
 1139 709 l 1,21,-1
 961 709 l 1,22,23
 965 732 965 732 965 753 c 0,24,25
 964 793 964 793 950 829 c 0,26,27
 928 883 928 883 878 915 c 128,-1,28
 828 947 828 947 756 947 c 0,29,30
 653 947 653 947 580.5 896 c 128,-1,31
 508 845 508 845 463.5 757.5 c 128,-1,32
 419 670 419 670 400 562 c 2,33,-1
 393 520 l 2,34,35
 382 454 382 454 382 395 c 0,36,37
 382 357 382 357 386 322 c 0,38,39
 398 234 398 234 453 183.5 c 128,-1,40
 508 133 508 133 612 133 c 0,41,42
 678 133 678 133 739 161 c 128,-1,43
 800 189 800 189 843 236.5 c 128,-1,44
 886 284 886 284 896 342 c 1,45,-1
 1073 342 l 1,46,-1
 1074 336 l 1,47,48
 1062 243 1062 243 988 161.5 c 128,-1,49
 914 80 914 80 807 29.5 c 128,-1,50
 700 -21 700 -21 585 -21 c 0,0,1
EndSplineSet
Validated: 524289
EndChar

StartChar: s.ss03
Encoding: 65552 -1 377
Width: 1044
GlyphClass: 1
Flags: W
LayerCount: 2
Fore
SplineSet
524 -21 m 0,0,1
 386 -21 386 -21 294.5 27.5 c 128,-1,2
 203 76 203 76 165 156 c 0,3,4
 140 208 140 208 140 266 c 0,5,6
 140 297 140 297 147 329 c 1,7,-1
 150 335 l 1,8,-1
 338 335 l 1,9,10
 336 319 336 319 336 304 c 0,11,12
 336 254 336 254 356 220 c 0,13,14
 382 176 382 176 434 154.5 c 128,-1,15
 486 133 486 133 551 133 c 0,16,17
 656 133 656 133 723 175.5 c 128,-1,18
 790 218 790 218 803 287 c 0,19,20
 805 300 805 300 805 313 c 0,21,22
 805 361 805 361 772 394 c 0,23,24
 730 436 730 436 597 467 c 0,25,26
 408 510 408 510 321 584 c 0,27,28
 252 643 252 643 252 735 c 0,29,30
 252 758 252 758 256 784 c 0,31,32
 272 872 272 872 336 944 c 128,-1,33
 400 1016 400 1016 498.5 1059 c 128,-1,34
 597 1102 597 1102 717 1102 c 0,35,36
 843 1102 843 1102 928 1057.5 c 0,37,38
 1014 1014 1014 1014 1050 938 c 0,39,40
 1074 889 1074 889 1073 833 c 0,41,42
 1073 802 1073 802 1066 769 c 1,43,-1
 1063 763 l 1,44,-1
 875 763 l 1,45,46
 878 778 878 778 878 792 c 0,47,48
 878 846 878 846 838 890 c 0,49,50
 788 946 788 946 690 947 c 0,51,52
 585 947 585 947 526 901 c 128,-1,53
 467 855 467 855 455 790 c 0,54,55
 453 775 453 775 453 762 c 0,56,57
 453 738 453 738 461 718 c 0,58,59
 474 688 474 688 519.5 665.5 c 128,-1,60
 565 643 565 643 654 623 c 0,61,62
 852 580 852 580 938 504 c 0,63,64
 1007 444 1007 444 1006 350 c 0,65,66
 1006 326 1006 326 1002 301 c 0,67,68
 985 205 985 205 919.5 132.5 c 128,-1,69
 854 60 854 60 752 19.5 c 128,-1,70
 650 -21 650 -21 524 -21 c 0,0,1
EndSplineSet
Validated: 524321
EndChar

StartChar: k.ss05
Encoding: 65553 -1 378
Width: 1287
GlyphClass: 1
Flags: W
LayerCount: 2
Fore
SplineSet
64 0 m 1,0,-1
 86 126 l 1,1,-1
 254 154 l 1,2,-1
 475 1405 l 1,3,-1
 317 1433 l 1,4,-1
 339 1560 l 1,5,-1
 699 1560 l 1,6,-1
 540 656 l 1,7,-1
 666 656 l 1,8,-1
 978 936 l 1,9,-1
 984 942 l 1,10,-1
 870 955 l 1,11,-1
 893 1082 l 1,12,-1
 1353 1082 l 1,13,-1
 1330 955 l 1,14,-1
 1187 929 l 1,15,-1
 819 585 l 1,16,-1
 1118 150 l 1,17,-1
 1270 126 l 1,18,-1
 1248 0 l 1,19,-1
 759 0 l 1,20,-1
 781 126 l 1,21,-1
 894 139 l 1,22,-1
 891 143 l 1,23,-1
 642 499 l 1,24,-1
 512 499 l 1,25,-1
 451 154 l 1,26,-1
 609 126 l 1,27,-1
 587 0 l 1,28,-1
 64 0 l 1,0,-1
EndSplineSet
Validated: 1
EndChar

StartChar: kgreenlandic.ss05
Encoding: 65554 -1 379
Width: 1257
GlyphClass: 1
Flags: W
LayerCount: 2
Fore
SplineSet
62 0 m 1,0,-1
 84 126 l 1,1,-1
 252 154 l 1,2,-1
 388 927 l 1,3,-1
 239 955 l 1,4,-1
 262 1081 l 1,5,-1
 613 1081 l 1,6,-1
 538 656 l 1,7,-1
 664 656 l 1,8,-1
 965 942 l 1,9,-1
 966 943 l 1,10,-1
 878 955 l 1,11,-1
 901 1082 l 1,12,-1
 1353 1082 l 1,13,-1
 1330 955 l 1,14,-1
 1194 929 l 1,15,-1
 822 586 l 1,16,-1
 1089 150 l 1,17,-1
 1208 126 l 1,18,-1
 1186 0 l 1,19,-1
 949 0 l 1,20,-1
 639 499 l 1,21,-1
 510 499 l 1,22,-1
 449 154 l 1,23,-1
 607 126 l 1,24,-1
 585 0 l 1,25,-1
 62 0 l 1,0,-1
EndSplineSet
Validated: 1
EndChar

StartChar: fi
Encoding: 64257 64257 380
Width: 1239
GlyphClass: 3
LigCaretCntFixed: 1
Flags: W
LayerCount: 2
Fore
SplineSet
51 0 m 1,0,-1
 73 126 l 1,1,-1
 241 154 l 1,2,-1
 379 936 l 1,3,-1
 210 936 l 1,4,-1
 236 1082 l 1,5,-1
 405 1082 l 1,6,-1
 425 1199 l 2,7,8
 457 1381 457 1381 582 1481 c 128,-1,9
 707 1581 707 1581 896 1581 c 0,10,11
 962 1581 962 1581 1025 1565 c 128,-1,12
 1088 1549 1088 1549 1169 1520 c 1,13,-1
 1108 1360 l 1,14,15
 1059 1381 1059 1381 1001.5 1396 c 128,-1,16
 944 1411 944 1411 881 1411 c 0,17,18
 763 1411 763 1411 702 1359 c 128,-1,19
 641 1307 641 1307 622 1199 c 2,20,-1
 602 1082 l 1,21,-1
 1219 1082 l 1,22,-1
 1055 154 l 1,23,-1
 1213 126 l 1,24,-1
 1191 0 l 1,25,-1
 668 0 l 1,26,-1
 690 126 l 1,27,-1
 858 154 l 1,28,-1
 996 936 l 1,29,-1
 576 936 l 1,30,-1
 438 154 l 1,31,-1
 596 126 l 1,32,-1
 574 0 l 1,33,-1
 51 0 l 1,0,-1
EndSplineSet
Validated: 1
Ligature2: "'liga' Standard Ligatures in Latin lookup 22 subtable" f i
MultipleSubs2: "'ccmp' Glyph Composition/Decomposition in Latin lookup 9 subtable" f i
LCarets2: 1 620
EndChar

StartChar: fl
Encoding: 64258 64258 381
Width: 1350
GlyphClass: 3
LigCaretCntFixed: 1
Flags: W
LayerCount: 2
Fore
SplineSet
51 0 m 1,0,-1
 73 126 l 1,1,-1
 241 154 l 1,2,-1
 379 936 l 1,3,-1
 235 936 l 1,4,-1
 261 1082 l 1,5,-1
 405 1082 l 1,6,-1
 419 1160 l 2,7,8
 454 1361 454 1361 591 1471 c 128,-1,9
 728 1581 728 1581 936 1581 c 0,10,11
 1022 1581 1022 1581 1103 1565 c 128,-1,12
 1184 1549 1184 1549 1290 1519 c 1,13,-1
 1379 1519 l 1,14,-1
 1138 154 l 1,15,-1
 1296 126 l 1,16,-1
 1274 0 l 1,17,-1
 751 0 l 1,18,-1
 773 126 l 1,19,-1
 941 154 l 1,20,-1
 1157 1380 l 1,21,22
 1101 1394 1101 1394 1042 1402.5 c 128,-1,23
 983 1411 983 1411 921 1411 c 0,24,25
 783 1411 783 1411 710.5 1349 c 128,-1,26
 638 1287 638 1287 616 1160 c 2,27,-1
 602 1082 l 1,28,-1
 853 1082 l 1,29,-1
 827 936 l 1,30,-1
 576 936 l 1,31,-1
 438 154 l 1,32,-1
 596 126 l 1,33,-1
 574 0 l 1,34,-1
 51 0 l 1,0,-1
EndSplineSet
Validated: 1
Ligature2: "'liga' Standard Ligatures in Latin lookup 22 subtable" f l
MultipleSubs2: "'ccmp' Glyph Composition/Decomposition in Latin lookup 9 subtable" f l
LCarets2: 1 675
EndChar

StartChar: a.sc
Encoding: 65555 -1 384
Width: 1214
GlyphClass: 2
Flags: W
AnchorPoint: "Anchor-3" 1188 0 basechar 0
AnchorPoint: "Anchor-2" 603 0 basechar 0
AnchorPoint: "Anchor-0" 794 1082 basechar 0
LayerCount: 2
Fore
SplineSet
16 0 m 1,0,-1
 38 126 l 1,1,-1
 122 140 l 1,2,-1
 715 1165 l 1,3,-1
 900 1165 l 1,4,-1
 1132 140 l 1,5,-1
 1210 126 l 1,6,-1
 1188 0 l 1,7,-1
 797 0 l 1,8,-1
 819 126 l 1,9,-1
 929 144 l 1,10,-1
 903 268 l 1,11,-1
 395 268 l 1,12,-1
 325 144 l 1,13,-1
 430 126 l 1,14,-1
 408 0 l 1,15,-1
 16 0 l 1,0,-1
481 422 m 1,16,-1
 871 422 l 1,17,-1
 777 870 l 1,18,-1
 766 921 l 1,19,-1
 760 921 l 1,20,-1
 734 874 l 1,21,-1
 481 422 l 1,16,-1
EndSplineSet
Validated: 1048577
EndChar

StartChar: ae.sc
Encoding: 65579 -1 408
Width: 1797
GlyphClass: 2
Flags: W
AnchorPoint: "Anchor-2" 964 0 basechar 0
AnchorPoint: "Anchor-0" 1154 1082 basechar 0
LayerCount: 2
Fore
SplineSet
16 0 m 1,0,-1
 37 121 l 1,1,-1
 161 137 l 1,2,-1
 946 1165 l 1,3,-1
 1821 1165 l 1,4,-1
 1773 888 l 1,5,-1
 1612 888 l 1,6,-1
 1621 1011 l 1,7,-1
 1220 1011 l 1,8,-1
 1179 679 l 1,9,-1
 1665 679 l 1,10,-1
 1638 525 l 1,11,-1
 1158 525 l 1,12,-1
 1109 153 l 1,13,-1
 1523 153 l 1,14,-1
 1558 276 l 1,15,-1
 1718 276 l 1,16,-1
 1669 0 l 1,17,-1
 753 0 l 1,18,-1
 774 121 l 1,19,-1
 911 143 l 1,20,-1
 929 282 l 1,21,-1
 502 282 l 1,22,-1
 380 132 l 1,23,-1
 450 121 l 1,24,-1
 429 0 l 1,25,-1
 16 0 l 1,0,-1
622 445 m 1,26,-1
 950 445 l 1,27,-1
 1022 984 l 1,28,-1
 1017 985 l 1,29,-1
 1007 971 l 1,30,-1
 622 445 l 1,26,-1
EndSplineSet
Validated: 1048577
EndChar

StartChar: b.sc
Encoding: 65581 -1 410
Width: 1186
GlyphClass: 2
Flags: W
AnchorPoint: "Anchor-2" 593 0 basechar 0
AnchorPoint: "Anchor-0" 784 1082 basechar 0
LayerCount: 2
Fore
SplineSet
31 0 m 1,0,-1
 53 126 l 1,1,-1
 221 154 l 1,2,-1
 372 1010 l 1,3,-1
 214 1038 l 1,4,-1
 236 1165 l 1,5,-1
 399 1165 l 1,6,-1
 796 1165 l 2,7,8
 1010 1166 1010 1166 1114 1086 c 0,9,10
 1196 1023 1196 1023 1196 911 c 0,11,12
 1196 881 1196 881 1190 847 c 0,13,14
 1175 764 1175 764 1116.5 698.5 c 128,-1,15
 1058 633 1058 633 965 600 c 1,16,17
 1064 575 1064 575 1108 500 c 0,18,19
 1140 446 1140 446 1141 380 c 0,20,21
 1141 355 1141 355 1136 329 c 0,22,23
 1107 167 1107 167 982 83.5 c 128,-1,24
 857 0 857 0 660 0 c 2,25,-1
 31 0 l 1,0,-1
418 152 m 1,26,-1
 687 152 l 2,27,28
 796 152 796 152 859.5 199 c 128,-1,29
 923 246 923 246 939 334 c 0,30,31
 943 355 943 355 943 374 c 0,32,33
 942 432 942 432 908 470 c 0,34,35
 862 522 862 522 752 521 c 2,36,-1
 483 521 l 1,37,-1
 418 152 l 1,26,-1
508 662 m 1,38,-1
 720 662 l 1,39,40
 962 667 962 667 991 836 c 0,41,42
 994 854 994 854 994 871 c 0,43,44
 994 930 994 930 951 957 c 0,45,46
 896 992 896 992 766 992 c 2,47,-1
 566 992 l 1,48,-1
 508 662 l 1,38,-1
EndSplineSet
Validated: 1048609
EndChar

StartChar: c.sc
Encoding: 65582 -1 411
Width: 1170
GlyphClass: 2
Flags: W
AnchorPoint: "Anchor-2" 623 0 basechar 0
AnchorPoint: "Anchor-0" 827 1082 basechar 0
LayerCount: 2
Fore
SplineSet
661 -17 m 0,0,1
 532 -17 532 -17 437 25 c 128,-1,2
 342 67 342 67 283.5 145 c 0,3,4
 224 222 224 222 206 330 c 0,5,6
 198 378 198 378 198 431 c 0,7,8
 198 496 198 496 211 568 c 2,9,-1
 216 596 l 2,10,11
 246 767 246 767 336 899 c 128,-1,12
 426 1031 426 1031 560.5 1106.5 c 128,-1,13
 695 1182 695 1182 859 1182 c 0,14,15
 984 1182 984 1182 1079.5 1147.5 c 128,-1,16
 1175 1113 1175 1113 1234 1052 c 1,17,-1
 1187 784 l 1,18,-1
 1037 784 l 1,19,-1
 1048 966 l 1,20,21
 1013 995 1013 995 961 1012 c 128,-1,22
 909 1029 909 1029 835 1029 c 0,23,24
 729 1029 729 1029 642 975 c 128,-1,25
 555 921 555 921 495.5 824.5 c 128,-1,26
 436 728 436 728 413 598 c 2,27,-1
 408 568 l 2,28,29
 397 504 397 504 397 449 c 0,30,31
 397 387 397 387 411 336 c 0,32,33
 438 239 438 239 510.5 187 c 128,-1,34
 583 135 583 135 693 135 c 0,35,36
 759 135 759 135 813 147.5 c 128,-1,37
 867 160 867 160 909 181 c 1,38,-1
 959 346 l 1,39,-1
 1108 346 l 1,40,-1
 1061 80 l 1,41,42
 987 36 987 36 883 9.5 c 128,-1,43
 779 -17 779 -17 661 -17 c 0,0,1
EndSplineSet
Validated: 1572865
Substitution2: "'ss05' Style Set 5 in Latin lookup 27 subtable" c.sc.ss05
Substitution2: "'aalt' Access All Alternates in Latin lookup 0 subtable" c.sc.ss05
EndChar

StartChar: d.sc
Encoding: 65588 -1 417
Width: 1235
GlyphClass: 2
Flags: W
AnchorPoint: "Anchor-4" 448 593 basechar 0
AnchorPoint: "Anchor-2" 606 0 basechar 0
AnchorPoint: "Anchor-0" 794 1082 basechar 0
LayerCount: 2
Fore
SplineSet
41 0 m 1,0,-1
 63 126 l 1,1,-1
 231 154 l 1,2,-1
 382 1010 l 1,3,-1
 224 1038 l 1,4,-1
 246 1165 l 1,5,-1
 409 1165 l 1,6,-1
 815 1165 l 2,7,8
 966 1165 966 1165 1072.5 1093 c 0,9,10
 1178 1022 1178 1022 1226 896 c 0,11,12
 1255 818 1255 818 1256 725 c 0,13,14
 1256 669 1256 669 1245 607 c 2,15,-1
 1236 557 l 2,16,17
 1207 394 1207 394 1115.5 268 c 128,-1,18
 1024 142 1024 142 892.5 71 c 128,-1,19
 761 0 761 0 610 0 c 2,20,-1
 41 0 l 1,0,-1
428 152 m 1,21,-1
 637 152 l 2,22,23
 731 152 731 152 814.5 205 c 128,-1,24
 898 258 898 258 958.5 350 c 128,-1,25
 1019 442 1019 442 1039 557 c 2,26,-1
 1048 608 l 2,27,28
 1056 656 1056 656 1056 700 c 0,29,30
 1056 762 1056 762 1040 814 c 0,31,32
 1012 906 1012 906 947 959 c 128,-1,33
 882 1012 882 1012 788 1012 c 2,34,-1
 579 1012 l 1,35,-1
 428 152 l 1,21,-1
EndSplineSet
Validated: 1572865
Substitution2: "'ss05' Style Set 5 in Latin lookup 27 subtable" d.sc.ss05
Substitution2: "'aalt' Access All Alternates in Latin lookup 0 subtable" d.sc.ss05
EndChar

StartChar: e.sc
Encoding: 65592 -1 421
Width: 1137
GlyphClass: 2
Flags: W
AnchorPoint: "Anchor-3" 1009 0 basechar 0
AnchorPoint: "Anchor-2" 569 0 basechar 0
AnchorPoint: "Anchor-0" 760 1082 basechar 0
LayerCount: 2
Fore
SplineSet
31 0 m 1,0,-1
 53 126 l 1,1,-1
 221 154 l 1,2,-1
 372 1010 l 1,3,-1
 214 1038 l 1,4,-1
 236 1165 l 1,5,-1
 1214 1165 l 1,6,-1
 1158 843 l 1,7,-1
 989 843 l 1,8,-1
 1003 1012 l 1,9,-1
 569 1012 l 1,10,-1
 512 684 l 1,11,-1
 984 684 l 1,12,-1
 956 530 l 1,13,-1
 484 530 l 1,14,-1
 418 152 l 1,15,-1
 852 152 l 1,16,-1
 898 321 l 1,17,-1
 1066 321 l 1,18,-1
 1009 0 l 1,19,-1
 31 0 l 1,0,-1
EndSplineSet
Validated: 1048577
EndChar

StartChar: f.sc
Encoding: 65610 -1 439
Width: 1096
GlyphClass: 2
Flags: W
AnchorPoint: "Anchor-2" 548 0 basechar 0
AnchorPoint: "Anchor-0" 739 1082 basechar 0
LayerCount: 2
Fore
SplineSet
31 0 m 1,0,-1
 53 126 l 1,1,-1
 221 154 l 1,2,-1
 372 1010 l 1,3,-1
 214 1038 l 1,4,-1
 236 1165 l 1,5,-1
 1216 1165 l 1,6,-1
 1160 843 l 1,7,-1
 991 843 l 1,8,-1
 1005 1012 l 1,9,-1
 569 1012 l 1,10,-1
 506 655 l 1,11,-1
 980 655 l 1,12,-1
 953 501 l 1,13,-1
 479 501 l 1,14,-1
 418 154 l 1,15,-1
 576 126 l 1,16,-1
 554 0 l 1,17,-1
 31 0 l 1,0,-1
EndSplineSet
Validated: 1048577
EndChar

StartChar: g.sc
Encoding: 65611 -1 440
Width: 1230
GlyphClass: 2
Flags: W
AnchorPoint: "Anchor-2" 617 0 basechar 0
AnchorPoint: "Anchor-0" 819 1082 basechar 0
LayerCount: 2
Fore
SplineSet
652 -17 m 0,0,1
 483 -17 483 -17 370.5 56.5 c 128,-1,2
 258 130 258 130 212 260 c 0,3,4
 184 339 184 339 184 433 c 0,5,6
 184 494 184 494 196 562 c 2,7,-1
 201 592 l 2,8,9
 232 767 232 767 324 900 c 128,-1,10
 416 1033 416 1033 549.5 1107.5 c 128,-1,11
 683 1182 683 1182 838 1182 c 0,12,13
 981 1182 981 1182 1082.5 1149.5 c 128,-1,14
 1184 1117 1184 1117 1250 1055 c 1,15,-1
 1206 808 l 1,16,-1
 1052 808 l 1,17,-1
 1057 972 l 1,18,19
 1023 999 1023 999 966 1014 c 128,-1,20
 909 1029 909 1029 832 1029 c 0,21,22
 727 1029 727 1029 637 974 c 128,-1,23
 547 919 547 919 484.5 821.5 c 128,-1,24
 422 724 422 724 399 594 c 2,25,-1
 393 562 l 2,26,27
 382 501 382 501 382 448 c 0,28,29
 382 388 382 388 396 337 c 0,30,31
 422 241 422 241 496 188 c 128,-1,32
 570 135 570 135 689 135 c 0,33,34
 766 135 766 135 826 147.5 c 128,-1,35
 886 160 886 160 930 180 c 1,36,-1
 975 434 l 1,37,-1
 759 444 l 1,38,-1
 784 585 l 1,39,-1
 1198 585 l 1,40,-1
 1114 107 l 1,41,42
 1044 55 1044 55 930 19 c 128,-1,43
 816 -17 816 -17 652 -17 c 0,0,1
EndSplineSet
Validated: 1048577
Substitution2: "'ss05' Style Set 5 in Latin lookup 27 subtable" g.sc.ss05
Substitution2: "'aalt' Access All Alternates in Latin lookup 0 subtable" g.sc.ss05
EndChar

StartChar: h.sc
Encoding: 65616 -1 445
Width: 1369
GlyphClass: 2
Flags: W
AnchorPoint: "Anchor-4" 831 831 basechar 0
AnchorPoint: "Anchor-2" 685 0 basechar 0
AnchorPoint: "Anchor-0" 876 1082 basechar 0
LayerCount: 2
Fore
SplineSet
41 0 m 1,0,-1
 63 126 l 1,1,-1
 231 154 l 1,2,-1
 382 1010 l 1,3,-1
 224 1038 l 1,4,-1
 246 1165 l 1,5,-1
 769 1165 l 1,6,-1
 747 1038 l 1,7,-1
 579 1010 l 1,8,-1
 515 644 l 1,9,-1
 1081 644 l 1,10,-1
 1145 1010 l 1,11,-1
 987 1038 l 1,12,-1
 1009 1165 l 1,13,-1
 1172 1165 l 1,14,-1
 1370 1165 l 1,15,-1
 1533 1165 l 1,16,-1
 1511 1038 l 1,17,-1
 1343 1010 l 1,18,-1
 1192 154 l 1,19,-1
 1350 126 l 1,20,-1
 1328 0 l 1,21,-1
 804 0 l 1,22,-1
 826 126 l 1,23,-1
 994 154 l 1,24,-1
 1054 491 l 1,25,-1
 488 491 l 1,26,-1
 428 154 l 1,27,-1
 586 126 l 1,28,-1
 564 0 l 1,29,-1
 41 0 l 1,0,-1
EndSplineSet
Validated: 1048577
EndChar

StartChar: i.sc
Encoding: 65619 -1 448
Width: 585
GlyphClass: 2
Flags: W
AnchorPoint: "Anchor-3" 553 0 basechar 0
AnchorPoint: "Anchor-2" 293 0 basechar 0
AnchorPoint: "Anchor-0" 484 1082 basechar 0
LayerCount: 2
Fore
SplineSet
31 0 m 1,0,-1
 53 126 l 1,1,-1
 221 154 l 1,2,-1
 372 1010 l 1,3,-1
 214 1038 l 1,4,-1
 236 1165 l 1,5,-1
 758 1165 l 1,6,-1
 736 1038 l 1,7,-1
 568 1010 l 1,8,-1
 417 154 l 1,9,-1
 575 126 l 1,10,-1
 553 0 l 1,11,-1
 31 0 l 1,0,-1
EndSplineSet
Validated: 1048577
EndChar

StartChar: j.sc
Encoding: 65631 -1 460
Width: 1081
GlyphClass: 2
Flags: W
AnchorPoint: "Anchor-2" 496 0 basechar 0
AnchorPoint: "Anchor-0" 979 1082 basechar 0
LayerCount: 2
Fore
SplineSet
481 -17 m 0,0,1
 286 -17 286 -17 188 72 c 0,2,3
 117 137 117 137 117 245 c 0,4,5
 117 285 117 285 127 331 c 1,6,-1
 130 337 l 1,7,-1
 318 337 l 1,8,9
 313 310 313 310 313 287 c 0,10,11
 312 222 312 222 350 186 c 0,12,13
 400 136 400 136 508 135 c 0,14,15
 596 135 596 135 665.5 195.5 c 128,-1,16
 735 256 735 256 752 354 c 2,17,-1
 868 1010 l 1,18,-1
 710 1038 l 1,19,-1
 732 1165 l 1,20,-1
 1254 1165 l 1,21,-1
 1232 1038 l 1,22,-1
 1064 1010 l 1,23,-1
 948 354 l 2,24,25
 928 240 928 240 862 157 c 128,-1,26
 796 74 796 74 697.5 28.5 c 128,-1,27
 599 -17 599 -17 481 -17 c 0,0,1
EndSplineSet
Validated: 1048609
EndChar

StartChar: k.sc
Encoding: 65633 -1 462
Width: 1207
GlyphClass: 2
Flags: W
AnchorPoint: "Anchor-2" 617 0 basechar 0
AnchorPoint: "Anchor-0" 818 1082 basechar 0
LayerCount: 2
Fore
SplineSet
417 308 m 1,0,-1
 344 430 l 1,1,-1
 1005 1021 l 1,2,-1
 1009 1025 l 1,3,-1
 916 1038 l 1,4,-1
 938 1165 l 1,5,-1
 1349 1165 l 1,6,-1
 1327 1038 l 1,7,-1
 1214 1011 l 1,8,-1
 417 308 l 1,0,-1
30 0 m 1,9,-1
 52 126 l 1,10,-1
 220 154 l 1,11,-1
 371 1010 l 1,12,-1
 213 1038 l 1,13,-1
 235 1165 l 1,14,-1
 748 1165 l 1,15,-1
 726 1038 l 1,16,-1
 568 1010 l 1,17,-1
 417 154 l 1,18,-1
 565 126 l 1,19,-1
 543 0 l 1,20,-1
 30 0 l 1,9,-1
746 0 m 1,21,-1
 768 126 l 1,22,-1
 864 139 l 1,23,-1
 862 142 l 1,24,-1
 629 603 l 1,25,-1
 763 759 l 1,26,-1
 1094 152 l 1,27,-1
 1210 126 l 1,28,-1
 1188 0 l 1,29,-1
 746 0 l 1,21,-1
EndSplineSet
Validated: 1048581
Substitution2: "'ss05' Style Set 5 in Latin lookup 27 subtable" k.sc.ss05
Substitution2: "'aalt' Access All Alternates in Latin lookup 0 subtable" k.sc.ss05
EndChar

StartChar: l.sc
Encoding: 65635 -1 464
Width: 1023
GlyphClass: 2
Flags: W
AnchorPoint: "Anchor-4" 418 591 basechar 0
AnchorPoint: "Anchor-2" 512 0 basechar 0
AnchorPoint: "Anchor-1" 1080 1165 basechar 0
AnchorPoint: "Anchor-0" 500 1082 basechar 0
LayerCount: 2
Fore
SplineSet
31 0 m 1,0,-1
 53 126 l 1,1,-1
 221 154 l 1,2,-1
 372 1010 l 1,3,-1
 214 1038 l 1,4,-1
 236 1165 l 1,5,-1
 399 1165 l 1,6,-1
 596 1165 l 1,7,-1
 759 1165 l 1,8,-1
 737 1038 l 1,9,-1
 569 1010 l 1,10,-1
 418 152 l 1,11,-1
 808 152 l 1,12,-1
 854 321 l 1,13,-1
 1022 321 l 1,14,-1
 965 0 l 1,15,-1
 31 0 l 1,0,-1
EndSplineSet
Validated: 1048577
EndChar

StartChar: m.sc
Encoding: 65641 -1 470
Width: 1601
GlyphClass: 2
Flags: W
AnchorPoint: "Anchor-2" 801 0 basechar 0
AnchorPoint: "Anchor-0" 992 1082 basechar 0
LayerCount: 2
Fore
SplineSet
31 0 m 1,0,-1
 53 126 l 1,1,-1
 221 154 l 1,2,-1
 372 1010 l 1,3,-1
 214 1038 l 1,4,-1
 236 1165 l 1,5,-1
 399 1165 l 1,6,-1
 653 1165 l 1,7,-1
 846 259 l 1,8,-1
 852 259 l 1,9,-1
 1365 1165 l 1,10,-1
 1611 1165 l 1,11,-1
 1774 1165 l 1,12,-1
 1752 1038 l 1,13,-1
 1584 1010 l 1,14,-1
 1433 154 l 1,15,-1
 1591 126 l 1,16,-1
 1569 0 l 1,17,-1
 1046 0 l 1,18,-1
 1068 126 l 1,19,-1
 1236 154 l 1,20,-1
 1352 809 l 1,21,-1
 1346 811 l 1,22,-1
 871 0 l 1,23,-1
 735 0 l 1,24,-1
 543 829 l 1,25,-1
 537 827 l 1,26,-1
 418 154 l 1,27,-1
 576 126 l 1,28,-1
 554 0 l 1,29,-1
 31 0 l 1,0,-1
EndSplineSet
Validated: 1048577
EndChar

StartChar: n.sc
Encoding: 65643 -1 472
Width: 1378
GlyphClass: 2
Flags: W
AnchorPoint: "Anchor-2" 689 0 basechar 0
AnchorPoint: "Anchor-0" 880 1082 basechar 0
LayerCount: 2
Fore
SplineSet
31 0 m 1,0,-1
 53 126 l 1,1,-1
 221 154 l 1,2,-1
 372 1010 l 1,3,-1
 214 1038 l 1,4,-1
 236 1165 l 1,5,-1
 399 1165 l 1,6,-1
 596 1165 l 1,7,-1
 1035 306 l 1,8,-1
 1041 308 l 1,9,-1
 1165 1010 l 1,10,-1
 1007 1038 l 1,11,-1
 1029 1165 l 1,12,-1
 1388 1165 l 1,13,-1
 1551 1165 l 1,14,-1
 1529 1038 l 1,15,-1
 1361 1010 l 1,16,-1
 1183 0 l 1,17,-1
 987 0 l 1,18,-1
 548 859 l 1,19,-1
 542 857 l 1,20,-1
 418 154 l 1,21,-1
 576 126 l 1,22,-1
 554 0 l 1,23,-1
 31 0 l 1,0,-1
EndSplineSet
Validated: 1048577
EndChar

StartChar: eng.sc
Encoding: 65648 -1 477
Width: 1369
GlyphClass: 1
Flags: W
LayerCount: 2
Fore
SplineSet
788 -437 m 0,0,1
 756 -437 756 -437 730.5 -432.5 c 128,-1,2
 705 -428 705 -428 678 -419 c 1,3,-1
 720 -259 l 1,4,5
 732 -264 732 -264 765.5 -267.5 c 128,-1,6
 799 -271 799 -271 817 -271 c 0,7,8
 878 -271 878 -271 920.5 -224 c 128,-1,9
 963 -177 963 -177 978 -89 c 2,10,-1
 994 0 l 1,11,-1
 532 864 l 1,12,-1
 527 863 l 1,13,-1
 400 144 l 1,14,-1
 542 121 l 1,15,-1
 521 0 l 1,16,-1
 31 0 l 1,17,-1
 52 121 l 1,18,-1
 203 144 l 1,19,-1
 358 1020 l 1,20,-1
 215 1043 l 1,21,-1
 236 1165 l 1,22,-1
 580 1165 l 1,23,-1
 1041 300 l 1,24,-1
 1047 302 l 1,25,-1
 1174 1020 l 1,26,-1
 1031 1043 l 1,27,-1
 1052 1165 l 1,28,-1
 1542 1165 l 1,29,-1
 1521 1043 l 1,30,-1
 1371 1020 l 1,31,-1
 1175 -89 l 2,32,33
 1146 -256 1146 -256 1043.5 -346.5 c 128,-1,34
 941 -437 941 -437 788 -437 c 0,0,1
EndSplineSet
Validated: 1
EndChar

StartChar: o.sc
Encoding: 65649 -1 478
Width: 1227
GlyphClass: 2
Flags: W
AnchorPoint: "Anchor-4" 717 583 basechar 0
AnchorPoint: "Anchor-3" 946 0 basechar 0
AnchorPoint: "Anchor-2" 614 0 basechar 0
AnchorPoint: "Anchor-1" 1305 1082 basechar 0
AnchorPoint: "Anchor-0" 805 1082 basechar 0
LayerCount: 2
Fore
SplineSet
611 -17 m 0,0,1
 457 -17 457 -17 351.5 55 c 128,-1,2
 246 127 246 127 203 256 c 0,3,4
 178 332 178 332 178 422 c 0,5,6
 178 485 178 485 190 555 c 2,7,-1
 199 609 l 2,8,9
 229 779 229 779 317.5 907.5 c 128,-1,10
 406 1036 406 1036 536 1108.5 c 128,-1,11
 666 1181 666 1181 820 1181 c 0,12,13
 975 1181 975 1181 1080 1108.5 c 0,14,15
 1184 1036 1184 1036 1228 908 c 0,16,17
 1254 832 1254 832 1254 741 c 0,18,19
 1254 679 1254 679 1242 609 c 2,20,-1
 1233 555 l 2,21,22
 1203 385 1203 385 1114 256 c 128,-1,23
 1025 127 1025 127 895.5 55 c 128,-1,24
 766 -17 766 -17 611 -17 c 0,0,1
638 135 m 0,25,26
 739 135 739 135 820 185 c 128,-1,27
 901 235 901 235 957 329 c 128,-1,28
 1013 423 1013 423 1036 555 c 2,29,-1
 1046 610 l 2,30,31
 1058 676 1058 676 1058 732 c 128,-1,32
 1058 788 1058 788 1046 834 c 0,33,34
 1023 928 1023 928 958.5 978 c 128,-1,35
 894 1028 894 1028 793 1028 c 0,36,37
 693 1028 693 1028 612 978 c 128,-1,38
 531 928 531 928 475.5 834.5 c 128,-1,39
 420 741 420 741 397 610 c 2,40,-1
 387 555 l 2,41,42
 375 488 375 488 375 431 c 0,43,44
 374 375 374 375 386 329 c 0,45,46
 408 235 408 235 473 185 c 128,-1,47
 538 135 538 135 638 135 c 0,25,26
EndSplineSet
Validated: 524321
Substitution2: "'ss05' Style Set 5 in Latin lookup 27 subtable" o.sc.ss05
Substitution2: "'aalt' Access All Alternates in Latin lookup 0 subtable" o.sc.ss05
EndChar

StartChar: oe.sc
Encoding: 65673 -1 502
Width: 1741
GlyphClass: 2
Flags: W
AnchorPoint: "Anchor-2" 887 0 basechar 0
AnchorPoint: "Anchor-0" 1092 1165 basechar 0
LayerCount: 2
Fore
SplineSet
640 -17 m 0,0,1
 465 -17 465 -17 355 59.5 c 128,-1,2
 245 136 245 136 204 270 c 0,3,4
 180 347 180 347 180 436 c 0,5,6
 180 502 180 502 193 574 c 2,7,-1
 196 591 l 2,8,9
 226 763 226 763 314.5 896.5 c 128,-1,10
 403 1030 403 1030 540 1106.5 c 128,-1,11
 677 1183 677 1183 852 1183 c 0,12,13
 984 1183 984 1183 1137 1138 c 1,14,-1
 1102 941 l 1,15,16
 1044 981 1044 981 972.5 1003 c 128,-1,17
 901 1025 901 1025 824 1025 c 0,18,19
 705 1025 705 1025 616.5 970 c 128,-1,20
 528 915 528 915 472.5 818 c 128,-1,21
 417 721 417 721 395 593 c 2,22,-1
 391 574 l 2,23,24
 379 507 379 507 379 449 c 0,25,26
 380 394 380 394 390 347 c 0,27,28
 412 249 412 249 480.5 194.5 c 128,-1,29
 549 140 549 140 668 140 c 0,30,31
 745 140 745 140 824 160.5 c 128,-1,32
 903 181 903 181 974 218 c 1,33,-1
 941 27 l 1,34,35
 859 6 859 6 783.5 -5.5 c 128,-1,36
 708 -17 708 -17 640 -17 c 0,0,1
748 0 m 1,37,-1
 822 138 l 1,38,-1
 979 1025 l 1,39,-1
 953 1165 l 1,40,-1
 1812 1165 l 1,41,-1
 1759 864 l 1,42,-1
 1599 864 l 1,43,-1
 1613 1012 l 1,44,-1
 1173 1012 l 1,45,-1
 1115 679 l 1,46,-1
 1556 679 l 1,47,-1
 1529 526 l 1,48,-1
 1088 526 l 1,49,-1
 1022 152 l 1,50,-1
 1469 152 l 1,51,-1
 1507 299 l 1,52,-1
 1666 299 l 1,53,-1
 1613 0 l 1,54,-1
 748 0 l 1,37,-1
EndSplineSet
Validated: 1048581
EndChar

StartChar: p.sc
Encoding: 65674 -1 503
Width: 1162
GlyphClass: 2
Flags: W
AnchorPoint: "Anchor-2" 307 0 basechar 0
AnchorPoint: "Anchor-0" 813 1082 basechar 0
LayerCount: 2
Fore
SplineSet
41 0 m 1,0,-1
 63 126 l 1,1,-1
 230 154 l 1,2,-1
 381 1010 l 1,3,-1
 224 1038 l 1,4,-1
 246 1165 l 1,5,-1
 408 1165 l 1,6,-1
 875 1165 l 2,7,8
 1010 1165 1010 1165 1099.5 1117.5 c 128,-1,9
 1189 1070 1189 1070 1227 986 c 0,10,11
 1252 930 1252 930 1252 862 c 0,12,13
 1252 828 1252 828 1246 792 c 256,14,15
 1227 682 1227 682 1159 598 c 128,-1,16
 1091 514 1091 514 985 467 c 128,-1,17
 879 420 879 420 744 420 c 2,18,-1
 475 420 l 1,19,-1
 428 154 l 1,20,-1
 586 126 l 1,21,-1
 564 0 l 1,22,-1
 41 0 l 1,0,-1
502 574 m 1,23,-1
 771 574 l 2,24,25
 888 574 888 574 959 637 c 128,-1,26
 1030 700 1030 700 1046 790 c 0,27,28
 1050 813 1050 813 1050 834 c 0,29,30
 1050 898 1050 898 1014 947 c 0,31,32
 966 1012 966 1012 848 1012 c 2,33,-1
 579 1012 l 1,34,-1
 502 574 l 1,23,-1
EndSplineSet
Validated: 1048577
EndChar

StartChar: thorn.sc
Encoding: 65675 -1 504
Width: 1084
GlyphClass: 2
Flags: W
AnchorPoint: "Anchor-2" 303 0 basechar 0
AnchorPoint: "Anchor-0" 494 1082 basechar 0
LayerCount: 2
Fore
SplineSet
41 0 m 1,0,-1
 63 126 l 1,1,-1
 231 154 l 1,2,-1
 382 1010 l 1,3,-1
 224 1038 l 1,4,-1
 246 1165 l 1,5,-1
 769 1165 l 1,6,-1
 747 1038 l 1,7,-1
 579 1010 l 1,8,-1
 428 154 l 1,9,-1
 586 126 l 1,10,-1
 564 0 l 1,11,-1
 41 0 l 1,0,-1
472 917 m 1,12,-1
 840 917 l 2,13,14
 1025 917 1025 917 1115 824 c 0,15,16
 1185 752 1185 752 1185 647 c 0,17,18
 1185 617 1185 617 1179 584 c 256,19,20
 1153 437 1153 437 1030 344.5 c 128,-1,21
 907 252 907 252 722 252 c 2,22,-1
 354 252 l 1,23,-1
 382 406 l 1,24,-1
 750 406 l 2,25,26
 848 406 848 406 907.5 457.5 c 128,-1,27
 967 509 967 509 980 582 c 0,28,29
 983 600 983 600 983 617 c 0,30,31
 983 670 983 670 952 711 c 0,32,33
 911 764 911 764 813 764 c 2,34,-1
 445 764 l 1,35,-1
 472 917 l 1,12,-1
EndSplineSet
Validated: 1048581
EndChar

StartChar: q.sc
Encoding: 65676 -1 505
Width: 1251
GlyphClass: 2
Flags: W
AnchorPoint: "Anchor-2" 626 0 basechar 0
AnchorPoint: "Anchor-0" 817 1082 basechar 0
LayerCount: 2
Fore
SplineSet
966 -213 m 1,0,-1
 722 -7 l 1,1,2
 693 -11 693 -11 665.5 -14 c 128,-1,3
 638 -17 638 -17 611 -17 c 0,4,5
 457 -17 457 -17 351.5 55 c 128,-1,6
 246 127 246 127 203 256 c 0,7,8
 178 332 178 332 178 422 c 0,9,10
 178 485 178 485 190 555 c 2,11,-1
 199 609 l 2,12,13
 229 779 229 779 317.5 907.5 c 128,-1,14
 406 1036 406 1036 536 1108.5 c 128,-1,15
 666 1181 666 1181 820 1181 c 0,16,17
 975 1181 975 1181 1080 1108.5 c 0,18,19
 1184 1036 1184 1036 1228 908 c 0,20,21
 1254 832 1254 832 1254 741 c 0,22,23
 1254 679 1254 679 1242 609 c 2,24,-1
 1233 555 l 2,25,26
 1203 387 1203 387 1115.5 258 c 128,-1,27
 1028 129 1028 129 900 58 c 1,28,-1
 1134 -87 l 1,29,-1
 966 -213 l 1,0,-1
638 135 m 256,30,31
 789 135 789 135 895 246 c 128,-1,32
 1001 357 1001 357 1036 555 c 2,33,-1
 1046 610 l 2,34,35
 1058 676 1058 676 1058 733 c 0,36,37
 1058 844 1058 844 1012 917 c 0,38,39
 944 1028 944 1028 793 1028 c 256,40,41
 642 1028 642 1028 536.5 917 c 128,-1,42
 431 806 431 806 397 610 c 2,43,-1
 387 555 l 2,44,45
 375 487 375 487 375 430 c 0,46,47
 376 319 376 319 420 246 c 0,48,49
 488 135 488 135 638 135 c 256,30,31
EndSplineSet
Validated: 1572865
Substitution2: "'ss05' Style Set 5 in Latin lookup 27 subtable" q.sc.ss05
Substitution2: "'aalt' Access All Alternates in Latin lookup 0 subtable" q.sc.ss05
EndChar

StartChar: r.sc
Encoding: 65677 -1 506
Width: 1183
GlyphClass: 2
Flags: W
AnchorPoint: "Anchor-2" 592 0 basechar 0
AnchorPoint: "Anchor-0" 783 1082 basechar 0
LayerCount: 2
Fore
SplineSet
31 0 m 1,0,-1
 53 126 l 1,1,-1
 221 154 l 1,2,-1
 372 1010 l 1,3,-1
 214 1038 l 1,4,-1
 236 1165 l 1,5,-1
 399 1165 l 1,6,-1
 846 1165 l 2,7,8
 983 1165 983 1165 1072 1123.5 c 0,9,10
 1162 1082 1162 1082 1198 1004 c 0,11,12
 1222 953 1222 953 1222 887 c 0,13,14
 1222 853 1222 853 1215 815 c 0,15,16
 1198 717 1198 717 1134 641 c 128,-1,17
 1070 565 1070 565 966 522 c 128,-1,18
 862 479 862 479 725 479 c 2,19,-1
 475 479 l 1,20,-1
 418 154 l 1,21,-1
 576 126 l 1,22,-1
 554 0 l 1,23,-1
 31 0 l 1,0,-1
864 0 m 1,24,-1
 729 551 l 1,25,-1
 926 552 l 1,26,-1
 1037 145 l 1,27,-1
 1143 126 l 1,28,-1
 1121 0 l 1,29,-1
 864 0 l 1,24,-1
503 633 m 1,30,-1
 753 633 l 2,31,32
 873 633 873 633 937 680 c 128,-1,33
 1001 727 1001 727 1017 815 c 0,34,35
 1021 838 1021 838 1021 859 c 0,36,37
 1022 920 1022 920 986 960 c 0,38,39
 938 1012 938 1012 819 1012 c 2,40,-1
 569 1012 l 1,41,-1
 503 633 l 1,30,-1
EndSplineSet
Validated: 1572901
Substitution2: "'ss05' Style Set 5 in Latin lookup 27 subtable" r.sc.ss05
Substitution2: "'aalt' Access All Alternates in Latin lookup 0 subtable" r.sc.ss05
EndChar

StartChar: s.sc
Encoding: 65681 -1 510
Width: 1101
GlyphClass: 2
Flags: W
AnchorPoint: "Anchor-2" 551 0 basechar 0
AnchorPoint: "Anchor-0" 742 1082 basechar 0
LayerCount: 2
Fore
SplineSet
548 -17 m 0,0,1
 426 -17 426 -17 320.5 13 c 128,-1,2
 215 43 215 43 125 111 c 1,3,-1
 171 377 l 1,4,-1
 324 377 l 1,5,-1
 322 203 l 1,6,7
 369 172 369 172 432.5 153.5 c 128,-1,8
 496 135 496 135 575 135 c 0,9,10
 698 135 698 135 773.5 181 c 128,-1,11
 849 227 849 227 862 303 c 0,12,13
 865 317 865 317 865 331 c 0,14,15
 864 388 864 388 820 424 c 0,16,17
 766 470 766 470 619 506 c 0,18,19
 489 539 489 539 404 586 c 0,20,21
 318 632 318 632 282 700 c 0,22,23
 257 746 257 746 258 804 c 0,24,25
 258 831 258 831 263 860 c 256,26,27
 279 952 279 952 345 1024.5 c 128,-1,28
 411 1097 411 1097 515 1139.5 c 128,-1,29
 619 1182 619 1182 749 1182 c 0,30,31
 753 1182 753 1182 757 1182 c 0,32,33
 892 1182 892 1182 988 1148 c 0,34,35
 1088 1112 1088 1112 1149 1056 c 1,36,-1
 1105 807 l 1,37,-1
 954 807 l 1,38,-1
 952 970 l 1,39,40
 919 994 919 994 864 1011 c 128,-1,41
 809 1028 809 1028 726 1028 c 0,42,43
 621 1028 621 1028 546.5 982 c 128,-1,44
 472 936 472 936 459 861 c 0,45,46
 457 849 457 849 457 837 c 0,47,48
 458 808 458 808 472 784 c 0,49,50
 492 750 492 750 550 723 c 128,-1,51
 608 696 608 696 710 669 c 0,52,53
 908 618 908 618 996 530 c 0,54,55
 1066 460 1066 460 1065 361 c 0,56,57
 1065 334 1065 334 1060 305 c 0,58,59
 1043 208 1043 208 973.5 135.5 c 128,-1,60
 904 63 904 63 795 23 c 128,-1,61
 686 -17 686 -17 548 -17 c 0,0,1
EndSplineSet
Validated: 1048609
Substitution2: "'ss05' Style Set 5 in Latin lookup 27 subtable" s.sc.ss05
Substitution2: "'aalt' Access All Alternates in Latin lookup 0 subtable" s.sc.ss05
EndChar

StartChar: t.sc
Encoding: 65688 -1 517
Width: 1175
GlyphClass: 2
Flags: W
AnchorPoint: "Anchor-4" 682 577 basechar 0
AnchorPoint: "Anchor-2" 580 0 basechar 0
AnchorPoint: "Anchor-0" 771 1082 basechar 0
LayerCount: 2
Fore
SplineSet
319 0 m 1,0,-1
 341 126 l 1,1,-1
 509 154 l 1,2,-1
 660 1012 l 1,3,-1
 412 1012 l 1,4,-1
 369 843 l 1,5,-1
 200 843 l 1,6,-1
 256 1165 l 1,7,-1
 1321 1165 l 1,8,-1
 1265 843 l 1,9,-1
 1097 843 l 1,10,-1
 1111 1012 l 1,11,-1
 857 1012 l 1,12,-1
 706 154 l 1,13,-1
 864 126 l 1,14,-1
 842 0 l 1,15,-1
 319 0 l 1,0,-1
EndSplineSet
Validated: 1048577
EndChar

StartChar: u.sc
Encoding: 65692 -1 521
Width: 1371
GlyphClass: 2
Flags: W
AnchorPoint: "Anchor-3" 834 0 basechar 0
AnchorPoint: "Anchor-2" 686 0 basechar 0
AnchorPoint: "Anchor-1" 1540 1082 basechar 0
AnchorPoint: "Anchor-0" 877 1082 basechar 0
LayerCount: 2
Fore
SplineSet
682 -17 m 256,0,1
 534 -17 534 -17 429.5 32.5 c 0,2,3
 326 82 326 82 278 175 c 0,4,5
 246 238 246 238 245 317 c 0,6,7
 245 355 245 355 253 398 c 2,8,-1
 361 1010 l 1,9,-1
 203 1038 l 1,10,-1
 225 1165 l 1,11,-1
 748 1165 l 1,12,-1
 726 1038 l 1,13,-1
 558 1010 l 1,14,-1
 450 398 l 2,15,16
 445 371 445 371 445 346 c 0,17,18
 445 296 445 296 464 257 c 0,19,20
 492 198 492 198 555.5 166.5 c 128,-1,21
 619 135 619 135 709 135 c 0,22,23
 801 135 801 135 875 166.5 c 128,-1,24
 949 198 949 198 997.5 257 c 128,-1,25
 1046 316 1046 316 1060 398 c 2,26,-1
 1168 1010 l 1,27,-1
 1010 1038 l 1,28,-1
 1032 1165 l 1,29,-1
 1554 1165 l 1,30,-1
 1532 1038 l 1,31,-1
 1364 1010 l 1,32,-1
 1256 398 l 2,33,34
 1233 268 1233 268 1153 175 c 128,-1,35
 1073 82 1073 82 951.5 32.5 c 128,-1,36
 830 -17 830 -17 682 -17 c 256,0,1
EndSplineSet
Validated: 1572865
EndChar

StartChar: uhorn.sc
Encoding: 65700 -1 529
Width: 1509
GlyphClass: 2
Flags: W
AnchorPoint: "Anchor-2" 686 0 basechar 0
AnchorPoint: "Anchor-0" 877 1082 basechar 0
LayerCount: 2
Fore
SplineSet
682 -17 m 256,0,1
 534 -17 534 -17 429.5 32.5 c 0,2,3
 326 82 326 82 278 175 c 0,4,5
 246 238 246 238 245 317 c 0,6,7
 245 355 245 355 253 398 c 2,8,-1
 361 1010 l 1,9,-1
 203 1038 l 1,10,-1
 225 1165 l 1,11,-1
 748 1165 l 1,12,-1
 726 1038 l 1,13,-1
 558 1010 l 1,14,-1
 450 398 l 2,15,16
 445 371 445 371 445 346 c 0,17,18
 445 296 445 296 464 257 c 0,19,20
 492 198 492 198 555.5 166.5 c 128,-1,21
 619 135 619 135 709 135 c 0,22,23
 801 135 801 135 875 166.5 c 128,-1,24
 949 198 949 198 997.5 257 c 128,-1,25
 1046 316 1046 316 1060 398 c 2,26,-1
 1168 1010 l 1,27,-1
 1010 1038 l 1,28,-1
 1032 1165 l 1,29,-1
 1391 1165 l 1,30,-1
 1256 398 l 2,31,32
 1233 268 1233 268 1153 175 c 128,-1,33
 1073 82 1073 82 951.5 32.5 c 128,-1,34
 830 -17 830 -17 682 -17 c 256,0,1
1310 839 m 1,35,-1
 1330 959 l 1,36,37
 1413 959 1413 959 1458 986.5 c 128,-1,38
 1503 1014 1503 1014 1525 1068 c 128,-1,39
 1547 1122 1547 1122 1561 1201 c 1,40,-1
 1719 1201 l 1,41,42
 1700 1094 1700 1094 1654.5 1012.5 c 128,-1,43
 1609 931 1609 931 1526 885 c 128,-1,44
 1443 839 1443 839 1310 839 c 1,35,-1
EndSplineSet
Validated: 1572869
EndChar

StartChar: v.sc
Encoding: 65711 -1 540
Width: 1265
GlyphClass: 2
Flags: W
AnchorPoint: "Anchor-2" 633 0 basechar 0
AnchorPoint: "Anchor-0" 824 1082 basechar 0
LayerCount: 2
Fore
SplineSet
539 0 m 1,0,-1
 311 1022 l 1,1,-1
 203 1038 l 1,2,-1
 225 1165 l 1,3,-1
 653 1165 l 1,4,-1
 631 1038 l 1,5,-1
 519 1019 l 1,6,-1
 658 297 l 1,7,-1
 667 215 l 1,8,-1
 673 215 l 1,9,-1
 710 295 l 1,10,-1
 1105 1019 l 1,11,-1
 999 1038 l 1,12,-1
 1021 1165 l 1,13,-1
 1449 1165 l 1,14,-1
 1427 1038 l 1,15,-1
 1312 1022 l 1,16,-1
 724 0 l 1,17,-1
 539 0 l 1,0,-1
EndSplineSet
Validated: 1048577
EndChar

StartChar: w.sc
Encoding: 65712 -1 541
Width: 1786
GlyphClass: 2
Flags: W
AnchorPoint: "Anchor-2" 893 0 basechar 0
AnchorPoint: "Anchor-0" 1098 1165 basechar 0
LayerCount: 2
Fore
SplineSet
433 0 m 1,0,-1
 306 1025 l 1,1,-1
 223 1038 l 1,2,-1
 245 1165 l 1,3,-1
 639 1165 l 1,4,-1
 617 1038 l 1,5,-1
 499 1015 l 1,6,-1
 562 352 l 1,7,-1
 573 264 l 1,8,-1
 575 266 l 1,9,-1
 623 365 l 1,10,-1
 1007 1165 l 1,11,-1
 1192 1165 l 1,12,-1
 1294 367 l 1,13,-1
 1308 264 l 1,14,-1
 1310 266 l 1,15,-1
 1361 379 l 1,16,-1
 1645 1015 l 1,17,-1
 1536 1038 l 1,18,-1
 1558 1165 l 1,19,-1
 1951 1165 l 1,20,-1
 1929 1038 l 1,21,-1
 1842 1025 l 1,22,-1
 1354 0 l 1,23,-1
 1171 0 l 1,24,-1
 1069 812 l 1,25,-1
 1055 895 l 1,26,-1
 1049 895 l 1,27,-1
 1007 817 l 1,28,-1
 615 0 l 1,29,-1
 433 0 l 1,0,-1
EndSplineSet
Validated: 1048577
EndChar

StartChar: x.sc
Encoding: 65717 -1 546
Width: 1162
GlyphClass: 2
Flags: W
AnchorPoint: "Anchor-2" 581 0 basechar 0
AnchorPoint: "Anchor-0" 772 1082 basechar 0
LayerCount: 2
Fore
SplineSet
32 0 m 1,0,-1
 54 126 l 1,1,-1
 184 147 l 1,2,-1
 563 588 l 1,3,-1
 346 1016 l 1,4,-1
 225 1038 l 1,5,-1
 247 1165 l 1,6,-1
 666 1165 l 1,7,-1
 644 1038 l 1,8,-1
 567 1025 l 1,9,-1
 701 732 l 1,10,-1
 941 1025 l 1,11,-1
 870 1038 l 1,12,-1
 892 1165 l 1,13,-1
 1313 1165 l 1,14,-1
 1291 1038 l 1,15,-1
 1161 1016 l 1,16,-1
 795 588 l 1,17,-1
 1017 147 l 1,18,-1
 1139 126 l 1,19,-1
 1117 0 l 1,20,-1
 699 0 l 1,21,-1
 721 126 l 1,22,-1
 796 138 l 1,23,-1
 653 442 l 1,24,-1
 403 138 l 1,25,-1
 475 126 l 1,26,-1
 453 0 l 1,27,-1
 32 0 l 1,0,-1
EndSplineSet
Validated: 1048577
EndChar

StartChar: y.sc
Encoding: 65718 -1 547
Width: 1195
GlyphClass: 2
Flags: W
AnchorPoint: "Anchor-2" 598 0 basechar 0
AnchorPoint: "Anchor-0" 789 1082 basechar 0
LayerCount: 2
Fore
SplineSet
333 0 m 1,0,-1
 355 126 l 1,1,-1
 523 154 l 1,2,-1
 570 419 l 1,3,-1
 337 1018 l 1,4,-1
 203 1038 l 1,5,-1
 225 1165 l 1,6,-1
 663 1165 l 1,7,-1
 641 1038 l 1,8,-1
 549 1023 l 1,9,-1
 695 603 l 1,10,-1
 701 589 l 1,11,-1
 703 592 l 1,12,-1
 712 604 l 1,13,-1
 1005 1023 l 1,14,-1
 920 1038 l 1,15,-1
 942 1165 l 1,16,-1
 1379 1165 l 1,17,-1
 1357 1038 l 1,18,-1
 1217 1018 l 1,19,-1
 765 410 l 1,20,-1
 720 154 l 1,21,-1
 878 126 l 1,22,-1
 856 0 l 1,23,-1
 333 0 l 1,0,-1
EndSplineSet
Validated: 1048577
EndChar

StartChar: z.sc
Encoding: 65726 -1 555
Width: 1089
GlyphClass: 2
Flags: W
AnchorPoint: "Anchor-2" 545 0 basechar 0
AnchorPoint: "Anchor-0" 736 1082 basechar 0
LayerCount: 2
Fore
SplineSet
79 0 m 1,0,-1
 100 118 l 1,1,-1
 898 1012 l 1,2,-1
 474 1012 l 1,3,-1
 430 843 l 1,4,-1
 262 843 l 1,5,-1
 318 1165 l 1,6,-1
 1166 1165 l 1,7,-1
 1146 1051 l 1,8,-1
 345 152 l 1,9,-1
 827 152 l 1,10,-1
 873 321 l 1,11,-1
 1041 321 l 1,12,-1
 984 0 l 1,13,-1
 79 0 l 1,0,-1
EndSplineSet
Validated: 1048577
EndChar

StartChar: c.sc.ss05
Encoding: 65730 -1 559
Width: 1170
GlyphClass: 1
Flags: W
LayerCount: 2
Fore
SplineSet
612 -17 m 0,0,1
 467 -17 467 -17 365 52 c 0,2,3
 263 122 263 122 221 250 c 0,4,5
 197 324 197 324 197 413 c 0,6,7
 197 479 197 479 210 555 c 2,8,-1
 216 590 l 2,9,10
 248 773 248 773 336.5 905.5 c 128,-1,11
 425 1038 425 1038 551 1109.5 c 128,-1,12
 677 1181 677 1181 823 1181 c 0,13,14
 1026 1182 1026 1182 1130 1080 c 0,15,16
 1207 1005 1207 1005 1207 883 c 0,17,18
 1207 840 1207 840 1197 791 c 1,19,-1
 1194 785 l 1,20,-1
 1004 785 l 1,21,22
 1010 818 1010 818 1010 847 c 0,23,24
 1010 923 1010 923 970 967 c 0,25,26
 914 1028 914 1028 796 1028 c 0,27,28
 662 1028 662 1028 555 909 c 128,-1,29
 448 790 448 790 413 591 c 2,30,-1
 407 555 l 2,31,32
 395 490 395 490 395 434 c 0,33,34
 395 326 395 326 439 250 c 0,35,36
 505 136 505 136 639 135 c 0,37,38
 718 135 718 135 778 162 c 128,-1,39
 838 189 838 189 878 244 c 128,-1,40
 918 299 918 299 932 381 c 1,41,-1
 1122 381 l 1,42,-1
 1123 375 l 1,43,44
 1104 249 1104 249 1032.5 161.5 c 128,-1,45
 961 74 961 74 852.5 28.5 c 128,-1,46
 744 -17 744 -17 612 -17 c 0,0,1
EndSplineSet
Validated: 33
EndChar

StartChar: d.sc.ss05
Encoding: 65731 -1 560
Width: 1235
GlyphClass: 1
Flags: W
LayerCount: 2
Fore
SplineSet
31 0 m 1,0,-1
 53 126 l 1,1,-1
 221 154 l 1,2,-1
 372 1010 l 1,3,-1
 214 1038 l 1,4,-1
 236 1165 l 1,5,-1
 399 1165 l 1,6,-1
 820 1165 l 2,7,8
 961 1165 961 1165 1063.5 1103.5 c 128,-1,9
 1166 1042 1166 1042 1213 934 c 0,10,11
 1244 864 1244 864 1244 780 c 0,12,13
 1244 735 1244 735 1235 687 c 2,14,-1
 1198 477 l 2,15,16
 1173 337 1173 337 1088.5 229.5 c 128,-1,17
 1004 122 1004 122 880 61 c 128,-1,18
 756 0 756 0 615 0 c 2,19,-1
 31 0 l 1,0,-1
418 152 m 1,20,-1
 642 152 l 2,21,22
 726 152 726 152 802 194.5 c 128,-1,23
 878 237 878 237 931.5 311 c 128,-1,24
 985 385 985 385 1001 477 c 2,25,-1
 1038 688 l 2,26,27
 1044 722 1044 722 1044 753 c 0,28,29
 1044 807 1044 807 1026 853 c 0,30,31
 998 926 998 926 937.5 969 c 128,-1,32
 877 1012 877 1012 793 1012 c 2,33,-1
 569 1012 l 1,34,-1
 418 152 l 1,20,-1
EndSplineSet
Validated: 1
EndChar

StartChar: g.sc.ss05
Encoding: 65732 -1 561
Width: 1235
GlyphClass: 1
Flags: W
LayerCount: 2
Fore
SplineSet
628 -17 m 0,0,1
 474 -17 474 -17 369.5 52.5 c 0,2,3
 266 122 266 122 222 247 c 0,4,5
 196 322 196 322 195 411 c 0,6,7
 195 470 195 470 207 536 c 2,8,-1
 223 628 l 2,9,10
 252 791 252 791 337 915.5 c 128,-1,11
 422 1040 422 1040 546.5 1110.5 c 128,-1,12
 671 1181 671 1181 815 1181 c 0,13,14
 1046 1180 1046 1180 1156 1080 c 0,15,16
 1240 1003 1240 1003 1239 894 c 0,17,18
 1239 860 1239 860 1231 823 c 1,19,-1
 1228 817 l 1,20,-1
 1042 817 l 1,21,22
 1046 838 1046 838 1046 857 c 0,23,24
 1046 929 1046 929 992 973 c 0,25,26
 924 1028 924 1028 788 1028 c 0,27,28
 701 1028 701 1028 624.5 975.5 c 128,-1,29
 548 923 548 923 494 833 c 128,-1,30
 440 743 440 743 420 629 c 2,31,-1
 404 536 l 2,32,33
 395 483 395 483 395 435 c 0,34,35
 396 380 396 380 408 330 c 0,36,37
 432 240 432 240 495 187.5 c 128,-1,38
 558 135 558 135 655 135 c 0,39,40
 760 135 760 135 832 156 c 128,-1,41
 904 177 904 177 940 204 c 1,42,-1
 984 454 l 1,43,-1
 725 454 l 1,44,-1
 752 608 l 1,45,-1
 1206 608 l 1,46,-1
 1127 157 l 1,47,48
 1070 92 1070 92 939 37.5 c 128,-1,49
 808 -17 808 -17 628 -17 c 0,0,1
EndSplineSet
Validated: 524321
EndChar

StartChar: k.sc.ss05
Encoding: 65733 -1 562
Width: 1169
GlyphClass: 1
Flags: W
LayerCount: 2
Fore
SplineSet
30 0 m 1,0,-1
 52 126 l 1,1,-1
 220 154 l 1,2,-1
 371 1010 l 1,3,-1
 213 1038 l 1,4,-1
 235 1165 l 1,5,-1
 748 1165 l 1,6,-1
 726 1038 l 1,7,-1
 568 1010 l 1,8,-1
 506 657 l 1,9,-1
 590 657 l 1,10,-1
 932 1021 l 1,11,-1
 936 1025 l 1,12,-1
 843 1038 l 1,13,-1
 865 1165 l 1,14,-1
 1280 1165 l 1,15,-1
 1258 1038 l 1,16,-1
 1149 1011 l 1,17,-1
 747 606 l 1,18,-1
 1034 152 l 1,19,-1
 1150 126 l 1,20,-1
 1128 0 l 1,21,-1
 682 0 l 1,22,-1
 704 126 l 1,23,-1
 800 139 l 1,24,-1
 798 142 l 1,25,-1
 577 500 l 1,26,-1
 478 500 l 1,27,-1
 417 154 l 1,28,-1
 565 126 l 1,29,-1
 543 0 l 1,30,-1
 30 0 l 1,0,-1
EndSplineSet
Validated: 1
EndChar

StartChar: o.sc.ss05
Encoding: 65734 -1 563
Width: 1227
GlyphClass: 1
Flags: W
LayerCount: 2
Fore
SplineSet
611 -17 m 0,0,1
 457 -17 457 -17 351.5 55 c 128,-1,2
 246 127 246 127 203 256 c 0,3,4
 178 332 178 332 178 422 c 0,5,6
 178 485 178 485 190 555 c 2,7,-1
 199 609 l 2,8,9
 229 779 229 779 317.5 907.5 c 128,-1,10
 406 1036 406 1036 536 1108.5 c 128,-1,11
 666 1181 666 1181 820 1181 c 0,12,13
 975 1181 975 1181 1080 1108.5 c 0,14,15
 1184 1036 1184 1036 1228 908 c 0,16,17
 1254 832 1254 832 1254 741 c 0,18,19
 1254 679 1254 679 1242 609 c 2,20,-1
 1233 555 l 2,21,22
 1203 385 1203 385 1114 256 c 128,-1,23
 1025 127 1025 127 895.5 55 c 128,-1,24
 766 -17 766 -17 611 -17 c 0,0,1
638 135 m 256,25,26
 789 135 789 135 895 246 c 128,-1,27
 1001 357 1001 357 1036 555 c 2,28,-1
 1046 610 l 2,29,30
 1058 676 1058 676 1058 733 c 0,31,32
 1058 844 1058 844 1012 917 c 0,33,34
 944 1028 944 1028 793 1028 c 256,35,36
 642 1028 642 1028 536.5 917 c 128,-1,37
 431 806 431 806 397 610 c 2,38,-1
 387 555 l 2,39,40
 375 487 375 487 375 430 c 0,41,42
 376 319 376 319 420 246 c 0,43,44
 488 135 488 135 638 135 c 256,25,26
EndSplineSet
Validated: 524289
EndChar

StartChar: q.sc.ss05
Encoding: 65735 -1 564
Width: 1251
GlyphClass: 1
Flags: W
LayerCount: 2
Fore
SplineSet
966 -213 m 1,0,-1
 722 -7 l 1,1,2
 693 -11 693 -11 665.5 -14 c 128,-1,3
 638 -17 638 -17 611 -17 c 0,4,5
 457 -17 457 -17 351.5 55 c 128,-1,6
 246 127 246 127 203 256 c 0,7,8
 178 332 178 332 178 422 c 0,9,10
 178 485 178 485 190 555 c 2,11,-1
 199 609 l 2,12,13
 229 779 229 779 317.5 907.5 c 128,-1,14
 406 1036 406 1036 536 1108.5 c 128,-1,15
 666 1181 666 1181 820 1181 c 0,16,17
 975 1181 975 1181 1080 1108.5 c 0,18,19
 1184 1036 1184 1036 1228 908 c 0,20,21
 1254 832 1254 832 1254 741 c 0,22,23
 1254 679 1254 679 1242 609 c 2,24,-1
 1233 555 l 2,25,26
 1203 387 1203 387 1115.5 258 c 128,-1,27
 1028 129 1028 129 900 58 c 1,28,-1
 1134 -87 l 1,29,-1
 966 -213 l 1,0,-1
638 135 m 256,30,31
 789 135 789 135 895 246 c 128,-1,32
 1001 357 1001 357 1036 555 c 2,33,-1
 1046 610 l 2,34,35
 1058 676 1058 676 1058 733 c 0,36,37
 1058 844 1058 844 1012 917 c 0,38,39
 944 1028 944 1028 793 1028 c 256,40,41
 642 1028 642 1028 536.5 917 c 128,-1,42
 431 806 431 806 397 610 c 2,43,-1
 387 555 l 2,44,45
 375 487 375 487 375 430 c 0,46,47
 376 319 376 319 420 246 c 0,48,49
 488 135 488 135 638 135 c 256,30,31
EndSplineSet
Validated: 524289
EndChar

StartChar: r.sc.ss05
Encoding: 65736 -1 565
Width: 1237
GlyphClass: 1
Flags: W
LayerCount: 2
Fore
SplineSet
31 0 m 1,0,-1
 53 126 l 1,1,-1
 221 154 l 1,2,-1
 372 1010 l 1,3,-1
 214 1038 l 1,4,-1
 236 1165 l 1,5,-1
 399 1165 l 1,6,-1
 860 1165 l 2,7,8
 997 1165 997 1165 1086 1124.5 c 128,-1,9
 1175 1084 1175 1084 1212 1008 c 0,10,11
 1236 957 1236 957 1236 893 c 0,12,13
 1236 860 1236 860 1230 823 c 0,14,15
 1214 734 1214 734 1153.5 671 c 128,-1,16
 1093 608 1093 608 990 569 c 1,17,18
 1089 539 1089 539 1122 467 c 0,19,20
 1143 421 1143 421 1143 362 c 0,21,22
 1143 328 1143 328 1136 290 c 2,23,-1
 1115 172 l 2,24,25
 1114 165 1114 165 1113 158 c 128,-1,26
 1112 151 1112 151 1110 143 c 1,27,-1
 1206 126 l 1,28,-1
 1184 0 l 1,29,-1
 906 0 l 1,30,31
 901 14 901 14 901 36 c 0,32,33
 902 52 902 52 904 72 c 0,34,35
 910 121 910 121 919 173 c 2,36,-1
 939 289 l 2,37,38
 943 313 943 313 943 334 c 0,39,40
 943 392 943 392 911 429 c 0,41,42
 867 479 867 479 769 479 c 2,43,-1
 475 479 l 1,44,-1
 418 154 l 1,45,-1
 576 126 l 1,46,-1
 554 0 l 1,47,-1
 31 0 l 1,0,-1
503 633 m 1,48,-1
 767 633 l 2,49,50
 887 633 887 633 951 680 c 128,-1,51
 1015 727 1015 727 1031 815 c 0,52,53
 1035 838 1035 838 1035 859 c 0,54,55
 1036 920 1036 920 1000 960 c 0,56,57
 952 1012 952 1012 833 1012 c 2,58,-1
 569 1012 l 1,59,-1
 503 633 l 1,48,-1
EndSplineSet
Validated: 33
EndChar

StartChar: s.sc.ss05
Encoding: 65737 -1 566
Width: 1137
GlyphClass: 1
Flags: W
LayerCount: 2
Fore
SplineSet
566 -17 m 0,0,1
 431 -17 431 -17 329 20.5 c 0,2,3
 228 58 228 58 180 136 c 0,4,5
 149 187 149 187 148 258 c 0,6,7
 148 295 148 295 157 337 c 1,8,-1
 159 343 l 1,9,-1
 348 343 l 1,10,11
 344 321 344 321 344 302 c 0,12,13
 344 257 344 257 365 225 c 0,14,15
 395 179 395 179 454.5 157 c 128,-1,16
 514 135 514 135 593 135 c 0,17,18
 724 135 724 135 804 182 c 128,-1,19
 884 229 884 229 898 304 c 0,20,21
 900 317 900 317 900 330 c 0,22,23
 900 362 900 362 886 386 c 0,24,25
 866 420 866 420 808 448.5 c 128,-1,26
 750 477 750 477 646 503 c 0,27,28
 505 542 505 542 418 586 c 128,-1,29
 331 630 331 630 298 695 c 0,30,31
 277 737 277 737 277 794 c 0,32,33
 277 825 277 825 283 860 c 0,34,35
 300 958 300 958 367.5 1030 c 128,-1,36
 435 1102 435 1102 543.5 1141.5 c 128,-1,37
 652 1181 652 1181 789 1181 c 0,38,39
 998 1181 998 1181 1100 1088 c 0,40,41
 1176 1018 1176 1018 1176 907 c 0,42,43
 1176 870 1176 870 1167 827 c 1,44,-1
 1164 821 l 1,45,-1
 977 821 l 1,46,47
 981 841 981 841 981 860 c 0,48,49
 981 926 981 926 937 970 c 0,50,51
 881 1028 881 1028 762 1028 c 0,52,53
 636 1028 636 1028 565 981.5 c 128,-1,54
 494 935 494 935 481 861 c 0,55,56
 478 846 478 846 478 832 c 0,57,58
 478 802 478 802 490 780 c 0,59,60
 508 746 508 746 566.5 719.5 c 128,-1,61
 625 693 625 693 738 664 c 0,62,63
 944 606 944 606 1032 528 c 0,64,65
 1101 467 1101 467 1101 366 c 0,66,67
 1101 337 1101 337 1095 305 c 0,68,69
 1077 203 1077 203 1006 131 c 128,-1,70
 935 59 935 59 823 21 c 128,-1,71
 711 -17 711 -17 566 -17 c 0,0,1
EndSplineSet
Validated: 524289
EndChar

StartChar: uni207F
Encoding: 8319 8319 567
Width: 940
GlyphClass: 1
Flags: W
LayerCount: 2
Fore
SplineSet
265 651 m 1,0,-1
 406 1451 l 1,1,-1
 542 1451 l 1,2,-1
 552 1331 l 1,3,4
 599 1395 599 1395 660 1430.5 c 128,-1,5
 721 1466 721 1466 791 1466 c 0,6,7
 914 1466 914 1466 968 1390 c 0,8,9
 1004 1340 1004 1340 1004 1256 c 0,10,11
 1004 1212 1004 1212 994 1159 c 2,12,-1
 905 651 l 1,13,-1
 725 651 l 1,14,-1
 809 1126 l 2,15,16
 816 1166 816 1166 816 1198 c 0,17,18
 816 1246 816 1246 800 1274 c 0,19,20
 772 1320 772 1320 707 1319 c 0,21,22
 654 1319 654 1319 613 1292 c 128,-1,23
 572 1265 572 1265 545 1218 c 1,24,-1
 445 651 l 1,25,-1
 265 651 l 1,0,-1
EndSplineSet
Validated: 33
EndChar

StartChar: ordfeminine
Encoding: 170 170 568
Width: 894
GlyphClass: 1
Flags: W
LayerCount: 2
Fore
SplineSet
477 692 m 0,0,1
 358 692 358 692 304 753 c 0,2,3
 264 799 264 799 264 870 c 0,4,5
 264 894 264 894 268 920 c 0,6,7
 287 1030 287 1030 382 1090 c 128,-1,8
 477 1150 477 1150 639 1150 c 2,9,-1
 777 1150 l 1,10,-1
 786 1202 l 2,11,12
 790 1222 790 1222 790 1239 c 0,13,14
 790 1276 790 1276 774 1299 c 0,15,16
 750 1333 750 1333 692 1333 c 0,17,18
 625 1333 625 1333 584 1306 c 128,-1,19
 543 1279 543 1279 534 1230 c 1,20,-1
 373 1243 l 1,21,-1
 373 1249 l 1,22,23
 384 1347 384 1347 480.5 1412 c 128,-1,24
 577 1477 577 1477 717 1477 c 0,25,26
 850 1477 850 1477 916 1406 c 0,27,28
 965 1353 965 1353 965 1266 c 0,29,30
 965 1236 965 1236 959 1201 c 2,31,-1
 903 887 l 2,32,33
 894 836 894 836 892 792 c 0,34,35
 892 783 892 783 892 774 c 0,36,37
 892 739 892 739 897 706 c 1,38,-1
 722 706 l 1,39,40
 718 727 718 727 717.5 751 c 128,-1,41
 717 775 717 775 718 801 c 1,42,43
 677 754 677 754 615.5 723 c 128,-1,44
 554 692 554 692 477 692 c 0,0,1
544 831 m 0,45,46
 578 831 578 831 616.5 845 c 128,-1,47
 655 859 655 859 688 880.5 c 128,-1,48
 721 902 721 902 737 926 c 1,49,-1
 757 1036 l 1,50,-1
 620 1036 l 2,51,52
 545 1036 545 1036 497 1003 c 128,-1,53
 449 970 449 970 441 924 c 0,54,55
 439 913 439 913 439 904 c 0,56,57
 438 874 438 874 458 855 c 0,58,59
 484 831 484 831 544 831 c 0,45,46
EndSplineSet
Validated: 1
EndChar

StartChar: ordmasculine
Encoding: 186 186 569
Width: 941
GlyphClass: 1
Flags: W
LayerCount: 2
Fore
SplineSet
590 691 m 0,0,1
 431 692 431 692 353 784 c 0,2,3
 295 853 295 853 295 952 c 0,4,5
 295 987 295 987 302 1025 c 2,6,-1
 322 1142 l 2,7,8
 348 1290 348 1290 458 1383.5 c 128,-1,9
 568 1477 568 1477 726 1477 c 256,10,11
 884 1478 884 1478 962 1384 c 0,12,13
 1020 1314 1020 1314 1020 1213 c 0,14,15
 1020 1179 1020 1179 1013 1142 c 2,16,-1
 993 1025 l 2,17,18
 967 876 967 876 857 783.5 c 128,-1,19
 747 691 747 691 590 691 c 0,0,1
615 832 m 0,20,21
 698 832 698 832 751 885 c 128,-1,22
 804 938 804 938 820 1025 c 2,23,-1
 840 1142 l 2,24,25
 844 1167 844 1167 844 1190 c 0,26,27
 844 1242 844 1242 820 1280 c 0,28,29
 785 1334 785 1334 701 1333 c 256,30,31
 617 1333 617 1333 563 1279.5 c 128,-1,32
 509 1226 509 1226 494 1142 c 2,33,-1
 474 1025 l 2,34,35
 469 997 469 997 469 973 c 0,36,37
 469 920 469 920 493 884 c 0,38,39
 528 832 528 832 615 832 c 0,20,21
EndSplineSet
Validated: 33
EndChar

StartChar: uni0411
Encoding: 1041 1041 571
Width: 1359
GlyphClass: 1
Flags: W
LayerCount: 2
Fore
SplineSet
60 0 m 1,0,-1
 82 126 l 1,1,-1
 250 154 l 1,2,-1
 452 1301 l 1,3,-1
 294 1329 l 1,4,-1
 317 1456 l 1,5,-1
 1373 1456 l 1,6,-1
 1316 1134 l 1,7,-1
 1147 1134 l 1,8,-1
 1161 1301 l 1,9,-1
 659 1301 l 1,10,-1
 582 860 l 1,11,-1
 941 860 l 2,12,13
 1097 860 1097 860 1197 808 c 0,14,15
 1296 756 1296 756 1338 660 c 0,16,17
 1365 599 1365 599 1365 523 c 0,18,19
 1365 481 1365 481 1357 434 c 256,20,21
 1334 303 1334 303 1258.5 205 c 128,-1,22
 1183 107 1183 107 1064 53.5 c 128,-1,23
 945 0 945 0 789 0 c 2,24,-1
 60 0 l 1,0,-1
457 154 m 1,25,-1
 816 154 l 2,26,27
 964 154 964 154 1051 234 c 128,-1,28
 1138 314 1138 314 1160 436 c 0,29,30
 1165 467 1165 467 1165 494 c 0,31,32
 1165 574 1165 574 1121 630 c 0,33,34
 1061 706 1061 706 913 705 c 2,35,-1
 554 705 l 1,36,-1
 457 154 l 1,25,-1
EndSplineSet
Validated: 33
EndChar

StartChar: uni0413
Encoding: 1043 1043 573
Width: 1216
GlyphClass: 2
Flags: W
AnchorPoint: "Anchor-4" 512 753 basechar 0
AnchorPoint: "Anchor-0" 891 1376 basechar 0
LayerCount: 2
Fore
SplineSet
77 0 m 1,0,-1
 99 126 l 1,1,-1
 267 154 l 1,2,-1
 469 1301 l 1,3,-1
 311 1329 l 1,4,-1
 334 1456 l 1,5,-1
 1390 1456 l 1,6,-1
 1333 1134 l 1,7,-1
 1164 1134 l 1,8,-1
 1178 1301 l 1,9,-1
 666 1301 l 1,10,-1
 464 154 l 1,11,-1
 622 126 l 1,12,-1
 600 0 l 1,13,-1
 77 0 l 1,0,-1
EndSplineSet
Validated: 1048577
EndChar

StartChar: uni0490
Encoding: 1168 1168 575
Width: 1207
GlyphClass: 1
Flags: W
LayerCount: 2
Fore
SplineSet
60 0 m 1,0,-1
 82 126 l 1,1,-1
 250 154 l 1,2,-1
 452 1301 l 1,3,-1
 294 1329 l 1,4,-1
 317 1456 l 1,5,-1
 1188 1456 l 1,6,-1
 1274 1790 l 1,7,-1
 1432 1790 l 1,8,-1
 1345 1301 l 1,9,-1
 649 1301 l 1,10,-1
 447 154 l 1,11,-1
 605 126 l 1,12,-1
 583 0 l 1,13,-1
 60 0 l 1,0,-1
EndSplineSet
Validated: 1
EndChar

StartChar: uni0494
Encoding: 1172 1172 578
Width: 1240
GlyphClass: 1
Flags: W
LayerCount: 2
Fore
SplineSet
638 -284 m 1,0,-1
 632 -282 l 1,1,-1
 655 -140 l 1,2,3
 756 -140 756 -140 825.5 -94.5 c 128,-1,4
 895 -49 895 -49 939.5 39.5 c 128,-1,5
 984 128 984 128 1006 255 c 0,6,7
 1017 316 1017 316 1017 369 c 0,8,9
 1018 488 1018 488 960 562 c 0,10,11
 878 668 878 668 676 668 c 2,12,-1
 555 668 l 1,13,-1
 464 154 l 1,14,-1
 622 126 l 1,15,-1
 600 0 l 1,16,-1
 77 0 l 1,17,-1
 99 126 l 1,18,-1
 267 154 l 1,19,-1
 469 1301 l 1,20,-1
 311 1329 l 1,21,-1
 334 1456 l 1,22,-1
 1390 1456 l 1,23,-1
 1333 1134 l 1,24,-1
 1164 1134 l 1,25,-1
 1178 1301 l 1,26,-1
 666 1301 l 1,27,-1
 584 833 l 1,28,-1
 705 833 l 2,29,30
 895 833 895 833 1016.5 763.5 c 128,-1,31
 1138 694 1138 694 1186 565 c 0,32,33
 1215 487 1215 487 1216 391 c 0,34,35
 1216 327 1216 327 1203 255 c 0,36,37
 1180 123 1180 123 1131.5 22 c 128,-1,38
 1083 -79 1083 -79 1011 -148 c 0,39,40
 940 -218 940 -218 846 -252 c 0,41,42
 758 -285 758 -285 650 -284 c 0,43,44
 644 -284 644 -284 638 -284 c 1,0,-1
EndSplineSet
Validated: 33
EndChar

StartChar: uni0414
Encoding: 1044 1044 579
Width: 1570
GlyphClass: 1
Flags: W
LayerCount: 2
Fore
SplineSet
21 -359 m 1,0,-1
 82 154 l 1,1,-1
 207 154 l 1,2,3
 268 213 268 213 331 306 c 128,-1,4
 394 399 394 399 449.5 537 c 128,-1,5
 505 675 505 675 543 867 c 1,6,-1
 644 1302 l 1,7,-1
 494 1329 l 1,8,-1
 517 1456 l 1,9,-1
 1719 1456 l 1,10,-1
 1696 1329 l 1,11,-1
 1528 1301 l 1,12,-1
 1326 154 l 1,13,-1
 1526 154 l 1,14,-1
 1416 -357 l 1,15,-1
 1239 -357 l 1,16,-1
 1302 0 l 1,17,-1
 252 0 l 1,18,-1
 189 -359 l 1,19,-1
 21 -359 l 1,0,-1
425 154 m 1,20,-1
 1129 154 l 1,21,-1
 1331 1301 l 1,22,-1
 841 1301 l 1,23,-1
 742 867 l 2,24,25
 708 709 708 709 659.5 575 c 128,-1,26
 611 441 611 441 551.5 335.5 c 128,-1,27
 492 230 492 230 425 154 c 1,20,-1
EndSplineSet
Validated: 1
EndChar

StartChar: uni0416
Encoding: 1046 1046 583
Width: 2041
GlyphClass: 2
Flags: W
AnchorPoint: "Anchor-0" 1270 1376 basechar 0
LayerCount: 2
Fore
SplineSet
63 0 m 1,0,-1
 85 126 l 1,1,-1
 235 147 l 1,2,-1
 731 761 l 1,3,-1
 540 1185 l 2,4,5
 511 1244 511 1244 481.5 1269.5 c 128,-1,6
 452 1295 452 1295 405 1295 c 0,7,8
 383 1295 383 1295 361 1292 c 128,-1,9
 339 1289 339 1289 318 1285 c 1,10,-1
 313 1423 l 1,11,12
 349 1444 349 1444 388 1455.5 c 128,-1,13
 427 1467 427 1467 476 1467 c 0,14,15
 532 1467 532 1467 575 1450 c 128,-1,16
 618 1433 618 1433 653.5 1391.5 c 128,-1,17
 689 1350 689 1350 722 1274 c 2,18,-1
 928 800 l 1,19,-1
 1070 800 l 1,20,-1
 1158 1301 l 1,21,-1
 1000 1329 l 1,22,-1
 1023 1456 l 1,23,-1
 1545 1456 l 1,24,-1
 1522 1329 l 1,25,-1
 1354 1301 l 1,26,-1
 1266 800 l 1,27,-1
 1420 800 l 1,28,-1
 1794 1274 l 2,29,30
 1883 1387 1883 1387 1953 1427 c 128,-1,31
 2023 1467 2023 1467 2108 1467 c 0,32,33
 2156 1467 2156 1467 2191 1455.5 c 128,-1,34
 2226 1444 2226 1444 2254 1423 c 1,35,-1
 2201 1285 l 1,36,37
 2181 1289 2181 1289 2159.5 1292 c 128,-1,38
 2138 1295 2138 1295 2117 1295 c 0,39,40
 2069 1295 2069 1295 2030.5 1269.5 c 128,-1,41
 1992 1244 1992 1244 1943 1185 c 2,42,-1
 1588 752 l 1,43,-1
 1863 147 l 1,44,-1
 2005 126 l 1,45,-1
 1983 0 l 1,46,-1
 1522 0 l 1,47,-1
 1544 126 l 1,48,-1
 1625 139 l 1,49,-1
 1622 144 l 1,50,-1
 1412 634 l 1,51,-1
 1237 634 l 1,52,-1
 1152 154 l 1,53,-1
 1310 126 l 1,54,-1
 1288 0 l 1,55,-1
 766 0 l 1,56,-1
 788 126 l 1,57,-1
 956 154 l 1,58,-1
 1041 634 l 1,59,-1
 859 634 l 1,60,-1
 473 143 l 1,61,-1
 471 139 l 1,62,-1
 547 126 l 1,63,-1
 525 0 l 1,64,-1
 63 0 l 1,0,-1
EndSplineSet
Validated: 1048577
EndChar

StartChar: uni0417
Encoding: 1047 1047 584
Width: 1222
GlyphClass: 2
Flags: W
AnchorPoint: "Anchor-2" 585 0 basechar 0
AnchorPoint: "Anchor-0" 833 1376 basechar 0
LayerCount: 2
Fore
SplineSet
577 -21 m 0,0,1
 438 -21 438 -21 330 27 c 0,2,3
 222 74 222 74 170 168 c 0,4,5
 136 229 136 229 137 309 c 0,6,7
 137 351 137 351 146 398 c 1,8,-1
 149 404 l 1,9,-1
 337 404 l 1,10,11
 333 379 333 379 333 356 c 0,12,13
 332 308 332 308 350 266 c 0,14,15
 376 204 376 204 441.5 168.5 c 128,-1,16
 507 133 507 133 608 133 c 0,17,18
 754 133 754 133 862.5 207.5 c 128,-1,19
 971 282 971 282 995 417 c 0,20,21
 1000 444 1000 444 1000 469 c 0,22,23
 1000 552 1000 552 945 600 c 0,24,25
 874 664 874 664 714 664 c 2,26,-1
 550 664 l 1,27,-1
 578 820 l 1,28,-1
 742 820 l 2,29,30
 896 820 896 820 981.5 885 c 128,-1,31
 1067 950 1067 950 1086 1062 c 0,32,33
 1090 1088 1090 1088 1090 1112 c 0,34,35
 1090 1194 1090 1194 1037 1250 c 0,36,37
 968 1322 968 1322 804 1322 c 0,38,39
 699 1322 699 1322 621.5 1291.5 c 128,-1,40
 544 1261 544 1261 491 1215 c 1,41,-1
 417 1010 l 1,42,-1
 279 1010 l 1,43,-1
 325 1268 l 1,44,45
 401 1348 401 1348 539.5 1412.5 c 128,-1,46
 678 1477 678 1477 850 1477 c 0,47,48
 1084 1476 1084 1476 1202 1372 c 0,49,50
 1295 1290 1295 1290 1295 1162 c 0,51,52
 1295 1127 1295 1127 1288 1089 c 0,53,54
 1267 968 1267 968 1188.5 881.5 c 128,-1,55
 1110 795 1110 795 992 747 c 1,56,57
 1110 705 1110 705 1161 618 c 0,58,59
 1196 558 1196 558 1196 480 c 0,60,61
 1196 445 1196 445 1189 405 c 0,62,63
 1166 272 1166 272 1081.5 176.5 c 128,-1,64
 997 81 997 81 867 30 c 128,-1,65
 737 -21 737 -21 577 -21 c 0,0,1
EndSplineSet
Validated: 1048609
EndChar

StartChar: uni0418
Encoding: 1048 1048 585
Width: 1574
GlyphClass: 2
Flags: W
AnchorPoint: "Anchor-0" 1033 1376 basechar 0
LayerCount: 2
Fore
SplineSet
77 0 m 1,0,-1
 99 126 l 1,1,-1
 267 154 l 1,2,-1
 469 1301 l 1,3,-1
 311 1329 l 1,4,-1
 334 1456 l 1,5,-1
 497 1456 l 1,6,-1
 694 1456 l 1,7,-1
 857 1456 l 1,8,-1
 834 1329 l 1,9,-1
 666 1301 l 1,10,-1
 518 462 l 1,11,-1
 524 460 l 1,12,-1
 1356 1209 l 1,13,-1
 1372 1301 l 1,14,-1
 1214 1329 l 1,15,-1
 1237 1456 l 1,16,-1
 1400 1456 l 1,17,-1
 1597 1456 l 1,18,-1
 1760 1456 l 1,19,-1
 1737 1329 l 1,20,-1
 1569 1301 l 1,21,-1
 1367 154 l 1,22,-1
 1525 126 l 1,23,-1
 1503 0 l 1,24,-1
 980 0 l 1,25,-1
 1002 126 l 1,26,-1
 1170 154 l 1,27,-1
 1313 966 l 1,28,-1
 1308 968 l 1,29,-1
 475 218 l 1,30,-1
 464 154 l 1,31,-1
 622 126 l 1,32,-1
 600 0 l 1,33,-1
 77 0 l 1,0,-1
EndSplineSet
Validated: 1048577
EndChar

StartChar: uni041A
Encoding: 1050 1050 589
Width: 1452
GlyphClass: 2
Flags: W
AnchorPoint: "Anchor-4" 566 1096 basechar 0
AnchorPoint: "Anchor-0" 969 1376 basechar 0
LayerCount: 2
Fore
SplineSet
71 0 m 1,0,-1
 93 126 l 1,1,-1
 261 154 l 1,2,-1
 463 1301 l 1,3,-1
 305 1329 l 1,4,-1
 328 1456 l 1,5,-1
 851 1456 l 1,6,-1
 828 1329 l 1,7,-1
 660 1301 l 1,8,-1
 572 800 l 1,9,-1
 731 800 l 1,10,-1
 1144 1274 l 2,11,12
 1245 1386 1245 1386 1312 1426.5 c 128,-1,13
 1379 1467 1379 1467 1458 1467 c 0,14,15
 1505 1467 1505 1467 1535.5 1455.5 c 128,-1,16
 1566 1444 1566 1444 1598 1422 c 1,17,-1
 1544 1283 l 1,18,19
 1518 1288 1518 1288 1498 1291.5 c 128,-1,20
 1478 1295 1478 1295 1458 1295 c 0,21,22
 1411 1295 1411 1295 1374.5 1270 c 128,-1,23
 1338 1245 1338 1245 1284 1185 c 2,24,-1
 894 749 l 1,25,-1
 1273 151 l 1,26,-1
 1405 126 l 1,27,-1
 1383 0 l 1,28,-1
 905 0 l 1,29,-1
 927 126 l 1,30,-1
 1041 140 l 1,31,-1
 1038 145 l 1,32,-1
 731 634 l 1,33,-1
 543 634 l 1,34,-1
 458 154 l 1,35,-1
 616 126 l 1,36,-1
 594 0 l 1,37,-1
 71 0 l 1,0,-1
EndSplineSet
Validated: 1048577
EndChar

StartChar: uni041B
Encoding: 1051 1051 591
Width: 1512
GlyphClass: 2
Flags: W
LayerCount: 2
Fore
SplineSet
57 0 m 1,0,-1
 84 154 l 1,1,-1
 124 154 l 2,2,3
 192 154 192 154 244.5 186.5 c 128,-1,4
 297 219 297 219 339 291.5 c 128,-1,5
 381 364 381 364 419 481.5 c 128,-1,6
 457 599 457 599 494 770 c 2,7,-1
 612 1302 l 1,8,-1
 460 1329 l 1,9,-1
 483 1456 l 1,10,-1
 1698 1456 l 1,11,-1
 1675 1329 l 1,12,-1
 1507 1301 l 1,13,-1
 1305 154 l 1,14,-1
 1463 126 l 1,15,-1
 1441 0 l 1,16,-1
 918 0 l 1,17,-1
 940 126 l 1,18,-1
 1108 154 l 1,19,-1
 1310 1301 l 1,20,-1
 807 1301 l 1,21,-1
 690 770 l 2,22,23
 645 565 645 565 592 418.5 c 128,-1,24
 539 272 539 272 471 179.5 c 128,-1,25
 403 87 403 87 314.5 43.5 c 128,-1,26
 226 0 226 0 109 0 c 2,27,-1
 57 0 l 1,0,-1
EndSplineSet
Validated: 1
EndChar

StartChar: uni0423
Encoding: 1059 1059 599
Width: 1360
GlyphClass: 2
Flags: W
AnchorPoint: "Anchor-0" 914 1376 basechar 0
LayerCount: 2
Fore
SplineSet
383 -21 m 0,0,1
 358 -21 358 -21 325 -18 c 128,-1,2
 292 -15 292 -15 284 -12 c 1,3,-1
 316 137 l 1,4,5
 326 135 326 135 358.5 134 c 128,-1,6
 391 133 391 133 408 133 c 0,7,8
 479 133 479 133 516 168.5 c 128,-1,9
 553 204 553 204 606 285 c 2,10,-1
 660 368 l 1,11,-1
 403 1311 l 1,12,-1
 288 1329 l 1,13,-1
 311 1456 l 1,14,-1
 768 1456 l 1,15,-1
 745 1329 l 1,16,-1
 620 1310 l 1,17,-1
 747 775 l 1,18,-1
 787 587 l 1,19,-1
 793 587 l 1,20,-1
 1193 1309 l 1,21,-1
 1069 1329 l 1,22,-1
 1092 1456 l 1,23,-1
 1557 1456 l 1,24,-1
 1534 1329 l 1,25,-1
 1417 1312 l 1,26,-1
 779 239 l 2,27,28
 725 152 725 152 672.5 94 c 128,-1,29
 620 36 620 36 552.5 7.5 c 128,-1,30
 485 -21 485 -21 383 -21 c 0,0,1
EndSplineSet
Validated: 1048577
EndChar

StartChar: uni0424
Encoding: 1060 1060 601
Width: 1600
GlyphClass: 1
Flags: W
LayerCount: 2
Fore
SplineSet
525 -79 m 1,0,-1
 547 47 l 1,1,-1
 715 76 l 1,2,-1
 736 194 l 1,3,-1
 707 194 l 2,4,5
 538 194 538 194 417.5 263 c 128,-1,6
 297 332 297 332 241 452 c 0,7,8
 203 534 203 534 203 630 c 0,9,10
 203 675 203 675 211 723 c 0,11,12
 238 878 238 878 337.5 1000 c 128,-1,13
 437 1122 437 1122 582.5 1192.5 c 128,-1,14
 728 1263 728 1263 896 1263 c 2,15,-1
 925 1263 l 1,16,-1
 945 1380 l 1,17,-1
 787 1409 l 1,18,-1
 810 1535 l 1,19,-1
 1333 1535 l 1,20,-1
 1310 1409 l 1,21,-1
 1142 1380 l 1,22,-1
 1122 1263 l 1,23,-1
 1148 1263 l 2,24,25
 1316 1263 1316 1263 1437.5 1193 c 0,26,27
 1559 1124 1559 1124 1615 1002 c 0,28,29
 1653 920 1653 920 1653 822 c 0,30,31
 1653 775 1653 775 1644 725 c 0,32,33
 1617 574 1617 574 1518.5 453.5 c 128,-1,34
 1420 333 1420 333 1273.5 263.5 c 128,-1,35
 1127 194 1127 194 959 194 c 2,36,-1
 933 194 l 1,37,-1
 912 76 l 1,38,-1
 1070 47 l 1,39,-1
 1048 -79 l 1,40,-1
 525 -79 l 1,0,-1
734 348 m 2,41,-1
 763 348 l 1,42,-1
 897 1108 l 1,43,-1
 868 1108 l 2,44,45
 742 1108 742 1108 645.5 1060 c 128,-1,46
 549 1012 549 1012 488 925.5 c 128,-1,47
 427 839 427 839 406 723 c 0,48,49
 398 680 398 680 398 640 c 0,50,51
 398 578 398 578 418 526 c 0,52,53
 450 442 450 442 529 395 c 128,-1,54
 608 348 608 348 734 348 c 2,41,-1
960 348 m 1,55,-1
 988 348 l 2,56,57
 1112 348 1112 348 1208.5 395.5 c 128,-1,58
 1305 443 1305 443 1366.5 528 c 128,-1,59
 1428 613 1428 613 1448 725 c 0,60,61
 1456 770 1456 770 1456 810 c 0,62,63
 1456 873 1456 873 1436 926 c 0,64,65
 1404 1012 1404 1012 1325 1060 c 128,-1,66
 1246 1108 1246 1108 1122 1108 c 2,67,-1
 1094 1108 l 1,68,-1
 960 348 l 1,55,-1
EndSplineSet
Validated: 524289
EndChar

StartChar: uni0427
Encoding: 1063 1063 603
Width: 1526
GlyphClass: 2
Flags: W
AnchorPoint: "Anchor-0" 1006 1376 basechar 0
LayerCount: 2
Fore
SplineSet
942 0 m 1,0,-1
 964 126 l 1,1,-1
 1132 154 l 1,2,-1
 1211 603 l 1,3,4
 1111 574 1111 574 1020 561 c 128,-1,5
 929 548 929 548 807 548 c 0,6,7
 568 548 568 548 462 653 c 0,8,9
 387 728 387 728 386 871 c 0,10,11
 386 928 386 928 398 996 c 2,12,-1
 451 1301 l 1,13,-1
 293 1329 l 1,14,-1
 316 1456 l 1,15,-1
 839 1456 l 1,16,-1
 816 1329 l 1,17,-1
 648 1301 l 1,18,-1
 595 996 l 2,19,20
 585 941 585 941 585 897 c 0,21,22
 586 810 586 810 624 768 c 0,23,24
 682 704 682 704 834 704 c 0,25,26
 938 704 938 704 1036.5 718 c 128,-1,27
 1135 732 1135 732 1239 759 c 1,28,-1
 1334 1301 l 1,29,-1
 1176 1329 l 1,30,-1
 1199 1456 l 1,31,-1
 1723 1456 l 1,32,-1
 1700 1329 l 1,33,-1
 1532 1301 l 1,34,-1
 1330 154 l 1,35,-1
 1488 126 l 1,36,-1
 1466 0 l 1,37,-1
 942 0 l 1,0,-1
EndSplineSet
Validated: 1048577
EndChar

StartChar: uni0426
Encoding: 1062 1062 604
Width: 1594
GlyphClass: 1
Flags: W
LayerCount: 2
Fore
SplineSet
1275 -351 m 1,0,-1
 1337 0 l 1,1,-1
 77 0 l 1,2,-1
 99 126 l 1,3,-1
 267 154 l 1,4,-1
 469 1301 l 1,5,-1
 311 1329 l 1,6,-1
 334 1456 l 1,7,-1
 857 1456 l 1,8,-1
 834 1329 l 1,9,-1
 666 1301 l 1,10,-1
 464 154 l 1,11,-1
 1172 154 l 1,12,-1
 1374 1301 l 1,13,-1
 1216 1329 l 1,14,-1
 1239 1456 l 1,15,-1
 1762 1456 l 1,16,-1
 1739 1329 l 1,17,-1
 1571 1301 l 1,18,-1
 1369 154 l 1,19,-1
 1559 154 l 1,20,-1
 1470 -351 l 1,21,-1
 1275 -351 l 1,0,-1
EndSplineSet
Validated: 1
EndChar

StartChar: uni0428
Encoding: 1064 1064 605
Width: 2037
GlyphClass: 1
Flags: W
LayerCount: 2
Fore
SplineSet
77 0 m 1,0,-1
 99 126 l 1,1,-1
 267 154 l 1,2,-1
 469 1301 l 1,3,-1
 311 1329 l 1,4,-1
 334 1456 l 1,5,-1
 694 1456 l 1,6,-1
 857 1456 l 1,7,-1
 834 1329 l 1,8,-1
 666 1301 l 1,9,-1
 464 154 l 1,10,-1
 956 154 l 1,11,-1
 1158 1301 l 1,12,-1
 1000 1329 l 1,13,-1
 1023 1456 l 1,14,-1
 1545 1456 l 1,15,-1
 1522 1329 l 1,16,-1
 1354 1301 l 1,17,-1
 1152 154 l 1,18,-1
 1642 154 l 1,19,-1
 1844 1301 l 1,20,-1
 1686 1329 l 1,21,-1
 1709 1456 l 1,22,-1
 1872 1456 l 1,23,-1
 2069 1456 l 1,24,-1
 2232 1456 l 1,25,-1
 2209 1329 l 1,26,-1
 2041 1301 l 1,27,-1
 1839 154 l 1,28,-1
 1997 126 l 1,29,-1
 1975 0 l 1,30,-1
 77 0 l 1,0,-1
EndSplineSet
Validated: 1
EndChar

StartChar: uni0429
Encoding: 1065 1065 606
Width: 2044
GlyphClass: 1
Flags: W
LayerCount: 2
Fore
SplineSet
1735 -351 m 1,0,-1
 1797 0 l 1,1,-1
 77 0 l 1,2,-1
 99 126 l 1,3,-1
 267 154 l 1,4,-1
 469 1301 l 1,5,-1
 311 1329 l 1,6,-1
 334 1456 l 1,7,-1
 857 1456 l 1,8,-1
 834 1329 l 1,9,-1
 666 1301 l 1,10,-1
 464 154 l 1,11,-1
 956 154 l 1,12,-1
 1158 1301 l 1,13,-1
 1000 1329 l 1,14,-1
 1023 1456 l 1,15,-1
 1545 1456 l 1,16,-1
 1522 1329 l 1,17,-1
 1354 1301 l 1,18,-1
 1152 154 l 1,19,-1
 1642 154 l 1,20,-1
 1844 1301 l 1,21,-1
 1686 1329 l 1,22,-1
 1709 1456 l 1,23,-1
 2232 1456 l 1,24,-1
 2209 1329 l 1,25,-1
 2041 1301 l 1,26,-1
 1839 155 l 1,27,-1
 2019 155 l 1,28,-1
 1910 -351 l 1,29,-1
 1735 -351 l 1,0,-1
EndSplineSet
Validated: 1
EndChar

StartChar: uni040F
Encoding: 1039 1039 607
Width: 1575
GlyphClass: 1
Flags: W
LayerCount: 2
Fore
SplineSet
636 -359 m 1,0,-1
 699 0 l 1,1,-1
 77 0 l 1,2,-1
 99 126 l 1,3,-1
 267 154 l 1,4,-1
 469 1301 l 1,5,-1
 311 1329 l 1,6,-1
 334 1456 l 1,7,-1
 694 1456 l 1,8,-1
 857 1456 l 1,9,-1
 834 1329 l 1,10,-1
 666 1301 l 1,11,-1
 464 154 l 1,12,-1
 1172 154 l 1,13,-1
 1374 1301 l 1,14,-1
 1216 1329 l 1,15,-1
 1239 1456 l 1,16,-1
 1762 1456 l 1,17,-1
 1739 1329 l 1,18,-1
 1571 1301 l 1,19,-1
 1369 154 l 1,20,-1
 1527 126 l 1,21,-1
 1505 0 l 1,22,-1
 896 0 l 1,23,-1
 833 -359 l 1,24,-1
 636 -359 l 1,0,-1
EndSplineSet
Validated: 1
EndChar

StartChar: uni042C
Encoding: 1068 1068 608
Width: 1358
GlyphClass: 2
Flags: W
AnchorPoint: "Anchor-4" 565 1092 basechar 0
LayerCount: 2
Fore
SplineSet
70 0 m 1,0,-1
 92 126 l 1,1,-1
 260 154 l 1,2,-1
 462 1301 l 1,3,-1
 304 1329 l 1,4,-1
 327 1456 l 1,5,-1
 850 1456 l 1,6,-1
 827 1329 l 1,7,-1
 659 1301 l 1,8,-1
 582 860 l 1,9,-1
 941 860 l 2,10,11
 1097 860 1097 860 1197 808 c 0,12,13
 1296 756 1296 756 1338 660 c 0,14,15
 1365 599 1365 599 1365 523 c 0,16,17
 1365 481 1365 481 1357 434 c 256,18,19
 1334 303 1334 303 1258.5 205 c 128,-1,20
 1183 107 1183 107 1064 53.5 c 128,-1,21
 945 0 945 0 789 0 c 2,22,-1
 70 0 l 1,0,-1
457 154 m 1,23,-1
 816 154 l 2,24,25
 964 154 964 154 1051 234 c 128,-1,26
 1138 314 1138 314 1160 436 c 0,27,28
 1165 467 1165 467 1165 494 c 0,29,30
 1165 574 1165 574 1121 630 c 0,31,32
 1061 706 1061 706 913 705 c 2,33,-1
 554 705 l 1,34,-1
 457 154 l 1,23,-1
EndSplineSet
Validated: 1048609
EndChar

StartChar: uni042A
Encoding: 1066 1066 610
Width: 1740
GlyphClass: 2
Flags: W
AnchorPoint: "Anchor-0" 960 1376 basechar 0
LayerCount: 2
Fore
SplineSet
431 0 m 1,0,-1
 453 126 l 1,1,-1
 621 154 l 1,2,-1
 823 1301 l 1,3,-1
 474 1301 l 1,4,-1
 431 1135 l 1,5,-1
 262 1135 l 1,6,-1
 319 1456 l 1,7,-1
 1211 1456 l 1,8,-1
 1188 1329 l 1,9,-1
 1020 1301 l 1,10,-1
 943 860 l 1,11,-1
 1302 860 l 2,12,13
 1458 860 1458 860 1558 808 c 128,-1,14
 1658 756 1658 756 1700 660 c 0,15,16
 1727 599 1727 599 1726 523 c 0,17,18
 1726 481 1726 481 1718 434 c 256,19,20
 1695 303 1695 303 1619.5 205 c 128,-1,21
 1544 107 1544 107 1425 53.5 c 128,-1,22
 1306 0 1306 0 1150 0 c 2,23,-1
 431 0 l 1,0,-1
818 154 m 1,24,-1
 1177 154 l 2,25,26
 1325 154 1325 154 1412 234 c 128,-1,27
 1499 314 1499 314 1521 436 c 0,28,29
 1526 467 1526 467 1526 494 c 0,30,31
 1526 574 1526 574 1482 630 c 0,32,33
 1422 706 1422 706 1274 705 c 2,34,-1
 915 705 l 1,35,-1
 818 154 l 1,24,-1
EndSplineSet
Validated: 1048609
EndChar

StartChar: uni0409
Encoding: 1033 1033 611
Width: 2205
GlyphClass: 1
Flags: W
LayerCount: 2
Fore
SplineSet
57 0 m 1,0,-1
 84 154 l 1,1,-1
 124 154 l 2,2,3
 199 154 199 154 258.5 188.5 c 128,-1,4
 318 223 318 223 365 296.5 c 128,-1,5
 412 370 412 370 449.5 487.5 c 128,-1,6
 487 605 487 605 516 770 c 2,7,-1
 609 1301 l 1,8,-1
 451 1329 l 1,9,-1
 474 1456 l 1,10,-1
 1698 1456 l 1,11,-1
 1675 1329 l 1,12,-1
 1507 1301 l 1,13,-1
 1435 889 l 1,14,-1
 1794 889 l 2,15,16
 1949 889 1949 889 2048.5 833 c 0,17,18
 2148 776 2148 776 2188 676 c 0,19,20
 2213 613 2213 613 2214 538 c 0,21,22
 2214 493 2214 493 2205 444 c 256,23,24
 2182 312 2182 312 2106.5 212 c 128,-1,25
 2031 112 2031 112 1911.5 56 c 128,-1,26
 1792 0 1792 0 1637 0 c 2,27,-1
 1081 0 l 1,28,-1
 1310 1301 l 1,29,-1
 806 1301 l 1,30,-1
 712 770 l 2,31,32
 677 569 677 569 624.5 423.5 c 128,-1,33
 572 278 572 278 500 184 c 128,-1,34
 428 90 428 90 331.5 45 c 128,-1,35
 235 0 235 0 109 0 c 2,36,-1
 57 0 l 1,0,-1
1305 154 m 1,37,-1
 1664 154 l 2,38,39
 1811 154 1811 154 1899.5 238.5 c 128,-1,40
 1988 323 1988 323 2010 446 c 0,41,42
 2016 478 2016 478 2016 508 c 0,43,44
 2016 552 2016 552 2003 592 c 0,45,46
 1982 658 1982 658 1923.5 696.5 c 128,-1,47
 1865 735 1865 735 1767 735 c 2,48,-1
 1408 735 l 1,49,-1
 1305 154 l 1,37,-1
EndSplineSet
Validated: 524289
EndChar

StartChar: uni040A
Encoding: 1034 1034 612
Width: 2274
GlyphClass: 1
Flags: W
LayerCount: 2
Fore
SplineSet
81 0 m 1,0,-1
 103 126 l 1,1,-1
 271 154 l 1,2,-1
 473 1301 l 1,3,-1
 315 1329 l 1,4,-1
 338 1456 l 1,5,-1
 861 1456 l 1,6,-1
 838 1329 l 1,7,-1
 670 1301 l 1,8,-1
 587 827 l 1,9,-1
 1295 827 l 1,10,-1
 1378 1301 l 1,11,-1
 1220 1329 l 1,12,-1
 1243 1456 l 1,13,-1
 1406 1456 l 1,14,-1
 1603 1456 l 1,15,-1
 1766 1456 l 1,16,-1
 1743 1329 l 1,17,-1
 1575 1301 l 1,18,-1
 1494 840 l 1,19,-1
 1853 840 l 2,20,21
 2009 840 2009 840 2109.5 788.5 c 0,22,23
 2210 738 2210 738 2252 644 c 0,24,25
 2279 583 2279 583 2279 507 c 0,26,27
 2279 467 2279 467 2271 424 c 256,28,29
 2249 298 2249 298 2173.5 202.5 c 128,-1,30
 2098 107 2098 107 1979 53.5 c 128,-1,31
 1860 0 1860 0 1705 0 c 2,32,-1
 986 0 l 1,33,-1
 1008 126 l 1,34,-1
 1176 154 l 1,35,-1
 1268 673 l 1,36,-1
 560 673 l 1,37,-1
 468 154 l 1,38,-1
 626 126 l 1,39,-1
 604 0 l 1,40,-1
 81 0 l 1,0,-1
1375 165 m 1,41,-1
 1734 165 l 2,42,43
 1882 165 1882 165 1968.5 239 c 128,-1,44
 2055 313 2055 313 2075 426 c 0,45,46
 2080 454 2080 454 2080 479 c 0,47,48
 2080 522 2080 522 2066 560 c 0,49,50
 2044 618 2044 618 1984.5 651.5 c 128,-1,51
 1925 685 1925 685 1826 685 c 2,52,-1
 1467 685 l 1,53,-1
 1375 165 l 1,41,-1
EndSplineSet
Validated: 524289
EndChar

StartChar: uni0404
Encoding: 1028 1028 614
Width: 1284
GlyphClass: 1
Flags: W
LayerCount: 2
Fore
SplineSet
696 -20 m 0,0,1
 506 -20 506 -20 377 76 c 128,-1,2
 248 172 248 172 194 339 c 0,3,4
 163 437 163 437 163 550 c 0,5,6
 163 630 163 630 179 718 c 2,7,-1
 182 739 l 2,8,9
 220 953 220 953 331 1119.5 c 128,-1,10
 442 1286 442 1286 605 1382 c 128,-1,11
 768 1478 768 1478 961 1478 c 0,12,13
 1127 1478 1127 1478 1241.5 1413.5 c 128,-1,14
 1356 1349 1356 1349 1405 1269 c 1,15,-1
 1359 1010 l 1,16,-1
 1220 1010 l 1,17,-1
 1219 1216 l 1,18,19
 1179 1263 1179 1263 1114.5 1293 c 128,-1,20
 1050 1323 1050 1323 953 1323 c 0,21,22
 813 1323 813 1323 700.5 1258 c 128,-1,23
 588 1193 588 1193 510.5 1078 c 128,-1,24
 433 963 433 963 395 813 c 1,25,-1
 401 813 l 1,26,-1
 987 813 l 1,27,-1
 960 659 l 1,28,-1
 373 659 l 1,29,-1
 367 659 l 1,30,31
 361 607 361 607 361 559 c 0,32,33
 361 465 361 465 384 387 c 0,34,35
 419 269 419 269 505 201.5 c 128,-1,36
 591 134 591 134 724 134 c 0,37,38
 823 134 823 134 909.5 165 c 128,-1,39
 996 196 996 196 1047 241 c 1,40,-1
 1121 447 l 1,41,-1
 1260 447 l 1,42,-1
 1214 188 l 1,43,44
 1137 107 1137 107 999.5 43.5 c 128,-1,45
 862 -20 862 -20 696 -20 c 0,0,1
EndSplineSet
Validated: 1
EndChar

StartChar: uni042D
Encoding: 1069 1069 615
Width: 1257
GlyphClass: 2
Flags: W
AnchorPoint: "Anchor-0" 805 1376 basechar 0
LayerCount: 2
Fore
SplineSet
559 -20 m 0,0,1
 392 -20 392 -20 277.5 44 c 128,-1,2
 163 108 163 108 116 188 c 1,3,-1
 162 447 l 1,4,-1
 300 447 l 1,5,-1
 300 241 l 1,6,7
 335 196 335 196 411 165 c 128,-1,8
 487 134 487 134 587 134 c 0,9,10
 717 134 717 134 820.5 199 c 128,-1,11
 924 264 924 264 995.5 379 c 128,-1,12
 1067 494 1067 494 1101 645 c 1,13,-1
 1100 650 l 1,14,-1
 546 650 l 1,15,-1
 573 804 l 1,16,-1
 1128 804 l 1,17,-1
 1131 809 l 1,18,19
 1139 869 1139 869 1139 923 c 0,20,21
 1140 1007 1140 1007 1120 1077 c 0,22,23
 1088 1193 1088 1193 1002 1258 c 128,-1,24
 916 1323 916 1323 776 1323 c 0,25,26
 678 1323 678 1323 603 1293 c 128,-1,27
 528 1263 528 1263 472 1216 c 1,28,-1
 399 1010 l 1,29,-1
 261 1010 l 1,30,-1
 307 1269 l 1,31,32
 357 1322 357 1322 435.5 1369.5 c 128,-1,33
 514 1417 514 1417 613 1447 c 128,-1,34
 712 1477 712 1477 823 1477 c 0,35,36
 1015 1477 1015 1477 1140 1382 c 0,37,38
 1264 1286 1264 1286 1312 1120 c 0,39,40
 1338 1028 1338 1028 1339 921 c 0,41,42
 1339 835 1339 835 1322 739 c 2,43,-1
 1319 718 l 2,44,45
 1281 504 1281 504 1172.5 337.5 c 128,-1,46
 1064 171 1064 171 905.5 75.5 c 128,-1,47
 747 -20 747 -20 559 -20 c 0,0,1
EndSplineSet
Validated: 1048609
EndChar

StartChar: uni040B
Encoding: 1035 1035 619
Width: 1745
GlyphClass: 1
Flags: W
LayerCount: 2
Fore
SplineSet
339 0 m 1,0,-1
 361 126 l 1,1,-1
 529 154 l 1,2,-1
 731 1301 l 1,3,-1
 468 1301 l 1,4,-1
 425 1134 l 1,5,-1
 256 1134 l 1,6,-1
 313 1456 l 1,7,-1
 1484 1456 l 1,8,-1
 1427 1134 l 1,9,-1
 1258 1134 l 1,10,-1
 1272 1301 l 1,11,-1
 929 1301 l 1,12,-1
 853 868 l 1,13,14
 933 888 933 888 1013.5 898 c 128,-1,15
 1094 908 1094 908 1198 908 c 0,16,17
 1438 908 1438 908 1544 802 c 0,18,19
 1620 726 1620 726 1620 583 c 0,20,21
 1620 526 1620 526 1608 460 c 2,22,-1
 1554 154 l 1,23,-1
 1712 126 l 1,24,-1
 1690 0 l 1,25,-1
 1167 0 l 1,26,-1
 1189 126 l 1,27,-1
 1357 154 l 1,28,-1
 1411 460 l 2,29,30
 1421 515 1421 515 1421 558 c 0,31,32
 1421 645 1421 645 1382 688 c 0,33,34
 1324 752 1324 752 1171 752 c 0,35,36
 1082 752 1082 752 997 741 c 128,-1,37
 912 730 912 730 825 711 c 1,38,-1
 727 154 l 1,39,-1
 885 126 l 1,40,-1
 863 0 l 1,41,-1
 339 0 l 1,0,-1
EndSplineSet
Validated: 1
EndChar

StartChar: uni042E
Encoding: 1070 1070 620
Width: 1994
GlyphClass: 2
Flags: W
AnchorPoint: "Anchor-0" 1240 1376 basechar 0
LayerCount: 2
Fore
SplineSet
1250 -25 m 0,0,1
 1075 -25 1075 -25 952.5 59.5 c 128,-1,2
 830 144 830 144 774 292 c 0,3,4
 731 406 731 406 730 546 c 0,5,6
 730 588 730 588 734 632 c 1,7,-1
 518 632 l 1,8,-1
 434 154 l 1,9,-1
 592 126 l 1,10,-1
 570 0 l 1,11,-1
 47 0 l 1,12,-1
 69 126 l 1,13,-1
 237 154 l 1,14,-1
 439 1301 l 1,15,-1
 281 1329 l 1,16,-1
 304 1456 l 1,17,-1
 827 1456 l 1,18,-1
 804 1329 l 1,19,-1
 636 1301 l 1,20,-1
 546 786 l 1,21,-1
 760 786 l 1,22,23
 805 985 805 985 914.5 1140 c 128,-1,24
 1024 1295 1024 1295 1179.5 1384 c 128,-1,25
 1335 1473 1335 1473 1514 1473 c 0,26,27
 1708 1473 1708 1473 1838.5 1376.5 c 0,28,29
 1968 1280 1968 1280 2022 1113 c 0,30,31
 2053 1015 2053 1015 2054 902 c 0,32,33
 2054 822 2054 822 2038 734 c 2,34,-1
 2035 713 l 2,35,36
 1998 501 1998 501 1885 334 c 128,-1,37
 1772 167 1772 167 1608 71 c 128,-1,38
 1444 -25 1444 -25 1250 -25 c 0,0,1
1278 136 m 0,39,40
 1424 136 1424 136 1539 209 c 128,-1,41
 1654 282 1654 282 1731 412 c 128,-1,42
 1808 542 1808 542 1838 713 c 2,43,-1
 1842 736 l 2,44,45
 1857 818 1857 818 1857 891 c 0,46,47
 1857 970 1857 970 1840 1036 c 0,48,49
 1808 1166 1808 1166 1718.5 1238.5 c 128,-1,50
 1629 1311 1629 1311 1485 1311 c 0,51,52
 1348 1311 1348 1311 1237 1237.5 c 128,-1,53
 1126 1164 1126 1164 1051.5 1034.5 c 128,-1,54
 977 905 977 905 947 736 c 2,55,-1
 943 713 l 2,56,57
 928 627 928 627 928 550 c 0,58,59
 928 476 928 476 942 412 c 0,60,61
 971 282 971 282 1056 209 c 128,-1,62
 1141 136 1141 136 1278 136 c 0,39,40
EndSplineSet
Validated: 1572865
EndChar

StartChar: uni042F
Encoding: 1071 1071 621
Width: 1384
GlyphClass: 2
Flags: W
AnchorPoint: "Anchor-0" 975 1376 basechar 0
LayerCount: 2
Fore
SplineSet
1328 126 m 1,0,-1
 1306 0 l 1,1,-1
 782 0 l 1,2,-1
 804 126 l 1,3,-1
 972 154 l 1,4,-1
 1046 570 l 1,5,-1
 751 570 l 1,6,-1
 460 167 l 2,7,8
 396 82 396 82 325.5 37 c 128,-1,9
 255 -8 255 -8 180 -8 c 0,10,11
 138 -8 138 -8 112 2 c 128,-1,12
 86 12 86 12 62 34 c 1,13,-1
 115 173 l 1,14,15
 146 163 146 163 174 163 c 0,16,17
 215 163 215 163 249.5 187 c 128,-1,18
 284 211 284 211 320 256 c 2,19,-1
 585 607 l 1,20,-1
 589 612 l 1,21,22
 442 664 442 664 378 766 c 0,23,24
 333 838 333 838 333 933 c 0,25,26
 333 973 333 973 341 1018 c 0,27,28
 378 1226 378 1226 535 1341 c 128,-1,29
 692 1456 692 1456 933 1456 c 2,30,-1
 1563 1456 l 1,31,-1
 1540 1329 l 1,32,-1
 1372 1301 l 1,33,-1
 1170 154 l 1,34,-1
 1328 126 l 1,0,-1
905 1301 m 2,35,36
 749 1301 749 1301 655 1226 c 128,-1,37
 561 1151 561 1151 538 1020 c 256,38,39
 532 987 532 987 532 957 c 0,40,41
 532 870 532 870 582 808 c 0,42,43
 650 726 650 726 803 726 c 2,44,-1
 1073 726 l 1,45,-1
 1174 1301 l 1,46,-1
 905 1301 l 2,35,36
EndSplineSet
Validated: 1048577
EndChar

StartChar: uni0402
Encoding: 1026 1026 622
Width: 1573
GlyphClass: 1
Flags: W
LayerCount: 2
Fore
SplineSet
1010 -6 m 1,0,-1
 1005 -4 l 1,1,-1
 1028 137 l 1,2,3
 1136 137 1136 137 1208.5 171 c 128,-1,4
 1281 205 1281 205 1322.5 271 c 128,-1,5
 1364 337 1364 337 1381 433 c 0,6,7
 1387 470 1387 470 1387 502 c 0,8,9
 1387 596 1387 596 1337 652 c 0,10,11
 1270 728 1270 728 1110 727 c 0,12,13
 1048 727 1048 727 969.5 714.5 c 128,-1,14
 891 702 891 702 817 681 c 1,15,-1
 724 154 l 1,16,-1
 863 126 l 1,17,-1
 841 0 l 1,18,-1
 337 0 l 1,19,-1
 359 126 l 1,20,-1
 527 154 l 1,21,-1
 729 1301 l 1,22,-1
 486 1301 l 1,23,-1
 442 1134 l 1,24,-1
 274 1134 l 1,25,-1
 331 1456 l 1,26,-1
 1502 1456 l 1,27,-1
 1445 1134 l 1,28,-1
 1276 1134 l 1,29,-1
 1290 1301 l 1,30,-1
 926 1301 l 1,31,-1
 845 840 l 1,32,33
 930 862 930 862 1008 877 c 128,-1,34
 1086 892 1086 892 1139 892 c 0,35,36
 1385 892 1385 892 1501 771 c 0,37,38
 1588 680 1588 680 1588 536 c 0,39,40
 1588 487 1588 487 1578 433 c 0,41,42
 1553 289 1553 289 1479 190.5 c 128,-1,43
 1405 92 1405 92 1287 42 c 0,44,45
 1174 -6 1174 -6 1022 -6 c 0,46,47
 1016 -6 1016 -6 1010 -6 c 1,0,-1
EndSplineSet
Validated: 33
EndChar

StartChar: uni0460
Encoding: 1120 1120 623
Width: 1763
GlyphClass: 1
Flags: W
LayerCount: 2
Fore
SplineSet
539 -21 m 0,0,1
 419 -21 419 -21 338 26 c 128,-1,2
 257 73 257 73 223 165 c 0,3,4
 203 219 203 219 203 287 c 0,5,6
 203 335 203 335 213 391 c 2,7,-1
 401 1456 l 1,8,-1
 598 1456 l 1,9,-1
 410 391 l 2,10,11
 403 349 403 349 403 313 c 0,12,13
 404 243 404 243 432 199 c 0,14,15
 476 133 476 133 566 133 c 0,16,17
 674 133 674 133 752.5 198.5 c 128,-1,18
 831 264 831 264 853 391 c 2,19,-1
 1041 1456 l 1,20,-1
 1245 1456 l 1,21,-1
 1057 391 l 2,22,23
 1050 352 1050 352 1050 319 c 0,24,25
 1050 245 1050 245 1084 199 c 0,26,27
 1133 133 1133 133 1233 133 c 0,28,29
 1332 133 1332 133 1405 199 c 128,-1,30
 1478 265 1478 265 1500 391 c 2,31,-1
 1688 1456 l 1,32,-1
 1885 1456 l 1,33,-1
 1697 391 l 2,34,35
 1673 257 1673 257 1604.5 165 c 128,-1,36
 1536 73 1536 73 1433.5 26 c 128,-1,37
 1331 -21 1331 -21 1206 -21 c 0,38,39
 1097 -21 1097 -21 1020 22.5 c 128,-1,40
 943 66 943 66 911 152 c 1,41,42
 845 66 845 66 748.5 22.5 c 128,-1,43
 652 -21 652 -21 539 -21 c 0,0,1
EndSplineSet
Validated: 1
EndChar

StartChar: uni0464
Encoding: 1124 1124 625
Width: 1804
GlyphClass: 1
Flags: W
LayerCount: 2
Fore
SplineSet
1252 -20 m 0,0,1
 1071 -20 1071 -20 944.5 69 c 128,-1,2
 818 158 818 158 760 314 c 0,3,4
 719 424 719 424 720 555 c 0,5,6
 720 610 720 610 727 668 c 0,7,8
 728 671 728 671 728 673.5 c 128,-1,9
 728 676 728 676 729 679 c 1,10,-1
 537 679 l 1,11,-1
 444 154 l 1,12,-1
 602 126 l 1,13,-1
 580 0 l 1,14,-1
 57 0 l 1,15,-1
 79 126 l 1,16,-1
 247 154 l 1,17,-1
 449 1301 l 1,18,-1
 291 1329 l 1,19,-1
 314 1456 l 1,20,-1
 477 1456 l 1,21,-1
 674 1456 l 1,22,-1
 837 1456 l 1,23,-1
 814 1329 l 1,24,-1
 646 1301 l 1,25,-1
 564 834 l 1,26,-1
 759 834 l 1,27,28
 811 1024 811 1024 922 1169 c 128,-1,29
 1033 1314 1033 1314 1186 1396 c 128,-1,30
 1339 1478 1339 1478 1517 1478 c 0,31,32
 1683 1478 1683 1478 1797.5 1413.5 c 128,-1,33
 1912 1349 1912 1349 1961 1269 c 1,34,-1
 1915 1010 l 1,35,-1
 1776 1010 l 1,36,-1
 1775 1216 l 1,37,38
 1735 1263 1735 1263 1670.5 1293 c 128,-1,39
 1606 1323 1606 1323 1509 1323 c 0,40,41
 1373 1323 1373 1323 1263 1261.5 c 128,-1,42
 1153 1200 1153 1200 1076 1091 c 128,-1,43
 999 982 999 982 962 840 c 1,44,-1
 964 834 l 1,45,-1
 1507 834 l 1,46,-1
 1480 679 l 1,47,-1
 933 679 l 1,48,-1
 929 674 l 1,49,50
 919 608 919 608 919 549 c 0,51,52
 919 467 919 467 938 396 c 0,53,54
 971 274 971 274 1058 204 c 128,-1,55
 1145 134 1145 134 1280 134 c 0,56,57
 1379 134 1379 134 1465.5 165 c 128,-1,58
 1552 196 1552 196 1603 241 c 1,59,-1
 1677 447 l 1,60,-1
 1816 447 l 1,61,-1
 1770 188 l 1,62,63
 1693 107 1693 107 1555.5 43.5 c 128,-1,64
 1418 -20 1418 -20 1252 -20 c 0,0,1
EndSplineSet
Validated: 33
EndChar

StartChar: uni0466
Encoding: 1126 1126 626
Width: 1427
GlyphClass: 1
Flags: W
LayerCount: 2
Fore
SplineSet
52 0 m 1,0,-1
 74 126 l 1,1,-1
 181 141 l 1,2,-1
 887 1456 l 1,3,-1
 1055 1456 l 1,4,-1
 1288 141 l 1,5,-1
 1389 126 l 1,6,-1
 1367 0 l 1,7,-1
 949 0 l 1,8,-1
 971 126 l 1,9,-1
 1088 145 l 1,10,-1
 1038 457 l 1,11,-1
 883 457 l 1,12,-1
 802 0 l 1,13,-1
 606 0 l 1,14,-1
 687 457 l 1,15,-1
 545 457 l 1,16,-1
 382 145 l 1,17,-1
 491 126 l 1,18,-1
 469 0 l 1,19,-1
 52 0 l 1,0,-1
630 621 m 1,20,-1
 1010 621 l 1,21,-1
 928 1125 l 1,22,-1
 921 1165 l 1,23,-1
 915 1165 l 1,24,-1
 897 1131 l 1,25,-1
 630 621 l 1,20,-1
EndSplineSet
Validated: 1
EndChar

StartChar: uni0468
Encoding: 1128 1128 627
Width: 1935
GlyphClass: 1
Flags: W
LayerCount: 2
Fore
SplineSet
40 0 m 1,0,-1
 62 126 l 1,1,-1
 230 154 l 1,2,-1
 432 1301 l 1,3,-1
 274 1329 l 1,4,-1
 297 1456 l 1,5,-1
 460 1456 l 1,6,-1
 657 1456 l 1,7,-1
 820 1456 l 1,8,-1
 797 1329 l 1,9,-1
 629 1301 l 1,10,-1
 510 622 l 1,11,-1
 988 622 l 1,12,-1
 1436 1456 l 1,13,-1
 1604 1456 l 1,14,-1
 1837 141 l 1,15,-1
 1938 126 l 1,16,-1
 1916 0 l 1,17,-1
 1498 0 l 1,18,-1
 1520 126 l 1,19,-1
 1637 145 l 1,20,-1
 1587 457 l 1,21,-1
 1432 457 l 1,22,-1
 1351 0 l 1,23,-1
 1155 0 l 1,24,-1
 1236 457 l 1,25,-1
 1094 457 l 1,26,-1
 931 145 l 1,27,-1
 1040 126 l 1,28,-1
 1018 0 l 1,29,-1
 601 0 l 1,30,-1
 623 126 l 1,31,-1
 730 141 l 1,32,-1
 900 458 l 1,33,-1
 481 458 l 1,34,-1
 427 154 l 1,35,-1
 585 126 l 1,36,-1
 563 0 l 1,37,-1
 40 0 l 1,0,-1
1179 621 m 1,38,-1
 1559 621 l 1,39,-1
 1477 1124 l 1,40,-1
 1470 1165 l 1,41,-1
 1464 1165 l 1,42,-1
 1442 1123 l 1,43,-1
 1179 621 l 1,38,-1
EndSplineSet
Validated: 1
EndChar

StartChar: uni046A
Encoding: 1130 1130 628
Width: 1895
GlyphClass: 1
Flags: W
LayerCount: 2
Fore
SplineSet
55 0 m 1,0,-1
 77 126 l 1,1,-1
 245 154 l 1,2,-1
 283 371 l 2,3,4
 324 605 324 605 466.5 709.5 c 128,-1,5
 609 814 609 814 849 814 c 0,6,7
 858 814 858 814 867.5 814 c 128,-1,8
 877 814 877 814 886 814 c 1,9,-1
 672 1308 l 1,10,-1
 531 1329 l 1,11,-1
 554 1456 l 1,12,-1
 1870 1456 l 1,13,-1
 1847 1329 l 1,14,-1
 1701 1308 l 1,15,-1
 1313 814 l 1,16,17
 1318 814 1318 814 1324 814 c 128,-1,18
 1330 814 1330 814 1335 814 c 0,19,20
 1574 814 1574 814 1680 710 c 0,21,22
 1756 635 1756 635 1756 493 c 0,23,24
 1756 437 1756 437 1744 371 c 2,25,-1
 1706 154 l 1,26,-1
 1864 126 l 1,27,-1
 1842 0 l 1,28,-1
 1319 0 l 1,29,-1
 1341 126 l 1,30,-1
 1509 154 l 1,31,-1
 1547 371 l 2,32,33
 1557 425 1557 425 1557 468 c 0,34,35
 1557 554 1557 554 1518 596 c 0,36,37
 1460 659 1460 659 1307 659 c 2,38,-1
 1191 659 l 1,39,-1
 1162 637 l 1,40,-1
 1077 154 l 1,41,-1
 1235 126 l 1,42,-1
 1213 0 l 1,43,-1
 690 0 l 1,44,-1
 712 126 l 1,45,-1
 880 154 l 1,46,-1
 964 632 l 1,47,-1
 952 659 l 1,48,-1
 821 659 l 2,49,50
 668 659 668 659 588.5 596 c 128,-1,51
 509 533 509 533 480 371 c 2,52,-1
 442 154 l 1,53,-1
 600 126 l 1,54,-1
 578 0 l 1,55,-1
 55 0 l 1,0,-1
1094 814 m 1,56,-1
 1104 814 l 1,57,-1
 1126 843 l 1,58,-1
 1473 1301 l 1,59,-1
 895 1301 l 1,60,-1
 1084 837 l 1,61,-1
 1094 814 l 1,56,-1
EndSplineSet
Validated: 1
EndChar

StartChar: uni046C
Encoding: 1132 1132 629
Width: 2438
GlyphClass: 1
Flags: W
LayerCount: 2
Fore
SplineSet
56 0 m 1,0,-1
 78 126 l 1,1,-1
 246 154 l 1,2,-1
 448 1301 l 1,3,-1
 290 1329 l 1,4,-1
 313 1456 l 1,5,-1
 836 1456 l 1,6,-1
 813 1329 l 1,7,-1
 645 1301 l 1,8,-1
 560 815 l 1,9,-1
 1577 815 l 1,10,-1
 1549 660 l 1,11,-1
 532 660 l 1,12,-1
 443 154 l 1,13,-1
 601 126 l 1,14,-1
 579 0 l 1,15,-1
 56 0 l 1,0,-1
621 0 m 1,16,-1
 643 126 l 1,17,-1
 811 154 l 1,18,-1
 849 371 l 2,19,20
 890 605 890 605 1032.5 709.5 c 128,-1,21
 1175 814 1175 814 1415 814 c 0,22,23
 1424 814 1424 814 1433.5 814 c 128,-1,24
 1443 814 1443 814 1452 814 c 1,25,-1
 1238 1308 l 1,26,-1
 1097 1329 l 1,27,-1
 1120 1456 l 1,28,-1
 2436 1456 l 1,29,-1
 2413 1329 l 1,30,-1
 2267 1308 l 1,31,-1
 1879 814 l 1,32,33
 1884 814 1884 814 1890 814 c 128,-1,34
 1896 814 1896 814 1901 814 c 0,35,36
 2140 814 2140 814 2246 710 c 0,37,38
 2322 635 2322 635 2322 493 c 0,39,40
 2322 437 2322 437 2310 371 c 2,41,-1
 2272 154 l 1,42,-1
 2430 126 l 1,43,-1
 2408 0 l 1,44,-1
 1885 0 l 1,45,-1
 1907 126 l 1,46,-1
 2075 154 l 1,47,-1
 2113 371 l 2,48,49
 2123 425 2123 425 2123 468 c 0,50,51
 2123 554 2123 554 2084 596 c 0,52,53
 2026 659 2026 659 1873 659 c 2,54,-1
 1757 659 l 1,55,-1
 1728 637 l 1,56,-1
 1643 154 l 1,57,-1
 1801 126 l 1,58,-1
 1779 0 l 1,59,-1
 1256 0 l 1,60,-1
 1278 126 l 1,61,-1
 1446 154 l 1,62,-1
 1530 632 l 1,63,-1
 1518 659 l 1,64,-1
 1387 659 l 2,65,66
 1234 659 1234 659 1154.5 596 c 128,-1,67
 1075 533 1075 533 1046 371 c 2,68,-1
 1008 154 l 1,69,-1
 1166 126 l 1,70,-1
 1144 0 l 1,71,-1
 621 0 l 1,16,-1
1660 814 m 1,72,-1
 1670 814 l 1,73,-1
 1692 843 l 1,74,-1
 2039 1301 l 1,75,-1
 1461 1301 l 1,76,-1
 1650 837 l 1,77,-1
 1660 814 l 1,72,-1
EndSplineSet
Validated: 5
EndChar

StartChar: uni046E
Encoding: 1134 1134 630
Width: 1053
GlyphClass: 1
Flags: W
LayerCount: 2
Fore
SplineSet
278 -444 m 1,0,1
 210 -412 210 -412 157.5 -365 c 0,2,3
 106 -318 106 -318 80 -257 c 0,4,5
 63 -217 63 -217 63 -170 c 0,6,7
 63 -146 63 -146 67 -122 c 0,8,9
 90 7 90 7 191 71 c 128,-1,10
 292 135 292 135 453 135 c 2,11,-1
 494 135 l 2,12,13
 624 135 624 135 711.5 209.5 c 128,-1,14
 799 284 799 284 820 403 c 0,15,16
 826 436 826 436 826 465 c 0,17,18
 826 553 826 553 773 603 c 0,19,20
 703 670 703 670 545 670 c 2,21,-1
 402 670 l 1,22,-1
 429 825 l 1,23,-1
 572 825 l 2,24,25
 726 825 726 825 810.5 888.5 c 128,-1,26
 895 952 895 952 915 1066 c 0,27,28
 919 1090 919 1090 919 1113 c 0,29,30
 920 1186 920 1186 874 1240 c 0,31,32
 814 1310 814 1310 678 1311 c 0,33,34
 601 1311 601 1311 538 1290.5 c 128,-1,35
 475 1270 475 1270 431 1235 c 1,36,-1
 388 1065 l 1,37,-1
 230 1065 l 1,38,-1
 273 1306 l 1,39,40
 353 1381 353 1381 464 1423.5 c 128,-1,41
 575 1466 575 1466 705 1466 c 0,42,43
 845 1466 845 1466 944 1415.5 c 0,44,45
 1043 1364 1043 1364 1088 1274 c 0,46,47
 1118 1213 1118 1213 1118 1139 c 0,48,49
 1118 1102 1118 1102 1111 1062 c 0,50,51
 1093 959 1093 959 1013.5 877 c 128,-1,52
 934 795 934 795 812 751 c 1,53,54
 934 710 934 710 988 622 c 0,55,56
 1026 560 1026 560 1025 478 c 0,57,58
 1025 444 1025 444 1019 407 c 0,59,60
 996 274 996 274 918 178 c 128,-1,61
 840 82 840 82 724 31 c 128,-1,62
 608 -20 608 -20 466 -20 c 2,63,-1
 417 -20 l 2,64,65
 341 -20 341 -20 301.5 -49.5 c 128,-1,66
 262 -79 262 -79 253 -132 c 0,67,68
 250 -148 250 -148 250 -163 c 0,69,70
 250 -190 250 -190 260 -212 c 0,71,72
 275 -246 275 -246 307 -271.5 c 128,-1,73
 339 -297 339 -297 379 -317 c 1,74,-1
 278 -444 l 1,0,1
683 1591 m 1,75,-1
 477 1829 l 1,76,-1
 481 1854 l 1,77,-1
 642 1854 l 1,78,-1
 763 1706 l 1,79,-1
 934 1854 l 1,80,-1
 1094 1854 l 1,81,-1
 1089 1828 l 1,82,-1
 802 1591 l 1,83,-1
 683 1591 l 1,75,-1
EndSplineSet
Validated: 524321
EndChar

StartChar: uni0472
Encoding: 1138 1138 632
Width: 1403
GlyphClass: 1
Flags: W
LayerCount: 2
Fore
SplineSet
709 -21 m 0,0,1
 521 -21 521 -21 395 75 c 0,2,3
 268 171 268 171 218 338 c 0,4,5
 189 434 189 434 189 546 c 0,6,7
 189 628 189 628 205 717 c 2,8,-1
 209 738 l 2,9,10
 246 950 246 950 355.5 1117 c 128,-1,11
 465 1284 465 1284 625 1380.5 c 128,-1,12
 785 1477 785 1477 973 1477 c 0,13,14
 1167 1477 1167 1477 1297.5 1380.5 c 128,-1,15
 1428 1284 1428 1284 1482 1117 c 0,16,17
 1514 1019 1514 1019 1514 905 c 0,18,19
 1514 825 1514 825 1498 738 c 2,20,-1
 1494 717 l 2,21,22
 1457 505 1457 505 1344.5 338 c 128,-1,23
 1232 171 1232 171 1067.5 75 c 128,-1,24
 903 -21 903 -21 709 -21 c 0,0,1
738 140 m 0,25,26
 872 140 872 140 980.5 202 c 128,-1,27
 1089 264 1089 264 1164.5 376 c 128,-1,28
 1240 488 1240 488 1275 636 c 1,29,-1
 1274 641 l 1,30,-1
 399 641 l 1,31,-1
 396 636 l 1,32,33
 390 587 390 587 390 541 c 0,34,35
 390 450 390 450 413 376 c 0,36,37
 447 264 447 264 529.5 202 c 128,-1,38
 612 140 612 140 738 140 c 0,25,26
424 796 m 1,39,-1
 1302 796 l 1,40,-1
 1305 801 l 1,41,42
 1313 857 1313 857 1313 909 c 0,43,44
 1312 996 1312 996 1290 1068 c 0,45,46
 1254 1184 1254 1184 1167.5 1249.5 c 128,-1,47
 1081 1315 1081 1315 945 1315 c 0,48,49
 816 1315 816 1315 710 1249.5 c 128,-1,50
 604 1184 604 1184 530 1068.5 c 128,-1,51
 456 953 456 953 423 801 c 1,52,-1
 424 796 l 1,39,-1
EndSplineSet
Validated: 1
EndChar

StartChar: uni0474
Encoding: 1140 1140 633
Width: 1387
GlyphClass: 2
Flags: W
AnchorPoint: "Anchor-0" 959 1376 basechar 0
LayerCount: 2
Fore
SplineSet
620 0 m 1,0,-1
 391 1314 l 1,1,-1
 291 1329 l 1,2,-1
 314 1456 l 1,3,-1
 744 1456 l 1,4,-1
 721 1329 l 1,5,-1
 602 1309 l 1,6,-1
 736 382 l 1,7,-1
 748 261 l 1,8,-1
 754 261 l 1,9,-1
 808 382 l 1,10,-1
 1203 1187 l 2,11,12
 1280 1343 1280 1343 1357 1409.5 c 128,-1,13
 1434 1476 1434 1476 1542 1476 c 2,14,-1
 1592 1475 l 1,15,-1
 1561 1306 l 1,16,-1
 1549 1306 l 2,17,18
 1516 1306 1516 1306 1490 1292.5 c 128,-1,19
 1464 1279 1464 1279 1439.5 1248 c 128,-1,20
 1415 1217 1415 1217 1386 1163 c 2,21,-1
 789 0 l 1,22,-1
 620 0 l 1,0,-1
EndSplineSet
Validated: 1048577
EndChar

StartChar: uni049C
Encoding: 1180 1180 639
Width: 1470
GlyphClass: 1
Flags: W
LayerCount: 2
Fore
SplineSet
70 0 m 1,0,-1
 92 126 l 1,1,-1
 260 154 l 1,2,-1
 462 1301 l 1,3,-1
 304 1329 l 1,4,-1
 327 1456 l 1,5,-1
 850 1456 l 1,6,-1
 827 1329 l 1,7,-1
 659 1301 l 1,8,-1
 571 800 l 1,9,-1
 890 800 l 1,10,-1
 1212 1274 l 2,11,12
 1290 1391 1290 1391 1358.5 1429 c 128,-1,13
 1427 1467 1427 1467 1516 1467 c 0,14,15
 1564 1467 1564 1467 1599 1455.5 c 128,-1,16
 1634 1444 1634 1444 1663 1423 c 1,17,-1
 1610 1285 l 1,18,19
 1590 1289 1590 1289 1568.5 1292 c 128,-1,20
 1547 1295 1547 1295 1525 1295 c 0,21,22
 1476 1295 1476 1295 1440.5 1270.5 c 128,-1,23
 1405 1246 1405 1246 1361 1185 c 2,24,-1
 1050 750 l 1,25,-1
 1290 146 l 1,26,-1
 1424 126 l 1,27,-1
 1402 0 l 1,28,-1
 1103 0 l 1,29,-1
 885 634 l 1,30,-1
 542 634 l 1,31,-1
 457 154 l 1,32,-1
 615 126 l 1,33,-1
 593 0 l 1,34,-1
 70 0 l 1,0,-1
602 412 m 1,35,-1
 717 1064 l 1,36,-1
 874 1064 l 1,37,-1
 759 412 l 1,38,-1
 602 412 l 1,35,-1
EndSplineSet
Validated: 5
EndChar

